<svg xmlns="http://www.w3.org/2000/svg" version="1.1" xmlns:xlink="http://www.w3.org/1999/xlink" xmlns:svgjs="http://svgjs.dev/svgjs" viewBox="0 0 16.48478135597107 4.961360181218998"><g transform="matrix(1,0,0,1,4.233128296431415,0.8061460865230929)"><g><path d=" M 0.1259765625 0.30908203125 Q 0.1259765625 0.246826171875 0.12451171875 0.2003173828125 Q 0.123046875 0.15380859375 0.1201171875 0.1197509765625 Q 0.1171875 0.085693359375 0.1131591796875 0.06298828125 Q 0.109130859375 0.040283203125 0.104736328125 0.02490234375 L 0.104736328125 0.02197265625 Q 0.119384765625 0.022705078125 0.135498046875 0.022705078125 Q 0.1494140625 0.0234375 0.1666259765625 0.0234375 Q 0.183837890625 0.0234375 0.2021484375 0.0234375 Q 0.228515625 0.0234375 0.2735595703125 0.018310546875 Q 0.318603515625 0.01318359375 0.3896484375 0.01318359375 Q 0.45556640625 0.01318359375 0.51123046875 0.0303955078125 Q 0.56689453125 0.047607421875 0.6075439453125 0.079833984375 Q 0.648193359375 0.112060546875 0.6712646484375 0.1593017578125 Q 0.6943359375 0.20654296875 0.6943359375 0.2666015625 Q 0.6943359375 0.317138671875 0.680419921875 0.3570556640625 Q 0.66650390625 0.39697265625 0.6412353515625 0.4266357421875 Q 0.615966796875 0.456298828125 0.5804443359375 0.4764404296875 Q 0.544921875 0.49658203125 0.50244140625 0.50830078125 Q 0.564697265625 0.517822265625 0.615966796875 0.5401611328125 Q 0.667236328125 0.5625 0.7042236328125 0.59619140625 Q 0.7412109375 0.6298828125 0.7613525390625 0.6749267578125 Q 0.781494140625 0.719970703125 0.781494140625 0.77490234375 Q 0.781494140625 0.929443359375 0.6796875 1.0067138671875 Q 0.577880859375 1.083984375 0.375 1.083984375 Q 0.35302734375 1.083984375 0.32373046875 1.0821533203125 Q 0.29443359375 1.080322265625 0.2640380859375 1.078125 Q 0.233642578125 1.075927734375 0.204345703125 1.0740966796875 Q 0.175048828125 1.072265625 0.153076171875 1.072265625 L 0.104736328125 1.072265625 L 0.104736328125 1.0693359375 Q 0.109130859375 1.053955078125 0.1131591796875 1.03125 Q 0.1171875 1.008544921875 0.1201171875 0.974853515625 Q 0.123046875 0.941162109375 0.12451171875 0.8946533203125 Q 0.1259765625 0.84814453125 0.1259765625 0.785888671875 L 0.1259765625 0.30908203125 M 0.394775390625 0.552978515625 Q 0.344970703125 0.552978515625 0.311279296875 0.556640625 Q 0.277587890625 0.560302734375 0.25927734375 0.56396484375 L 0.25927734375 0.785888671875 Q 0.25927734375 0.87158203125 0.26220703125 0.92724609375 Q 0.26513671875 0.98291015625 0.270263671875 1.01806640625 Q 0.298095703125 1.021728515625 0.325927734375 1.024658203125 Q 0.353759765625 1.027587890625 0.37060546875 1.027587890625 Q 0.507568359375 1.027587890625 0.5709228515625 0.9664306640625 Q 0.63427734375 0.9052734375 0.63427734375 0.778564453125 Q 0.63427734375 0.728759765625 0.6192626953125 0.6873779296875 Q 0.604248046875 0.64599609375 0.5745849609375 0.615966796875 Q 0.544921875 0.5859375 0.4998779296875 0.5694580078125 Q 0.454833984375 0.552978515625 0.394775390625 0.552978515625 M 0.25927734375 0.498046875 Q 0.27978515625 0.500244140625 0.2958984375 0.5006103515625 Q 0.31201171875 0.5009765625 0.330322265625 0.5009765625 Q 0.380126953125 0.5009765625 0.421142578125 0.4866943359375 Q 0.462158203125 0.472412109375 0.4910888671875 0.44384765625 Q 0.52001953125 0.415283203125 0.5361328125 0.3724365234375 Q 0.55224609375 0.32958984375 0.55224609375 0.2724609375 Q 0.55224609375 0.224853515625 0.54052734375 0.18603515625 Q 0.52880859375 0.147216796875 0.5057373046875 0.1197509765625 Q 0.482666015625 0.09228515625 0.448974609375 0.07763671875 Q 0.415283203125 0.06298828125 0.3720703125 0.06298828125 Q 0.34423828125 0.06298828125 0.3233642578125 0.065185546875 Q 0.302490234375 0.0673828125 0.287841796875 0.0703125 Q 0.27099609375 0.0732421875 0.25927734375 0.07763671875 L 0.25927734375 0.498046875 M 1.68017578125 1.072265625 L 1.68017578125 1.0693359375 Q 1.681640625 1.065673828125 1.682373046875 1.058349609375 Q 1.68310546875 1.051025390625 1.68310546875 1.045166015625 Q 1.68310546875 1.0224609375 1.6768798828125 0.9949951171875 Q 1.670654296875 0.967529296875 1.653076171875 0.926513671875 L 1.564453125 0.727294921875 Q 1.5234375 0.725830078125 1.455322265625 0.725830078125 Q 1.38720703125 0.725830078125 1.30810546875 0.725830078125 Q 1.250244140625 0.725830078125 1.1964111328125 0.725830078125 Q 1.142578125 0.725830078125 1.099365234375 0.727294921875 L 1.01513671875 0.920654296875 Q 1.004150390625 0.94775390625 0.99169921875 0.97998046875 Q 0.979248046875 1.01220703125 0.979248046875 1.045166015625 Q 0.979248046875 1.0546875 0.980712890625 1.0609130859375 Q 0.982177734375 1.067138671875 0.983642578125 1.0693359375 L 0.983642578125 1.072265625 L 0.834228515625 1.072265625 L 0.834228515625 1.0693359375 Q 0.847412109375 1.055419921875 0.8671875 1.0198974609375 Q 0.886962890625 0.984375 0.910400390625 0.930908203125 L 1.330078125 0 L 1.388671875 0 L 1.786376953125 0.89501953125 Q 1.80029296875 0.926513671875 1.8153076171875 0.9561767578125 Q 1.830322265625 0.98583984375 1.843505859375 1.00927734375 Q 1.856689453125 1.03271484375 1.866943359375 1.048828125 Q 1.877197265625 1.06494140625 1.880859375 1.0693359375 L 1.880859375 1.072265625 L 1.68017578125 1.072265625 M 1.20556640625 0.662841796875 Q 1.248046875 0.662841796875 1.292724609375 0.6624755859375 Q 1.33740234375 0.662109375 1.3802490234375 0.6617431640625 Q 1.423095703125 0.661376953125 1.462646484375 0.6610107421875 Q 1.502197265625 0.66064453125 1.534423828125 0.659912109375 L 1.32861328125 0.19482421875 L 1.12646484375 0.662841796875 L 1.20556640625 0.662841796875 M 2.704833984375 0.56982421875 Q 2.675537109375 0.569091796875 2.631591796875 0.5687255859375 Q 2.587646484375 0.568359375 2.5360107421875 0.567626953125 Q 2.484375 0.56689453125 2.4283447265625 0.5665283203125 Q 2.372314453125 0.566162109375 2.31884765625 0.5657958984375 Q 2.265380859375 0.5654296875 2.217041015625 0.566162109375 Q 2.168701171875 0.56689453125 2.1328125 0.568359375 L 2.1328125 0.785888671875 Q 2.1328125 0.84814453125 2.1346435546875 0.8946533203125 Q 2.136474609375 0.941162109375 2.1390380859375 0.974853515625 Q 2.1416015625 1.008544921875 2.1456298828125 1.03125 Q 2.149658203125 1.053955078125 2.154052734375 1.0693359375 L 2.154052734375 1.072265625 L 1.978271484375 1.072265625 L 1.978271484375 1.0693359375 Q 1.982666015625 1.053955078125 1.9866943359375 1.03125 Q 1.99072265625 1.008544921875 1.99365234375 0.974853515625 Q 1.99658203125 0.941162109375 1.998046875 0.8946533203125 Q 1.99951171875 0.84814453125 1.99951171875 0.785888671875 L 1.99951171875 0.30908203125 Q 1.99951171875 0.246826171875 1.998046875 0.2003173828125 Q 1.99658203125 0.15380859375 1.99365234375 0.1197509765625 Q 1.99072265625 0.085693359375 1.9866943359375 0.06298828125 Q 1.982666015625 0.040283203125 1.978271484375 0.02490234375 L 1.978271484375 0.02197265625 L 2.154052734375 0.02197265625 L 2.154052734375 0.02490234375 Q 2.149658203125 0.040283203125 2.1456298828125 0.06298828125 Q 2.1416015625 0.085693359375 2.1390380859375 0.1197509765625 Q 2.136474609375 0.15380859375 2.1346435546875 0.2003173828125 Q 2.1328125 0.246826171875 2.1328125 0.30908203125 L 2.1328125 0.49658203125 Q 2.1708984375 0.498046875 2.21923828125 0.4984130859375 Q 2.267578125 0.498779296875 2.3203125 0.4984130859375 Q 2.373046875 0.498046875 2.4276123046875 0.497314453125 Q 2.482177734375 0.49658203125 2.5330810546875 0.4954833984375 Q 2.583984375 0.494384765625 2.6282958984375 0.492919921875 Q 2.672607421875 0.491455078125 2.704833984375 0.489990234375 L 2.704833984375 0.30908203125 Q 2.704833984375 0.246826171875 2.7030029296875 0.2003173828125 Q 2.701171875 0.15380859375 2.6986083984375 0.1197509765625 Q 2.696044921875 0.085693359375 2.6920166015625 0.06298828125 Q 2.68798828125 0.040283203125 2.68359375 0.02490234375 L 2.68359375 0.02197265625 L 2.859375 0.02197265625 L 2.859375 0.02490234375 Q 2.85498046875 0.040283203125 2.8509521484375 0.06298828125 Q 2.846923828125 0.085693359375 2.843994140625 0.1197509765625 Q 2.841064453125 0.15380859375 2.839599609375 0.2003173828125 Q 2.838134765625 0.246826171875 2.838134765625 0.30908203125 L 2.838134765625 0.785888671875 Q 2.838134765625 0.84814453125 2.839599609375 0.8946533203125 Q 2.841064453125 0.941162109375 2.843994140625 0.974853515625 Q 2.846923828125 1.008544921875 2.8509521484375 1.03125 Q 2.85498046875 1.053955078125 2.859375 1.0693359375 L 2.859375 1.072265625 L 2.68359375 1.072265625 L 2.68359375 1.0693359375 Q 2.68798828125 1.053955078125 2.6920166015625 1.03125 Q 2.696044921875 1.008544921875 2.6986083984375 0.974853515625 Q 2.701171875 0.941162109375 2.7030029296875 0.8946533203125 Q 2.704833984375 0.84814453125 2.704833984375 0.785888671875 L 2.704833984375 0.56982421875 M 3.802734375 1.072265625 L 3.802734375 1.0693359375 Q 3.80419921875 1.065673828125 3.804931640625 1.058349609375 Q 3.8056640625 1.051025390625 3.8056640625 1.045166015625 Q 3.8056640625 1.0224609375 3.7994384765625 0.9949951171875 Q 3.793212890625 0.967529296875 3.775634765625 0.926513671875 L 3.68701171875 0.727294921875 Q 3.64599609375 0.725830078125 3.577880859375 0.725830078125 Q 3.509765625 0.725830078125 3.4306640625 0.725830078125 Q 3.372802734375 0.725830078125 3.3189697265625 0.725830078125 Q 3.26513671875 0.725830078125 3.221923828125 0.727294921875 L 3.1376953125 0.920654296875 Q 3.126708984375 0.94775390625 3.1142578125 0.97998046875 Q 3.101806640625 1.01220703125 3.101806640625 1.045166015625 Q 3.101806640625 1.0546875 3.103271484375 1.0609130859375 Q 3.104736328125 1.067138671875 3.106201171875 1.0693359375 L 3.106201171875 1.072265625 L 2.956787109375 1.072265625 L 2.956787109375 1.0693359375 Q 2.969970703125 1.055419921875 2.98974609375 1.0198974609375 Q 3.009521484375 0.984375 3.032958984375 0.930908203125 L 3.45263671875 0 L 3.51123046875 0 L 3.908935546875 0.89501953125 Q 3.9228515625 0.926513671875 3.9378662109375 0.9561767578125 Q 3.952880859375 0.98583984375 3.966064453125 1.00927734375 Q 3.979248046875 1.03271484375 3.989501953125 1.048828125 Q 3.999755859375 1.06494140625 4.00341796875 1.0693359375 L 4.00341796875 1.072265625 L 3.802734375 1.072265625 M 3.328125 0.662841796875 Q 3.37060546875 0.662841796875 3.415283203125 0.6624755859375 Q 3.4599609375 0.662109375 3.5028076171875 0.6617431640625 Q 3.545654296875 0.661376953125 3.585205078125 0.6610107421875 Q 3.624755859375 0.66064453125 3.656982421875 0.659912109375 L 3.451171875 0.19482421875 L 3.2490234375 0.662841796875 L 3.328125 0.662841796875 M 4.141845703125 0.02197265625 L 4.896240234375 0.82470703125 L 4.896240234375 0.30908203125 Q 4.896240234375 0.246826171875 4.894775390625 0.2003173828125 Q 4.893310546875 0.15380859375 4.890380859375 0.1197509765625 Q 4.887451171875 0.085693359375 4.8834228515625 0.06298828125 Q 4.87939453125 0.040283203125 4.875 0.02490234375 L 4.875 0.02197265625 L 5.00537109375 0.02197265625 L 5.00537109375 0.02490234375 Q 5.0009765625 0.040283203125 4.997314453125 0.06298828125 Q 4.99365234375 0.085693359375 4.99072265625 0.1197509765625 Q 4.98779296875 0.15380859375 4.986328125 0.2003173828125 Q 4.98486328125 0.246826171875 4.98486328125 0.30908203125 L 4.98486328125 1.0869140625 L 4.959228515625 1.0869140625 L 4.204833984375 0.284912109375 L 4.204833984375 0.785888671875 Q 4.204833984375 0.84814453125 4.206298828125 0.8946533203125 Q 4.207763671875 0.941162109375 4.210693359375 0.974853515625 Q 4.213623046875 1.008544921875 4.21728515625 1.03125 Q 4.220947265625 1.053955078125 4.225341796875 1.0693359375 L 4.225341796875 1.072265625 L 4.094970703125 1.072265625 L 4.094970703125 1.0693359375 Q 4.099365234375 1.053955078125 4.1033935546875 1.03125 Q 4.107421875 1.008544921875 4.1103515625 0.974853515625 Q 4.11328125 0.941162109375 4.11474609375 0.8946533203125 Q 4.1162109375 0.84814453125 4.1162109375 0.785888671875 L 4.1162109375 0.30908203125 Q 4.1162109375 0.246826171875 4.11474609375 0.2003173828125 Q 4.11328125 0.15380859375 4.1103515625 0.1197509765625 Q 4.107421875 0.085693359375 4.1033935546875 0.06298828125 Q 4.099365234375 0.040283203125 4.094970703125 0.02490234375 L 4.094970703125 0.02197265625 L 4.141845703125 0.02197265625 M 5.222900390625 1.0693359375 Q 5.227294921875 1.053955078125 5.23095703125 1.03125 Q 5.234619140625 1.008544921875 5.237548828125 0.974853515625 Q 5.240478515625 0.941162109375 5.241943359375 0.8946533203125 Q 5.243408203125 0.84814453125 5.243408203125 0.785888671875 L 5.243408203125 0.30908203125 Q 5.243408203125 0.246826171875 5.241943359375 0.2003173828125 Q 5.240478515625 0.15380859375 5.237548828125 0.1197509765625 Q 5.234619140625 0.085693359375 5.23095703125 0.06298828125 Q 5.227294921875 0.040283203125 5.222900390625 0.02490234375 L 5.222900390625 0.02197265625 L 5.39794921875 0.02197265625 L 5.39794921875 0.02490234375 Q 5.3935546875 0.040283203125 5.3895263671875 0.06298828125 Q 5.385498046875 0.085693359375 5.3829345703125 0.1197509765625 Q 5.38037109375 0.15380859375 5.3785400390625 0.2003173828125 Q 5.376708984375 0.246826171875 5.376708984375 0.30908203125 L 5.376708984375 0.785888671875 Q 5.376708984375 0.84814453125 5.3785400390625 0.8946533203125 Q 5.38037109375 0.941162109375 5.3829345703125 0.974853515625 Q 5.385498046875 1.008544921875 5.3895263671875 1.03125 Q 5.3935546875 1.053955078125 5.39794921875 1.0693359375 L 5.39794921875 1.072265625 L 5.222900390625 1.072265625 L 5.222900390625 1.0693359375 M 6.23876953125 0.0849609375 Q 6.2373046875 0.1669921875 6.23583984375 0.243896484375 Q 6.235107421875 0.27685546875 6.2347412109375 0.311279296875 Q 6.234375 0.345703125 6.2340087890625 0.3790283203125 Q 6.233642578125 0.412353515625 6.2332763671875 0.4427490234375 Q 6.23291015625 0.47314453125 6.23291015625 0.49658203125 Q 6.23291015625 0.545654296875 6.233642578125 0.615234375 Q 6.234375 0.684814453125 6.2354736328125 0.758056640625 Q 6.236572265625 0.831298828125 6.23876953125 0.898681640625 Q 6.240966796875 0.966064453125 6.243896484375 1.0107421875 Q 6.254150390625 1.01220703125 6.2713623046875 1.0140380859375 Q 6.28857421875 1.015869140625 6.3076171875 1.0169677734375 Q 6.32666015625 1.01806640625 6.344970703125 1.018798828125 Q 6.36328125 1.01953125 6.375732421875 1.01953125 Q 6.427001953125 1.01953125 6.4808349609375 1.0125732421875 Q 6.53466796875 1.005615234375 6.5848388671875 0.986572265625 Q 6.635009765625 0.967529296875 6.6793212890625 0.9342041015625 Q 6.7236328125 0.90087890625 6.7569580078125 0.84814453125 Q 6.790283203125 0.79541015625 6.809326171875 0.7210693359375 Q 6.828369140625 0.646728515625 6.828369140625 0.545654296875 Q 6.828369140625 0.43359375 6.80126953125 0.3460693359375 Q 6.774169921875 0.258544921875 6.7218017578125 0.198486328125 Q 6.66943359375 0.138427734375 6.5921630859375 0.1072998046875 Q 6.514892578125 0.076171875 6.41455078125 0.076171875 Q 6.394775390625 0.076171875 6.369873046875 0.0772705078125 Q 6.344970703125 0.078369140625 6.3204345703125 0.0794677734375 Q 6.2958984375 0.08056640625 6.2742919921875 0.0823974609375 Q 6.252685546875 0.084228515625 6.23876953125 0.0849609375 M 6.078369140625 0.01904296875 Q 6.09521484375 0.019775390625 6.10986328125 0.0205078125 Q 6.122314453125 0.021240234375 6.135498046875 0.0216064453125 Q 6.148681640625 0.02197265625 6.15673828125 0.02197265625 Q 6.170654296875 0.02197265625 6.2032470703125 0.0205078125 Q 6.23583984375 0.01904296875 6.277587890625 0.017578125 Q 6.3193359375 0.01611328125 6.3643798828125 0.0146484375 Q 6.409423828125 0.01318359375 6.448974609375 0.01318359375 Q 6.55517578125 0.01318359375 6.651123046875 0.03955078125 Q 6.7470703125 0.06591796875 6.819580078125 0.1259765625 Q 6.89208984375 0.18603515625 6.9345703125 0.283447265625 Q 6.97705078125 0.380859375 6.97705078125 0.52294921875 Q 6.97705078125 0.624755859375 6.9547119140625 0.7060546875 Q 6.932373046875 0.787353515625 6.89208984375 0.849609375 Q 6.851806640625 0.911865234375 6.7957763671875 0.9561767578125 Q 6.73974609375 1.00048828125 6.6719970703125 1.029052734375 Q 6.604248046875 1.0576171875 6.52734375 1.07080078125 Q 6.450439453125 1.083984375 6.368408203125 1.083984375 Q 6.339111328125 1.083984375 6.2977294921875 1.0821533203125 Q 6.25634765625 1.080322265625 6.214599609375 1.078125 Q 6.1728515625 1.075927734375 6.1358642578125 1.0740966796875 Q 6.098876953125 1.072265625 6.078369140625 1.072265625 L 6.078369140625 1.0693359375 Q 6.082763671875 1.053955078125 6.0867919921875 1.03125 Q 6.0908203125 1.008544921875 6.09375 0.974853515625 Q 6.0966796875 0.941162109375 6.09814453125 0.8946533203125 Q 6.099609375 0.84814453125 6.099609375 0.785888671875 L 6.099609375 0.30908203125 Q 6.099609375 0.246826171875 6.09814453125 0.1995849609375 Q 6.0966796875 0.15234375 6.09375 0.1182861328125 Q 6.0908203125 0.084228515625 6.0867919921875 0.060791015625 Q 6.082763671875 0.037353515625 6.078369140625 0.02197265625 L 6.078369140625 0.01904296875 M 7.1630859375 1.0693359375 Q 7.16748046875 1.053955078125 7.171142578125 1.03125 Q 7.1748046875 1.008544921875 7.177734375 0.974853515625 Q 7.1806640625 0.941162109375 7.18212890625 0.8946533203125 Q 7.18359375 0.84814453125 7.18359375 0.785888671875 L 7.18359375 0.30908203125 Q 7.18359375 0.246826171875 7.18212890625 0.2003173828125 Q 7.1806640625 0.15380859375 7.177734375 0.1197509765625 Q 7.1748046875 0.085693359375 7.171142578125 0.06298828125 Q 7.16748046875 0.040283203125 7.1630859375 0.02490234375 L 7.1630859375 0.02197265625 L 7.338134765625 0.02197265625 L 7.338134765625 0.02490234375 Q 7.333740234375 0.040283203125 7.3297119140625 0.06298828125 Q 7.32568359375 0.085693359375 7.3231201171875 0.1197509765625 Q 7.320556640625 0.15380859375 7.3187255859375 0.2003173828125 Q 7.31689453125 0.246826171875 7.31689453125 0.30908203125 L 7.31689453125 0.785888671875 Q 7.31689453125 0.84814453125 7.3187255859375 0.8946533203125 Q 7.320556640625 0.941162109375 7.3231201171875 0.974853515625 Q 7.32568359375 1.008544921875 7.3297119140625 1.03125 Q 7.333740234375 1.053955078125 7.338134765625 1.0693359375 L 7.338134765625 1.072265625 L 7.1630859375 1.072265625 L 7.1630859375 1.0693359375 M 8.48583984375 0.94921875 Q 8.48583984375 0.957275390625 8.4840087890625 0.966064453125 Q 8.482177734375 0.974853515625 8.4755859375 0.980712890625 Q 8.442626953125 1.005615234375 8.4041748046875 1.0264892578125 Q 8.36572265625 1.04736328125 8.321044921875 1.062744140625 Q 8.2763671875 1.078125 8.2247314453125 1.0865478515625 Q 8.173095703125 1.094970703125 8.11376953125 1.094970703125 Q 7.98046875 1.094970703125 7.87060546875 1.0557861328125 Q 7.7607421875 1.0166015625 7.6820068359375 0.94482421875 Q 7.603271484375 0.873046875 7.56005859375 0.7723388671875 Q 7.516845703125 0.671630859375 7.516845703125 0.548583984375 Q 7.516845703125 0.47900390625 7.5347900390625 0.41162109375 Q 7.552734375 0.34423828125 7.587158203125 0.283447265625 Q 7.62158203125 0.22265625 7.672119140625 0.1717529296875 Q 7.72265625 0.120849609375 7.7874755859375 0.08349609375 Q 7.852294921875 0.046142578125 7.9302978515625 0.0252685546875 Q 8.00830078125 0.00439453125 8.09912109375 0.00439453125 Q 8.13427734375 0.00439453125 8.1708984375 0.0076904296875 Q 8.20751953125 0.010986328125 8.243408203125 0.0172119140625 Q 8.279296875 0.0234375 8.3126220703125 0.0322265625 Q 8.345947265625 0.041015625 8.3759765625 0.052001953125 L 8.42578125 0.1875 L 8.419921875 0.1904296875 Q 8.391357421875 0.164794921875 8.35400390625 0.142822265625 Q 8.316650390625 0.120849609375 8.274169921875 0.104736328125 Q 8.231689453125 0.088623046875 8.1851806640625 0.0794677734375 Q 8.138671875 0.0703125 8.091064453125 0.0703125 Q 7.998779296875 0.0703125 7.921875 0.0992431640625 Q 7.844970703125 0.128173828125 7.7896728515625 0.18310546875 Q 7.734375 0.238037109375 7.70361328125 0.31787109375 Q 7.6728515625 0.397705078125 7.6728515625 0.49951171875 Q 7.6728515625 0.611572265625 7.7021484375 0.70751953125 Q 7.7314453125 0.803466796875 7.789306640625 0.873779296875 Q 7.84716796875 0.944091796875 7.9339599609375 0.9840087890625 Q 8.020751953125 1.02392578125 8.136474609375 1.02392578125 Q 8.187744140625 1.02392578125 8.22802734375 1.015869140625 Q 8.268310546875 1.0078125 8.296142578125 0.9957275390625 Q 8.323974609375 0.983642578125 8.3382568359375 0.9693603515625 Q 8.3525390625 0.955078125 8.3525390625 0.943359375 L 8.3525390625 0.914794921875 Q 8.3525390625 0.863525390625 8.35107421875 0.826171875 Q 8.349609375 0.788818359375 8.3466796875 0.7613525390625 Q 8.34375 0.73388671875 8.340087890625 0.714111328125 Q 8.33642578125 0.6943359375 8.331298828125 0.677490234375 L 8.331298828125 0.674560546875 L 8.507080078125 0.674560546875 L 8.507080078125 0.677490234375 Q 8.502685546875 0.69287109375 8.4986572265625 0.7137451171875 Q 8.49462890625 0.734619140625 8.49169921875 0.76318359375 Q 8.48876953125 0.791748046875 8.4873046875 0.8302001953125 Q 8.48583984375 0.86865234375 8.48583984375 0.919189453125 L 8.48583984375 0.94921875 M 8.688720703125 1.0693359375 Q 8.693115234375 1.053955078125 8.69677734375 1.03125 Q 8.700439453125 1.008544921875 8.703369140625 0.974853515625 Q 8.706298828125 0.941162109375 8.707763671875 0.8946533203125 Q 8.709228515625 0.84814453125 8.709228515625 0.785888671875 L 8.709228515625 0.30908203125 Q 8.709228515625 0.246826171875 8.707763671875 0.2003173828125 Q 8.706298828125 0.15380859375 8.703369140625 0.1197509765625 Q 8.700439453125 0.085693359375 8.69677734375 0.06298828125 Q 8.693115234375 0.040283203125 8.688720703125 0.02490234375 L 8.688720703125 0.02197265625 L 8.86376953125 0.02197265625 L 8.86376953125 0.02490234375 Q 8.859375 0.040283203125 8.8553466796875 0.06298828125 Q 8.851318359375 0.085693359375 8.8487548828125 0.1197509765625 Q 8.84619140625 0.15380859375 8.8443603515625 0.2003173828125 Q 8.842529296875 0.246826171875 8.842529296875 0.30908203125 L 8.842529296875 0.785888671875 Q 8.842529296875 0.84814453125 8.8443603515625 0.8946533203125 Q 8.84619140625 0.941162109375 8.8487548828125 0.974853515625 Q 8.851318359375 1.008544921875 8.8553466796875 1.03125 Q 8.859375 1.053955078125 8.86376953125 1.0693359375 L 8.86376953125 1.072265625 L 8.688720703125 1.072265625 L 8.688720703125 1.0693359375 M 9.36328125 0.08642578125 Q 9.27685546875 0.08642578125 9.207275390625 0.0941162109375 Q 9.1376953125 0.101806640625 9.087158203125 0.110595703125 Q 9.028564453125 0.12158203125 8.982421875 0.134765625 L 9.003662109375 0.01611328125 Q 9.012451171875 0.016845703125 9.030029296875 0.017578125 Q 9.047607421875 0.018310546875 9.0692138671875 0.01904296875 Q 9.0908203125 0.019775390625 9.1146240234375 0.0201416015625 Q 9.138427734375 0.0205078125 9.15966796875 0.0208740234375 Q 9.180908203125 0.021240234375 9.1973876953125 0.0216064453125 Q 9.2138671875 0.02197265625 9.22119140625 0.02197265625 L 9.639404296875 0.02197265625 Q 9.646728515625 0.02197265625 9.6632080078125 0.0216064453125 Q 9.6796875 0.021240234375 9.700927734375 0.0208740234375 Q 9.72216796875 0.0205078125 9.7459716796875 0.0201416015625 Q 9.769775390625 0.019775390625 9.7913818359375 0.01904296875 Q 9.81298828125 0.018310546875 9.83056640625 0.017578125 Q 9.84814453125 0.016845703125 9.85693359375 0.01611328125 L 9.878173828125 0.134765625 Q 9.831298828125 0.12158203125 9.772705078125 0.110595703125 Q 9.72216796875 0.101806640625 9.652587890625 0.0941162109375 Q 9.5830078125 0.08642578125 9.49658203125 0.08642578125 L 9.49658203125 0.785888671875 Q 9.49658203125 0.84814453125 9.4984130859375 0.8946533203125 Q 9.500244140625 0.941162109375 9.5028076171875 0.974853515625 Q 9.50537109375 1.008544921875 9.5093994140625 1.03125 Q 9.513427734375 1.053955078125 9.517822265625 1.0693359375 L 9.517822265625 1.072265625 L 9.3427734375 1.072265625 L 9.3427734375 1.0693359375 Q 9.34716796875 1.053955078125 9.350830078125 1.03125 Q 9.3544921875 1.008544921875 9.357421875 0.974853515625 Q 9.3603515625 0.941162109375 9.36181640625 0.8946533203125 Q 9.36328125 0.84814453125 9.36328125 0.785888671875 L 9.36328125 0.08642578125 M 10.64208984375 1.072265625 L 10.64208984375 1.0693359375 Q 10.6435546875 1.065673828125 10.644287109375 1.058349609375 Q 10.64501953125 1.051025390625 10.64501953125 1.045166015625 Q 10.64501953125 1.0224609375 10.6387939453125 0.9949951171875 Q 10.632568359375 0.967529296875 10.614990234375 0.926513671875 L 10.5263671875 0.727294921875 Q 10.4853515625 0.725830078125 10.417236328125 0.725830078125 Q 10.34912109375 0.725830078125 10.27001953125 0.725830078125 Q 10.212158203125 0.725830078125 10.1583251953125 0.725830078125 Q 10.1044921875 0.725830078125 10.061279296875 0.727294921875 L 9.97705078125 0.920654296875 Q 9.966064453125 0.94775390625 9.95361328125 0.97998046875 Q 9.941162109375 1.01220703125 9.941162109375 1.045166015625 Q 9.941162109375 1.0546875 9.942626953125 1.0609130859375 Q 9.944091796875 1.067138671875 9.945556640625 1.0693359375 L 9.945556640625 1.072265625 L 9.796142578125 1.072265625 L 9.796142578125 1.0693359375 Q 9.809326171875 1.055419921875 9.8291015625 1.0198974609375 Q 9.848876953125 0.984375 9.872314453125 0.930908203125 L 10.2919921875 0 L 10.3505859375 0 L 10.748291015625 0.89501953125 Q 10.76220703125 0.926513671875 10.7772216796875 0.9561767578125 Q 10.792236328125 0.98583984375 10.805419921875 1.00927734375 Q 10.818603515625 1.03271484375 10.828857421875 1.048828125 Q 10.839111328125 1.06494140625 10.8427734375 1.0693359375 L 10.8427734375 1.072265625 L 10.64208984375 1.072265625 M 10.16748046875 0.662841796875 Q 10.2099609375 0.662841796875 10.254638671875 0.6624755859375 Q 10.29931640625 0.662109375 10.3421630859375 0.6617431640625 Q 10.385009765625 0.661376953125 10.424560546875 0.6610107421875 Q 10.464111328125 0.66064453125 10.496337890625 0.659912109375 L 10.29052734375 0.19482421875 L 10.08837890625 0.662841796875 L 10.16748046875 0.662841796875 M 11.0947265625 1.0078125 Q 11.18115234375 1.0078125 11.253662109375 1.00048828125 Q 11.326171875 0.9931640625 11.38037109375 0.983642578125 Q 11.443359375 0.973388671875 11.495361328125 0.95947265625 L 11.47412109375 1.078125 Q 11.46533203125 1.077392578125 11.44775390625 1.07666015625 Q 11.43017578125 1.075927734375 11.4085693359375 1.0751953125 Q 11.386962890625 1.074462890625 11.3631591796875 1.0740966796875 Q 11.33935546875 1.07373046875 11.318115234375 1.0733642578125 Q 11.296875 1.072998046875 11.2803955078125 1.0726318359375 Q 11.263916015625 1.072265625 11.256591796875 1.072265625 L 10.940185546875 1.072265625 L 10.940185546875 1.0693359375 Q 10.944580078125 1.053955078125 10.9486083984375 1.03125 Q 10.95263671875 1.008544921875 10.95556640625 0.974853515625 Q 10.95849609375 0.941162109375 10.9599609375 0.8946533203125 Q 10.96142578125 0.84814453125 10.96142578125 0.785888671875 L 10.96142578125 0.30908203125 Q 10.96142578125 0.246826171875 10.9599609375 0.2003173828125 Q 10.95849609375 0.15380859375 10.95556640625 0.1197509765625 Q 10.95263671875 0.085693359375 10.9486083984375 0.06298828125 Q 10.944580078125 0.040283203125 10.940185546875 0.02490234375 L 10.940185546875 0.02197265625 L 11.115966796875 0.02197265625 L 11.115966796875 0.02490234375 Q 11.111572265625 0.040283203125 11.1075439453125 0.06298828125 Q 11.103515625 0.085693359375 11.1009521484375 0.1197509765625 Q 11.098388671875 0.15380859375 11.0965576171875 0.2003173828125 Q 11.0947265625 0.246826171875 11.0947265625 0.30908203125 L 11.0947265625 1.0078125 M 0.052734375 2.464306640625 Q 0.060791015625 2.452587890625 0.071044921875 2.4295166015625 Q 0.081298828125 2.4064453125 0.087158203125 2.3712890625 Q 0.09521484375 2.32001953125 0.1051025390625 2.2559326171875 Q 0.114990234375 2.191845703125 0.1256103515625 2.121533203125 Q 0.13623046875 2.051220703125 0.1468505859375 1.9776123046874998 Q 0.157470703125 1.9040039062499998 0.1673583984375 1.8325927734374998 Q 0.17724609375 1.7611816406249998 0.1864013671875 1.6948974609374998 Q 0.195556640625 1.6286132812499998 0.202880859375 1.5736816406249998 Q 0.210205078125 1.5187499999999998 0.2149658203125 1.4781005859374998 Q 0.2197265625 1.4374511718749998 0.221923828125 1.4169433593749998 L 0.31494140625 1.4169433593749998 L 0.775634765625 2.278271484375 L 1.232666015625 1.4169433593749998 L 1.30224609375 1.4169433593749998 L 1.42236328125 2.287060546875 Q 1.427490234375 2.328076171875 1.433349609375 2.357373046875 Q 1.439208984375 2.386669921875 1.445068359375 2.4075439453125 Q 1.450927734375 2.42841796875 1.4564208984375 2.4419677734375 Q 1.4619140625 2.455517578125 1.467041015625 2.464306640625 L 1.467041015625 2.467236328125 L 1.282470703125 2.467236328125 L 1.282470703125 2.464306640625 Q 1.2861328125 2.45625 1.2894287109375 2.437939453125 Q 1.292724609375 2.41962890625 1.292724609375 2.393994140625 Q 1.292724609375 2.38447265625 1.2919921875 2.3745849609375 Q 1.291259765625 2.364697265625 1.289794921875 2.352978515625 L 1.19677734375 1.6513183593749998 L 0.7646484375 2.464306640625 L 0.714111328125 2.458447265625 L 0.279052734375 1.6439941406249998 Q 0.25341796875 1.8175781249999998 0.234375 1.9647949218749998 Q 0.226318359375 2.027783203125 0.21826171875 2.0904052734375 Q 0.210205078125 2.15302734375 0.2039794921875 2.2072265625 Q 0.19775390625 2.26142578125 0.194091796875 2.3028076171875 Q 0.1904296875 2.344189453125 0.1904296875 2.36396484375 Q 0.1904296875 2.3888671875 0.19189453125 2.40791015625 Q 0.193359375 2.426953125 0.19482421875 2.44013671875 Q 0.197021484375 2.455517578125 0.19921875 2.467236328125 L 0.052734375 2.467236328125 L 0.052734375 2.464306640625 M 2.36572265625 2.467236328125 L 2.36572265625 2.464306640625 Q 2.3671875 2.46064453125 2.367919921875 2.4533203125 Q 2.36865234375 2.44599609375 2.36865234375 2.44013671875 Q 2.36865234375 2.417431640625 2.3624267578125 2.3899658203125 Q 2.356201171875 2.3625 2.338623046875 2.321484375 L 2.25 2.122265625 Q 2.208984375 2.12080078125 2.140869140625 2.12080078125 Q 2.07275390625 2.12080078125 1.99365234375 2.12080078125 Q 1.935791015625 2.12080078125 1.8819580078125 2.12080078125 Q 1.828125 2.12080078125 1.784912109375 2.122265625 L 1.70068359375 2.315625 Q 1.689697265625 2.342724609375 1.67724609375 2.374951171875 Q 1.664794921875 2.407177734375 1.664794921875 2.44013671875 Q 1.664794921875 2.449658203125 1.666259765625 2.4558837890625 Q 1.667724609375 2.462109375 1.669189453125 2.464306640625 L 1.669189453125 2.467236328125 L 1.519775390625 2.467236328125 L 1.519775390625 2.464306640625 Q 1.532958984375 2.450390625 1.552734375 2.4148681640625 Q 1.572509765625 2.379345703125 1.595947265625 2.32587890625 L 2.015625 1.3949707031249998 L 2.07421875 1.3949707031249998 L 2.471923828125 2.289990234375 Q 2.48583984375 2.321484375 2.5008544921875 2.3511474609375 Q 2.515869140625 2.380810546875 2.529052734375 2.404248046875 Q 2.542236328125 2.427685546875 2.552490234375 2.443798828125 Q 2.562744140625 2.459912109375 2.56640625 2.464306640625 L 2.56640625 2.467236328125 L 2.36572265625 2.467236328125 M 1.89111328125 2.0578125 Q 1.93359375 2.0578125 1.978271484375 2.0574462890625 Q 2.02294921875 2.057080078125 2.0657958984375 2.0567138671875 Q 2.108642578125 2.05634765625 2.148193359375 2.0559814453125 Q 2.187744140625 2.055615234375 2.219970703125 2.0548828125 L 2.01416015625 1.5897949218749998 L 1.81201171875 2.0578125 L 1.89111328125 2.0578125 M 2.818359375 2.180859375 Q 2.818359375 2.243115234375 2.8201904296875 2.2896240234375 Q 2.822021484375 2.3361328125 2.8245849609375 2.36982421875 Q 2.8271484375 2.403515625 2.8311767578125 2.426220703125 Q 2.835205078125 2.44892578125 2.839599609375 2.464306640625 L 2.839599609375 2.467236328125 L 2.663818359375 2.467236328125 L 2.663818359375 2.464306640625 Q 2.668212890625 2.44892578125 2.6722412109375 2.426220703125 Q 2.67626953125 2.403515625 2.6788330078125 2.36982421875 Q 2.681396484375 2.3361328125 2.6832275390625 2.289990234375 Q 2.68505859375 2.24384765625 2.68505859375 2.180859375 L 2.68505859375 1.7040527343749998 Q 2.68505859375 1.6417968749999998 2.6832275390625 1.5952880859374998 Q 2.681396484375 1.5487792968749998 2.6788330078125 1.5150878906249998 Q 2.67626953125 1.4813964843749998 2.6722412109375 1.4583251953124998 Q 2.668212890625 1.4352539062499998 2.663818359375 1.4198730468749998 L 2.663818359375 1.4169433593749998 L 2.694580078125 1.4198730468749998 Q 2.70849609375 1.4213378906249998 2.7257080078125 1.4217041015624998 Q 2.742919921875 1.4220703124999998 2.76123046875 1.4220703124999998 Q 2.789794921875 1.4220703124999998 2.8385009765625 1.4151123046874998 Q 2.88720703125 1.4081542968749998 2.962646484375 1.4081542968749998 Q 3.032958984375 1.4081542968749998 3.0926513671875 1.4271972656249998 Q 3.15234375 1.4462402343749998 3.1962890625 1.4828613281249998 Q 3.240234375 1.5194824218749998 3.2647705078125 1.5725830078124998 Q 3.289306640625 1.6256835937499998 3.289306640625 1.6930664062499998 Q 3.289306640625 1.7458007812499998 3.2757568359375 1.7908447265624998 Q 3.26220703125 1.8358886718749998 3.2376708984375 1.8725097656249998 Q 3.213134765625 1.9091308593749998 3.1787109375 1.9373291015624998 Q 3.144287109375 1.9655273437499998 3.101806640625 1.9845703124999998 L 3.35888671875 2.345654296875 Q 3.3779296875 2.37275390625 3.3944091796875 2.392529296875 Q 3.410888671875 2.4123046875 3.4259033203125 2.4265869140625 Q 3.44091796875 2.440869140625 3.454833984375 2.4500244140625 Q 3.46875 2.4591796875 3.4833984375 2.464306640625 L 3.4833984375 2.467236328125 L 3.271728515625 2.467236328125 Q 3.26953125 2.4533203125 3.2574462890625 2.4302490234375 Q 3.245361328125 2.407177734375 3.229248046875 2.38447265625 L 2.969970703125 2.018994140625 Q 2.953125 2.020458984375 2.936279296875 2.0215576171875 Q 2.91943359375 2.02265625 2.90185546875 2.02265625 Q 2.88134765625 2.02265625 2.8604736328125 2.02119140625 Q 2.839599609375 2.0197265625 2.818359375 2.016064453125 L 2.818359375 2.180859375 M 2.818359375 1.9589355468749998 Q 2.838134765625 1.9633300781249998 2.858642578125 1.9651611328124998 Q 2.879150390625 1.9669921874999998 2.898193359375 1.9669921874999998 Q 2.953125 1.9669921874999998 2.99853515625 1.9505126953124998 Q 3.0439453125 1.9340332031249998 3.0758056640625 1.9003417968749998 Q 3.107666015625 1.8666503906249998 3.125244140625 1.8164794921874998 Q 3.142822265625 1.7663085937499998 3.142822265625 1.6989257812499998 Q 3.142822265625 1.6439941406249998 3.13037109375 1.5993164062499998 Q 3.117919921875 1.5546386718749998 3.0933837890625 1.5235107421874998 Q 3.06884765625 1.4923828124999998 3.031494140625 1.4751708984374998 Q 2.994140625 1.4579589843749998 2.9443359375 1.4579589843749998 Q 2.893798828125 1.4579589843749998 2.86376953125 1.4630859374999998 Q 2.833740234375 1.4682128906249998 2.818359375 1.4740722656249998 L 2.818359375 1.9589355468749998 M 3.557373046875 2.464306640625 Q 3.561767578125 2.44892578125 3.5657958984375 2.426220703125 Q 3.56982421875 2.403515625 3.57275390625 2.36982421875 Q 3.57568359375 2.3361328125 3.5771484375 2.2896240234375 Q 3.57861328125 2.243115234375 3.57861328125 2.180859375 L 3.57861328125 1.7040527343749998 Q 3.57861328125 1.6417968749999998 3.5771484375 1.5952880859374998 Q 3.57568359375 1.5487792968749998 3.57275390625 1.5147216796874998 Q 3.56982421875 1.4806640624999998 3.5657958984375 1.4579589843749998 Q 3.561767578125 1.4352539062499998 3.557373046875 1.4198730468749998 L 3.557373046875 1.4169433593749998 L 3.733154296875 1.4169433593749998 L 3.733154296875 1.4198730468749998 Q 3.728759765625 1.4352539062499998 3.7247314453125 1.4579589843749998 Q 3.720703125 1.4806640624999998 3.7181396484375 1.5147216796874998 Q 3.715576171875 1.5487792968749998 3.7137451171875 1.5952880859374998 Q 3.7119140625 1.6417968749999998 3.7119140625 1.7040527343749998 L 3.7119140625 1.8673828124999998 L 4.1396484375 1.5180175781249998 Q 4.21142578125 1.4594238281249998 4.21142578125 1.4169433593749998 L 4.417236328125 1.4169433593749998 L 4.417236328125 1.4198730468749998 Q 4.3740234375 1.4301269531249998 4.3297119140625 1.4590576171874998 Q 4.285400390625 1.4879882812499998 4.235595703125 1.5297363281249998 L 3.857666015625 1.8461425781249998 L 4.3125 2.345654296875 Q 4.341064453125 2.374951171875 4.3612060546875 2.3943603515625 Q 4.38134765625 2.41376953125 4.396728515625 2.4265869140625 Q 4.412109375 2.439404296875 4.4249267578125 2.4478271484375 Q 4.437744140625 2.45625 4.45166015625 2.464306640625 L 4.45166015625 2.467236328125 L 4.237060546875 2.467236328125 Q 4.234130859375 2.46064453125 4.2271728515625 2.450390625 Q 4.22021484375 2.44013671875 4.2110595703125 2.429150390625 Q 4.201904296875 2.4181640625 4.1912841796875 2.4064453125 Q 4.1806640625 2.3947265625 4.171142578125 2.38447265625 L 3.7119140625 1.8805664062499998 L 3.7119140625 2.180859375 Q 3.7119140625 2.243115234375 3.7137451171875 2.2896240234375 Q 3.715576171875 2.3361328125 3.7181396484375 2.36982421875 Q 3.720703125 2.403515625 3.7247314453125 2.426220703125 Q 3.728759765625 2.44892578125 3.733154296875 2.464306640625 L 3.733154296875 2.467236328125 L 3.557373046875 2.467236328125 L 3.557373046875 2.464306640625 M 4.53369140625 1.4169433593749998 Q 4.625244140625 1.4169433593749998 4.7156982421875 1.4162109374999998 Q 4.80615234375 1.4154785156249998 4.881591796875 1.4143798828124998 Q 4.95703125 1.4132812499999998 5.010498046875 1.4110839843749998 Q 5.06396484375 1.4088867187499998 5.0830078125 1.4052246093749998 L 5.047119140625 1.5026367187499998 Q 5.02294921875 1.4960449218749998 4.99072265625 1.4909179687499998 Q 4.962890625 1.4865234374999998 4.9229736328125 1.4824951171874998 Q 4.883056640625 1.4784667968749998 4.8310546875 1.4784667968749998 Q 4.8134765625 1.4784667968749998 4.7889404296875 1.4795654296874998 Q 4.764404296875 1.4806640624999998 4.74169921875 1.4821289062499998 Q 4.71533203125 1.4835937499999998 4.688232421875 1.4850585937499998 L 4.688232421875 1.8849609374999998 Q 4.763671875 1.8842285156249998 4.824462890625 1.8805664062499998 Q 4.88525390625 1.8769042968749998 4.927734375 1.8732421874999998 Q 4.9775390625 1.8688476562499998 5.015625 1.8629882812499998 L 4.992919921875 1.9691894531249998 Q 4.9423828125 1.9625976562499998 4.8896484375 1.9567382812499998 Q 4.84423828125 1.9516113281249998 4.790771484375 1.9475830078124998 Q 4.7373046875 1.9435546874999998 4.688232421875 1.9435546874999998 L 4.688232421875 2.402783203125 Q 4.774658203125 2.402783203125 4.84716796875 2.395458984375 Q 4.919677734375 2.388134765625 4.973876953125 2.37861328125 Q 5.036865234375 2.368359375 5.0888671875 2.354443359375 L 5.067626953125 2.473095703125 Q 5.058837890625 2.47236328125 5.041259765625 2.471630859375 Q 5.023681640625 2.4708984375 5.0020751953125 2.470166015625 Q 4.98046875 2.46943359375 4.9566650390625 2.4690673828125 Q 4.932861328125 2.468701171875 4.91162109375 2.4683349609375 Q 4.890380859375 2.46796875 4.8739013671875 2.4676025390625 Q 4.857421875 2.467236328125 4.85009765625 2.467236328125 L 4.53369140625 2.467236328125 L 4.53369140625 2.464306640625 Q 4.5380859375 2.44892578125 4.5421142578125 2.426220703125 Q 4.546142578125 2.403515625 4.549072265625 2.36982421875 Q 4.552001953125 2.3361328125 4.553466796875 2.2896240234375 Q 4.554931640625 2.243115234375 4.554931640625 2.180859375 L 4.554931640625 1.7040527343749998 Q 4.554931640625 1.6417968749999998 4.553466796875 1.5952880859374998 Q 4.552001953125 1.5487792968749998 4.549072265625 1.5147216796874998 Q 4.546142578125 1.4806640624999998 4.5421142578125 1.4579589843749998 Q 4.5380859375 1.4352539062499998 4.53369140625 1.4198730468749998 L 4.53369140625 1.4169433593749998 L 4.53369140625 1.4169433593749998 M 5.552490234375 1.4813964843749998 Q 5.466064453125 1.4813964843749998 5.396484375 1.4890869140624998 Q 5.326904296875 1.4967773437499998 5.2763671875 1.5055664062499998 Q 5.2177734375 1.5165527343749998 5.171630859375 1.5297363281249998 L 5.19287109375 1.4110839843749998 Q 5.20166015625 1.4118164062499998 5.21923828125 1.4125488281249998 Q 5.23681640625 1.4132812499999998 5.2584228515625 1.4140136718749998 Q 5.280029296875 1.4147460937499998 5.3038330078125 1.4151123046874998 Q 5.32763671875 1.4154785156249998 5.348876953125 1.4158447265624998 Q 5.3701171875 1.4162109374999998 5.3865966796875 1.4165771484374998 Q 5.403076171875 1.4169433593749998 5.410400390625 1.4169433593749998 L 5.82861328125 1.4169433593749998 Q 5.8359375 1.4169433593749998 5.8524169921875 1.4165771484374998 Q 5.868896484375 1.4162109374999998 5.89013671875 1.4158447265624998 Q 5.911376953125 1.4154785156249998 5.9351806640625 1.4151123046874998 Q 5.958984375 1.4147460937499998 5.9805908203125 1.4140136718749998 Q 6.002197265625 1.4132812499999998 6.019775390625 1.4125488281249998 Q 6.037353515625 1.4118164062499998 6.046142578125 1.4110839843749998 L 6.0673828125 1.5297363281249998 Q 6.0205078125 1.5165527343749998 5.9619140625 1.5055664062499998 Q 5.911376953125 1.4967773437499998 5.841796875 1.4890869140624998 Q 5.772216796875 1.4813964843749998 5.685791015625 1.4813964843749998 L 5.685791015625 2.180859375 Q 5.685791015625 2.243115234375 5.6876220703125 2.2896240234375 Q 5.689453125 2.3361328125 5.6920166015625 2.36982421875 Q 5.694580078125 2.403515625 5.6986083984375 2.426220703125 Q 5.70263671875 2.44892578125 5.70703125 2.464306640625 L 5.70703125 2.467236328125 L 5.531982421875 2.467236328125 L 5.531982421875 2.464306640625 Q 5.536376953125 2.44892578125 5.5400390625 2.426220703125 Q 5.543701171875 2.403515625 5.546630859375 2.36982421875 Q 5.549560546875 2.3361328125 5.551025390625 2.2896240234375 Q 5.552490234375 2.243115234375 5.552490234375 2.180859375 L 5.552490234375 1.4813964843749998 M 6.18603515625 2.464306640625 Q 6.1904296875 2.44892578125 6.194091796875 2.426220703125 Q 6.19775390625 2.403515625 6.20068359375 2.36982421875 Q 6.20361328125 2.3361328125 6.205078125 2.2896240234375 Q 6.20654296875 2.243115234375 6.20654296875 2.180859375 L 6.20654296875 1.7040527343749998 Q 6.20654296875 1.6417968749999998 6.205078125 1.5952880859374998 Q 6.20361328125 1.5487792968749998 6.20068359375 1.5147216796874998 Q 6.19775390625 1.4806640624999998 6.194091796875 1.4579589843749998 Q 6.1904296875 1.4352539062499998 6.18603515625 1.4198730468749998 L 6.18603515625 1.4169433593749998 L 6.361083984375 1.4169433593749998 L 6.361083984375 1.4198730468749998 Q 6.356689453125 1.4352539062499998 6.3526611328125 1.4579589843749998 Q 6.3486328125 1.4806640624999998 6.3460693359375 1.5147216796874998 Q 6.343505859375 1.5487792968749998 6.3416748046875 1.5952880859374998 Q 6.33984375 1.6417968749999998 6.33984375 1.7040527343749998 L 6.33984375 2.180859375 Q 6.33984375 2.243115234375 6.3416748046875 2.2896240234375 Q 6.343505859375 2.3361328125 6.3460693359375 2.36982421875 Q 6.3486328125 2.403515625 6.3526611328125 2.426220703125 Q 6.356689453125 2.44892578125 6.361083984375 2.464306640625 L 6.361083984375 2.467236328125 L 6.18603515625 2.467236328125 L 6.18603515625 2.464306640625 M 6.62548828125 1.4169433593749998 L 7.3798828125 2.219677734375 L 7.3798828125 1.7040527343749998 Q 7.3798828125 1.6417968749999998 7.37841796875 1.5952880859374998 Q 7.376953125 1.5487792968749998 7.3740234375 1.5147216796874998 Q 7.37109375 1.4806640624999998 7.3670654296875 1.4579589843749998 Q 7.363037109375 1.4352539062499998 7.358642578125 1.4198730468749998 L 7.358642578125 1.4169433593749998 L 7.489013671875 1.4169433593749998 L 7.489013671875 1.4198730468749998 Q 7.484619140625 1.4352539062499998 7.48095703125 1.4579589843749998 Q 7.477294921875 1.4806640624999998 7.474365234375 1.5147216796874998 Q 7.471435546875 1.5487792968749998 7.469970703125 1.5952880859374998 Q 7.468505859375 1.6417968749999998 7.468505859375 1.7040527343749998 L 7.468505859375 2.481884765625 L 7.44287109375 2.481884765625 L 6.6884765625 1.6798828124999998 L 6.6884765625 2.180859375 Q 6.6884765625 2.243115234375 6.68994140625 2.2896240234375 Q 6.69140625 2.3361328125 6.6943359375 2.36982421875 Q 6.697265625 2.403515625 6.700927734375 2.426220703125 Q 6.70458984375 2.44892578125 6.708984375 2.464306640625 L 6.708984375 2.467236328125 L 6.57861328125 2.467236328125 L 6.57861328125 2.464306640625 Q 6.5830078125 2.44892578125 6.5870361328125 2.426220703125 Q 6.591064453125 2.403515625 6.593994140625 2.36982421875 Q 6.596923828125 2.3361328125 6.598388671875 2.2896240234375 Q 6.599853515625 2.243115234375 6.599853515625 2.180859375 L 6.599853515625 1.7040527343749998 Q 6.599853515625 1.6417968749999998 6.598388671875 1.5952880859374998 Q 6.596923828125 1.5487792968749998 6.593994140625 1.5147216796874998 Q 6.591064453125 1.4806640624999998 6.5870361328125 1.4579589843749998 Q 6.5830078125 1.4352539062499998 6.57861328125 1.4198730468749998 L 6.57861328125 1.4169433593749998 L 6.62548828125 1.4169433593749998 M 8.624267578125 2.344189453125 Q 8.624267578125 2.35224609375 8.6224365234375 2.36103515625 Q 8.62060546875 2.36982421875 8.614013671875 2.37568359375 Q 8.5810546875 2.4005859375 8.5426025390625 2.4214599609375 Q 8.504150390625 2.442333984375 8.45947265625 2.45771484375 Q 8.414794921875 2.473095703125 8.3631591796875 2.4815185546875 Q 8.3115234375 2.48994140625 8.252197265625 2.48994140625 Q 8.118896484375 2.48994140625 8.009033203125 2.4507568359375 Q 7.899169921875 2.411572265625 7.8204345703125 2.339794921875 Q 7.74169921875 2.268017578125 7.698486328125 2.1673095703125 Q 7.6552734375 2.0666015625 7.6552734375 1.9435546874999998 Q 7.6552734375 1.8739746093749998 7.6732177734375 1.8065917968749998 Q 7.691162109375 1.7392089843749998 7.7255859375 1.6784179687499998 Q 7.760009765625 1.6176269531249998 7.810546875 1.5667236328124998 Q 7.861083984375 1.5158203124999998 7.9259033203125 1.4784667968749998 Q 7.99072265625 1.4411132812499998 8.0687255859375 1.4202392578124998 Q 8.146728515625 1.3993652343749998 8.237548828125 1.3993652343749998 Q 8.272705078125 1.3993652343749998 8.309326171875 1.4026611328124998 Q 8.345947265625 1.4059570312499998 8.3818359375 1.4121826171874998 Q 8.417724609375 1.4184082031249998 8.4510498046875 1.4271972656249998 Q 8.484375 1.4359863281249998 8.514404296875 1.4469726562499998 L 8.564208984375 1.5824707031249998 L 8.558349609375 1.5854003906249998 Q 8.52978515625 1.5597656249999998 8.492431640625 1.5377929687499998 Q 8.455078125 1.5158203124999998 8.41259765625 1.4997070312499998 Q 8.3701171875 1.4835937499999998 8.3236083984375 1.4744384765624998 Q 8.277099609375 1.4652832031249998 8.2294921875 1.4652832031249998 Q 8.13720703125 1.4652832031249998 8.060302734375 1.4942138671874998 Q 7.9833984375 1.5231445312499998 7.9281005859375 1.5780761718749998 Q 7.872802734375 1.6330078124999998 7.842041015625 1.7128417968749998 Q 7.811279296875 1.7926757812499998 7.811279296875 1.8944824218749998 Q 7.811279296875 2.00654296875 7.840576171875 2.102490234375 Q 7.869873046875 2.1984375 7.927734375 2.26875 Q 7.985595703125 2.3390625 8.0723876953125 2.3789794921875 Q 8.1591796875 2.418896484375 8.27490234375 2.418896484375 Q 8.326171875 2.418896484375 8.366455078125 2.41083984375 Q 8.40673828125 2.402783203125 8.4345703125 2.3906982421875 Q 8.46240234375 2.37861328125 8.4766845703125 2.3643310546875 Q 8.490966796875 2.350048828125 8.490966796875 2.338330078125 L 8.490966796875 2.309765625 Q 8.490966796875 2.25849609375 8.489501953125 2.221142578125 Q 8.488037109375 2.1837890625 8.485107421875 2.1563232421875 Q 8.482177734375 2.128857421875 8.478515625 2.10908203125 Q 8.474853515625 2.089306640625 8.4697265625 2.0724609375 L 8.4697265625 2.06953125 L 8.6455078125 2.06953125 L 8.6455078125 2.0724609375 Q 8.64111328125 2.087841796875 8.6370849609375 2.1087158203125 Q 8.633056640625 2.12958984375 8.630126953125 2.158154296875 Q 8.627197265625 2.18671875 8.625732421875 2.2251708984375 Q 8.624267578125 2.263623046875 8.624267578125 2.31416015625 L 8.624267578125 2.344189453125" fill="#ffffff" fill-rule="nonzero"></path></g><g><path d=" M 0.473125 3.07832666015625 L 0.349375 3.07832666015625 L 0.349375 3.1039516601562496 L 0.419375 3.1039516601562496 L 0.419375 3.2170766601562497 Q 0.39125 3.2352016601562497 0.361875 3.2439516601562497 Q 0.3325 3.2527016601562497 0.295 3.2527016601562497 Q 0.245625 3.2527016601562497 0.20875 3.2377016601562496 Q 0.171875 3.2227016601562495 0.1475 3.1961391601562497 Q 0.123125 3.16957666015625 0.11093750000000001 3.13301416015625 Q 0.09875 3.0964516601562497 0.09875 3.0527016601562496 Q 0.09875 3.0095766601562497 0.11031250000000001 2.97332666015625 Q 0.121875 2.9370766601562495 0.145 2.91082666015625 Q 0.168125 2.8845766601562497 0.2015625 2.8702016601562494 Q 0.23500000000000001 2.8558266601562496 0.279375 2.8558266601562496 Q 0.30875 2.8558266601562496 0.33437500000000003 2.8620766601562497 Q 0.36 2.8683266601562494 0.38 2.8783266601562496 Q 0.4 2.88832666015625 0.4128125 2.9011391601562497 Q 0.42562500000000003 2.9139516601562496 0.429375 2.9270766601562497 L 0.474375 2.9270766601562497 Q 0.46875 2.9133266601562497 0.4553125 2.89613916015625 Q 0.441875 2.8789516601562495 0.41875 2.86395166015625 Q 0.395625 2.8489516601562497 0.3615625 2.8386391601562497 Q 0.3275 2.82832666015625 0.28125 2.82832666015625 Q 0.228125 2.82832666015625 0.1834375 2.8433266601562495 Q 0.13875 2.8583266601562496 0.10625 2.8864516601562498 Q 0.07375 2.9145766601562495 0.055625 2.9555141601562496 Q 0.0375 2.9964516601562496 0.0375 3.0483266601562495 Q 0.0375 3.0927016601562496 0.051562500000000004 3.1342641601562495 Q 0.065625 3.1758266601562495 0.09468750000000001 3.20863916015625 Q 0.12375 3.2414516601562497 0.16875 3.2611391601562496 Q 0.21375 3.2808266601562495 0.27625 3.2808266601562495 Q 0.323125 3.2808266601562495 0.359375 3.2705141601562495 Q 0.395625 3.2602016601562496 0.419375 3.24770166015625 L 0.419375 3.2733266601562496 L 0.473125 3.2733266601562496 L 0.473125 3.07832666015625 M 0.5668853759765625 2.9608266601562496 L 0.5668853759765625 3.2733266601562496 L 0.6200103759765625 3.2733266601562496 L 0.6200103759765625 3.0845766601562494 Q 0.6200103759765625 3.0589516601562496 0.6259478759765624 3.0411391601562494 Q 0.6318853759765625 3.0233266601562496 0.6412603759765625 3.0120766601562496 Q 0.6506353759765625 3.0008266601562497 0.6618853759765625 2.9958266601562498 Q 0.6731353759765625 2.9908266601562494 0.6837603759765625 2.9908266601562494 Q 0.6981353759765625 2.9908266601562494 0.7103228759765625 3.00020166015625 Q 0.7225103759765625 3.0095766601562497 0.7281353759765625 3.0177016601562494 L 0.7493853759765625 2.9789516601562496 Q 0.7437603759765625 2.9714516601562497 0.7359478759765625 2.96645166015625 Q 0.7281353759765625 2.9614516601562495 0.7203228759765625 2.95863916015625 Q 0.7125103759765625 2.9558266601562497 0.7059478759765625 2.9548891601562497 Q 0.6993853759765625 2.9539516601562497 0.6962603759765624 2.9539516601562497 Q 0.6700103759765625 2.9539516601562497 0.6525103759765625 2.9683266601562495 Q 0.6350103759765625 2.9827016601562497 0.6237603759765624 3.0108266601562494 L 0.6200103759765625 3.0108266601562494 L 0.6200103759765625 2.9608266601562496 L 0.5668853759765625 2.9608266601562496 M 1.1168972778320312 3.1177016601562495 Q 1.1168972778320312 3.1502016601562497 1.1056472778320312 3.17988916015625 Q 1.0943972778320312 3.2095766601562494 1.0734597778320312 3.23207666015625 Q 1.0525222778320313 3.25457666015625 1.0228347778320312 3.2677016601562494 Q 0.9931472778320312 3.2808266601562495 0.9562722778320312 3.2808266601562495 Q 0.9187722778320312 3.2808266601562495 0.8884597778320312 3.2673891601562497 Q 0.8581472778320312 3.2539516601562495 0.8372097778320312 3.2314516601562495 Q 0.8162722778320312 3.2089516601562496 0.8047097778320312 3.1792641601562495 Q 0.7931472778320312 3.14957666015625 0.7931472778320312 3.1177016601562495 Q 0.7931472778320312 3.0852016601562497 0.8047097778320312 3.0555141601562497 Q 0.8162722778320312 3.0258266601562496 0.8372097778320312 3.0033266601562496 Q 0.8581472778320312 2.9808266601562496 0.8884597778320312 2.9673891601562494 Q 0.9187722778320312 2.9539516601562497 0.9562722778320312 2.9539516601562497 Q 0.9931472778320312 2.9539516601562497 1.0228347778320312 2.9673891601562494 Q 1.0525222778320313 2.9808266601562496 1.0734597778320312 3.0033266601562496 Q 1.0943972778320312 3.0258266601562496 1.1056472778320312 3.0555141601562497 Q 1.1168972778320312 3.0852016601562497 1.1168972778320312 3.1177016601562495 M 1.0575222778320312 3.1177016601562495 Q 1.0575222778320312 3.0739516601562498 1.0481472778320313 3.0467641601562496 Q 1.0387722778320312 3.0195766601562495 1.0237722778320313 3.00457666015625 Q 1.0087722778320312 2.9895766601562497 0.9906472778320312 2.9842641601562496 Q 0.9725222778320313 2.9789516601562496 0.9556472778320312 2.9789516601562496 Q 0.9387722778320312 2.9789516601562496 0.9206472778320312 2.9842641601562496 Q 0.9025222778320312 2.9895766601562497 0.8872097778320311 3.00457666015625 Q 0.8718972778320312 3.0195766601562495 0.8622097778320312 3.0467641601562496 Q 0.8525222778320312 3.0739516601562498 0.8525222778320312 3.1177016601562495 Q 0.8525222778320312 3.16082666015625 0.8622097778320312 3.1880141601562495 Q 0.8718972778320312 3.2152016601562496 0.8872097778320311 3.2302016601562498 Q 0.9025222778320312 3.2452016601562494 0.9206472778320312 3.2505141601562495 Q 0.9387722778320312 3.2558266601562496 0.9556472778320312 3.2558266601562496 Q 0.9725222778320313 3.2558266601562496 0.9906472778320312 3.2505141601562495 Q 1.0087722778320312 3.2452016601562494 1.0237722778320313 3.2302016601562498 Q 1.0387722778320312 3.2152016601562496 1.0481472778320313 3.1880141601562495 Q 1.0575222778320312 3.16082666015625 1.0575222778320312 3.1177016601562495 M 1.1668853759765623 2.9608266601562496 L 1.2750103759765623 3.2733266601562496 L 1.3087603759765623 3.2733266601562496 L 1.3812603759765623 3.0639516601562495 L 1.3837603759765624 3.0639516601562495 L 1.4650103759765623 3.2733266601562496 L 1.4943853759765624 3.2733266601562496 L 1.6081353759765622 2.9608266601562496 L 1.5756353759765624 2.9608266601562496 L 1.4906353759765623 3.1945766601562497 L 1.4881353759765623 3.1945766601562497 L 1.3993853759765624 2.9608266601562496 L 1.3868853759765623 2.9608266601562496 L 1.3050103759765623 3.19645166015625 L 1.3025103759765624 3.19645166015625 L 1.2212603759765623 2.9608266601562496 L 1.1668853759765623 2.9608266601562496 M 1.69686767578125 2.9608266601562496 L 1.69686767578125 3.2733266601562496 L 1.7499926757812498 3.2733266601562496 L 1.7499926757812498 2.9608266601562496 L 1.69686767578125 2.9608266601562496 M 1.68936767578125 2.8620766601562497 Q 1.68936767578125 2.8758266601562497 1.69936767578125 2.8858266601562494 Q 1.70936767578125 2.8958266601562497 1.7231176757812499 2.8958266601562497 Q 1.73686767578125 2.8958266601562497 1.74686767578125 2.8858266601562494 Q 1.7568676757812498 2.8758266601562497 1.7568676757812498 2.8620766601562497 Q 1.7568676757812498 2.84832666015625 1.74686767578125 2.8383266601562496 Q 1.73686767578125 2.82832666015625 1.7231176757812499 2.82832666015625 Q 1.70936767578125 2.82832666015625 1.69936767578125 2.8383266601562496 Q 1.68936767578125 2.84832666015625 1.68936767578125 2.8620766601562497 M 2.1368572998046877 3.2733266601562496 L 2.1368572998046877 3.0708266601562495 Q 2.1368572998046877 3.0595766601562495 2.1349822998046877 3.0398891601562497 Q 2.1331072998046876 3.02020166015625 2.1227947998046877 3.0011391601562494 Q 2.1124822998046877 2.98207666015625 2.0899822998046877 2.9680141601562497 Q 2.0674822998046873 2.9539516601562497 2.0262322998046876 2.9539516601562497 Q 2.0081072998046876 2.95332666015625 1.9856072998046874 2.96113916015625 Q 1.9631072998046875 2.96895166015625 1.9412322998046876 2.9908266601562494 L 1.9312322998046876 3.0008266601562497 L 1.9287322998046874 3.0008266601562497 L 1.9287322998046874 2.9608266601562496 L 1.8756072998046875 2.9608266601562496 L 1.8756072998046875 3.2733266601562496 L 1.9287322998046874 3.2733266601562496 L 1.9287322998046874 3.0802016601562494 Q 1.9287322998046874 3.05582666015625 1.9356072998046876 3.0383266601562497 Q 1.9424822998046876 3.0208266601562497 1.9543572998046874 3.0089516601562494 Q 1.9662322998046875 2.9970766601562495 1.9815447998046876 2.9914516601562497 Q 1.9968572998046876 2.9858266601562495 2.0131072998046875 2.9858266601562495 Q 2.0393572998046876 2.9858266601562495 2.0537322998046874 2.9961391601562495 Q 2.0681072998046877 3.0064516601562494 2.0746697998046875 3.02020166015625 Q 2.0812322998046877 3.0339516601562497 2.0824822998046875 3.0477016601562497 Q 2.0837322998046877 3.0614516601562496 2.0837322998046877 3.0677016601562497 L 2.0837322998046877 3.2733266601562496 L 2.1368572998046877 3.2733266601562496 M 2.468103332519531 3.2995766601562497 Q 2.468103332519531 3.32832666015625 2.461228332519531 3.34832666015625 Q 2.4543533325195312 3.36832666015625 2.4421658325195312 3.3808266601562496 Q 2.429978332519531 3.3933266601562497 2.413415832519531 3.3989516601562495 Q 2.396853332519531 3.4045766601562497 2.3781033325195313 3.4045766601562497 Q 2.3449783325195312 3.4045766601562497 2.3246658325195315 3.3877016601562495 Q 2.3043533325195313 3.3708266601562498 2.287478332519531 3.3427016601562496 L 2.2531033325195313 3.3739516601562496 Q 2.2574783325195313 3.37957666015625 2.2668533325195312 3.3886391601562496 Q 2.276228332519531 3.3977016601562497 2.2906033325195314 3.4067641601562495 Q 2.304978332519531 3.4158266601562497 2.3249783325195312 3.4223891601562495 Q 2.3449783325195312 3.4289516601562497 2.3706033325195315 3.4289516601562497 Q 2.4181033325195314 3.4289516601562497 2.4474783325195313 3.4155141601562495 Q 2.476853332519531 3.4020766601562498 2.4931033325195315 3.37957666015625 Q 2.5093533325195314 3.35707666015625 2.5152908325195313 3.3280141601562496 Q 2.5212283325195313 3.2989516601562494 2.5212283325195313 3.2677016601562494 L 2.5212283325195313 2.9608266601562496 L 2.468103332519531 2.9608266601562496 L 2.468103332519531 3.0095766601562497 L 2.4656033325195312 3.0095766601562497 Q 2.4581033325195314 2.9833266601562496 2.433415832519531 2.9686391601562496 Q 2.4087283325195314 2.9539516601562497 2.3687283325195314 2.9539516601562497 Q 2.3368533325195315 2.9539516601562497 2.3106033325195314 2.96551416015625 Q 2.2843533325195313 2.9770766601562495 2.2656033325195315 2.9983266601562497 Q 2.2468533325195312 3.0195766601562495 2.2365408325195313 3.0495766601562497 Q 2.2262283325195313 3.0795766601562495 2.2262283325195313 3.1164516601562497 Q 2.2262283325195313 3.15395166015625 2.2365408325195313 3.18426416015625 Q 2.2468533325195312 3.2145766601562498 2.2656033325195315 3.2361391601562497 Q 2.2843533325195313 3.2577016601562496 2.3102908325195313 3.2692641601562498 Q 2.336228332519531 3.2808266601562495 2.3681033325195315 3.2808266601562495 Q 2.4031033325195312 3.2808266601562495 2.429040832519531 3.2670766601562495 Q 2.4549783325195316 3.2533266601562496 2.4656033325195312 3.22332666015625 L 2.468103332519531 3.22332666015625 L 2.468103332519531 3.2995766601562497 M 2.468103332519531 3.1402016601562495 Q 2.468103332519531 3.1664516601562496 2.4609158325195315 3.1864516601562496 Q 2.4537283325195314 3.2064516601562496 2.4418533325195315 3.2202016601562495 Q 2.429978332519531 3.2339516601562495 2.414353332519531 3.2411391601562496 Q 2.398728332519531 3.2483266601562497 2.3818533325195315 3.2483266601562497 Q 2.3668533325195313 3.2483266601562497 2.3496658325195314 3.2430141601562497 Q 2.3324783325195315 3.2377016601562496 2.3177908325195316 3.22332666015625 Q 2.303103332519531 3.2089516601562496 2.2934158325195315 3.1827016601562494 Q 2.2837283325195314 3.15645166015625 2.2837283325195314 3.1152016601562496 Q 2.2837283325195314 3.07145166015625 2.2956033325195313 3.0455141601562494 Q 2.307478332519531 3.0195766601562495 2.3234158325195313 3.0058266601562496 Q 2.3393533325195315 2.9920766601562496 2.3559158325195315 2.9880141601562498 Q 2.372478332519531 2.9839516601562495 2.3818533325195315 2.9839516601562495 Q 2.4024783325195314 2.9839516601562495 2.4187283325195312 2.9930141601562497 Q 2.434978332519531 3.0020766601562494 2.4459158325195314 3.0173891601562497 Q 2.456853332519531 3.0327016601562495 2.4624783325195314 3.0527016601562496 Q 2.468103332519531 3.0727016601562496 2.468103332519531 3.09395166015625 L 2.468103332519531 3.1402016601562495 M 2.8212066650390626 2.8358266601562496 L 2.9724566650390627 3.1077016601562497 L 2.9724566650390627 3.2733266601562496 L 3.029331665039063 3.2733266601562496 L 3.029331665039063 3.1020766601562495 L 3.1830816650390625 2.8358266601562496 L 3.1493316650390626 2.8358266601562496 L 3.015581665039063 3.0664516601562495 L 3.0130816650390626 3.0664516601562495 L 2.8855816650390627 2.8358266601562496 L 2.8212066650390626 2.8358266601562496 M 3.563067321777344 3.1177016601562495 Q 3.563067321777344 3.1502016601562497 3.551817321777344 3.17988916015625 Q 3.540567321777344 3.2095766601562494 3.519629821777344 3.23207666015625 Q 3.498692321777344 3.25457666015625 3.469004821777344 3.2677016601562494 Q 3.4393173217773443 3.2808266601562495 3.402442321777344 3.2808266601562495 Q 3.364942321777344 3.2808266601562495 3.334629821777344 3.2673891601562497 Q 3.304317321777344 3.2539516601562495 3.283379821777344 3.2314516601562495 Q 3.262442321777344 3.2089516601562496 3.2508798217773442 3.1792641601562495 Q 3.239317321777344 3.14957666015625 3.239317321777344 3.1177016601562495 Q 3.239317321777344 3.0852016601562497 3.2508798217773442 3.0555141601562497 Q 3.262442321777344 3.0258266601562496 3.283379821777344 3.0033266601562496 Q 3.304317321777344 2.9808266601562496 3.334629821777344 2.9673891601562494 Q 3.364942321777344 2.9539516601562497 3.402442321777344 2.9539516601562497 Q 3.4393173217773443 2.9539516601562497 3.469004821777344 2.9673891601562494 Q 3.498692321777344 2.9808266601562496 3.519629821777344 3.0033266601562496 Q 3.540567321777344 3.0258266601562496 3.551817321777344 3.0555141601562497 Q 3.563067321777344 3.0852016601562497 3.563067321777344 3.1177016601562495 M 3.5036923217773444 3.1177016601562495 Q 3.5036923217773444 3.0739516601562498 3.494317321777344 3.0467641601562496 Q 3.484942321777344 3.0195766601562495 3.469942321777344 3.00457666015625 Q 3.4549423217773443 2.9895766601562497 3.436817321777344 2.9842641601562496 Q 3.418692321777344 2.9789516601562496 3.401817321777344 2.9789516601562496 Q 3.384942321777344 2.9789516601562496 3.366817321777344 2.9842641601562496 Q 3.348692321777344 2.9895766601562497 3.3333798217773443 3.00457666015625 Q 3.318067321777344 3.0195766601562495 3.308379821777344 3.0467641601562496 Q 3.2986923217773443 3.0739516601562498 3.2986923217773443 3.1177016601562495 Q 3.2986923217773443 3.16082666015625 3.308379821777344 3.1880141601562495 Q 3.318067321777344 3.2152016601562496 3.3333798217773443 3.2302016601562498 Q 3.348692321777344 3.2452016601562494 3.366817321777344 3.2505141601562495 Q 3.384942321777344 3.2558266601562496 3.401817321777344 3.2558266601562496 Q 3.418692321777344 3.2558266601562496 3.436817321777344 3.2505141601562495 Q 3.4549423217773443 3.2452016601562494 3.469942321777344 3.2302016601562498 Q 3.484942321777344 3.2152016601562496 3.494317321777344 3.1880141601562495 Q 3.5036923217773444 3.16082666015625 3.5036923217773444 3.1177016601562495 M 3.6505554199218753 2.9608266601562496 L 3.6505554199218753 3.1639516601562496 Q 3.6505554199218753 3.1752016601562496 3.6527429199218755 3.1948891601562495 Q 3.6549304199218753 3.2145766601562498 3.6655554199218754 3.2336391601562497 Q 3.6761804199218755 3.2527016601562497 3.6989929199218756 3.26676416015625 Q 3.7218054199218753 3.2808266601562495 3.7630554199218755 3.2808266601562495 Q 3.7811804199218755 3.28145166015625 3.8027429199218754 3.27363916015625 Q 3.8243054199218753 3.26582666015625 3.8461804199218754 3.2439516601562497 L 3.856180419921875 3.2339516601562495 L 3.8586804199218756 3.2339516601562495 L 3.8586804199218756 3.2733266601562496 L 3.9118054199218752 3.2733266601562496 L 3.9118054199218752 2.9608266601562496 L 3.8586804199218756 2.9608266601562496 L 3.8586804199218756 3.1545766601562497 Q 3.8586804199218756 3.1789516601562497 3.8518054199218756 3.19645166015625 Q 3.8449304199218757 3.2139516601562494 3.8336804199218752 3.2255141601562496 Q 3.8224304199218753 3.2370766601562497 3.8074304199218756 3.2427016601562495 Q 3.7924304199218755 3.2483266601562497 3.7761804199218756 3.2483266601562497 Q 3.7499304199218755 3.2483266601562497 3.7352429199218755 3.2380141601562498 Q 3.7205554199218756 3.22770166015625 3.7133679199218754 3.2139516601562494 Q 3.7061804199218753 3.2002016601562495 3.7049304199218756 3.1867641601562497 Q 3.7036804199218754 3.1733266601562495 3.7036804199218754 3.1670766601562494 L 3.7036804199218754 2.9608266601562496 L 3.6505554199218753 2.9608266601562496 M 4.019926452636719 2.9608266601562496 L 4.019926452636719 3.2733266601562496 L 4.07305145263672 3.2733266601562496 L 4.07305145263672 3.0845766601562494 Q 4.07305145263672 3.0589516601562496 4.07898895263672 3.0411391601562494 Q 4.0849264526367195 3.0233266601562496 4.094301452636719 3.0120766601562496 Q 4.103676452636719 3.0008266601562497 4.114926452636719 2.9958266601562498 Q 4.126176452636719 2.9908266601562494 4.136801452636719 2.9908266601562494 Q 4.15117645263672 2.9908266601562494 4.163363952636719 3.00020166015625 Q 4.17555145263672 3.0095766601562497 4.181176452636719 3.0177016601562494 L 4.202426452636719 2.9789516601562496 Q 4.196801452636719 2.9714516601562497 4.188988952636719 2.96645166015625 Q 4.181176452636719 2.9614516601562495 4.173363952636719 2.95863916015625 Q 4.165551452636719 2.9558266601562497 4.15898895263672 2.9548891601562497 Q 4.152426452636719 2.9539516601562497 4.14930145263672 2.9539516601562497 Q 4.1230514526367195 2.9539516601562497 4.105551452636719 2.9683266601562495 Q 4.088051452636719 2.9827016601562497 4.076801452636719 3.0108266601562494 L 4.07305145263672 3.0108266601562494 L 4.07305145263672 2.9608266601562496 L 4.019926452636719 2.9608266601562496 M 4.514923095703125 3.2733266601562496 L 4.671798095703124 3.2733266601562496 Q 4.7136730957031245 3.2733266601562496 4.742423095703125 3.26238916015625 Q 4.771173095703125 3.2514516601562495 4.788673095703125 3.2339516601562495 Q 4.806173095703125 3.21645166015625 4.813985595703125 3.1942641601562496 Q 4.821798095703125 3.17207666015625 4.821798095703125 3.14957666015625 Q 4.821798095703125 3.11395166015625 4.8064855957031245 3.0927016601562496 Q 4.791173095703125 3.07145166015625 4.769923095703125 3.06020166015625 Q 4.748673095703125 3.0489516601562494 4.726173095703125 3.0452016601562497 Q 4.703673095703125 3.0414516601562496 4.689923095703125 3.0408266601562497 L 4.689923095703125 3.0383266601562497 Q 4.7117980957031245 3.0383266601562497 4.731173095703125 3.0298891601562494 Q 4.750548095703125 3.0214516601562496 4.765235595703125 3.00801416015625 Q 4.779923095703125 2.9945766601562496 4.788673095703125 2.97676416015625 Q 4.797423095703125 2.9589516601562496 4.797423095703125 2.9389516601562495 Q 4.797423095703125 2.9214516601562495 4.7899230957031245 2.9033266601562495 Q 4.782423095703125 2.8852016601562496 4.767110595703125 2.8702016601562494 Q 4.7517980957031245 2.8552016601562498 4.727735595703125 2.8455141601562497 Q 4.703673095703125 2.8358266601562496 4.671173095703125 2.8358266601562496 L 4.514923095703125 2.8358266601562496 L 4.514923095703125 3.2733266601562496 M 4.571798095703125 3.2458266601562498 L 4.571798095703125 3.0545766601562496 L 4.640548095703124 3.0545766601562496 Q 4.671173095703125 3.0545766601562496 4.693673095703125 3.06270166015625 Q 4.716173095703125 3.0708266601562495 4.730860595703125 3.0845766601562494 Q 4.745548095703125 3.09832666015625 4.7527355957031245 3.1164516601562497 Q 4.759923095703125 3.1345766601562497 4.759923095703125 3.1545766601562497 Q 4.759923095703125 3.17645166015625 4.752110595703125 3.1933266601562496 Q 4.744298095703125 3.2102016601562497 4.731173095703125 3.2220766601562496 Q 4.718048095703125 3.2339516601562495 4.700235595703125 3.23988916015625 Q 4.6824230957031245 3.2458266601562498 4.662423095703125 3.2458266601562498 L 4.571798095703125 3.2458266601562498 M 4.571798095703125 3.0270766601562498 L 4.571798095703125 2.8633266601562495 L 4.648048095703125 2.8633266601562495 Q 4.672423095703125 2.8633266601562495 4.689610595703125 2.8702016601562494 Q 4.706798095703125 2.8770766601562494 4.717735595703125 2.88832666015625 Q 4.728673095703125 2.8995766601562494 4.733673095703125 2.9139516601562496 Q 4.738673095703125 2.9283266601562494 4.738673095703125 2.9427016601562497 Q 4.738673095703125 2.9608266601562496 4.731485595703125 2.9764516601562496 Q 4.724298095703125 2.9920766601562496 4.711485595703125 3.0033266601562496 Q 4.698673095703125 3.0145766601562496 4.682110595703125 3.0208266601562497 Q 4.665548095703125 3.0270766601562498 4.646798095703125 3.0270766601562498 L 4.571798095703125 3.0270766601562498 M 4.909304809570312 2.9608266601562496 L 4.909304809570312 3.1639516601562496 Q 4.909304809570312 3.1752016601562496 4.911492309570312 3.1948891601562495 Q 4.913679809570312 3.2145766601562498 4.924304809570312 3.2336391601562497 Q 4.934929809570312 3.2527016601562497 4.957742309570312 3.26676416015625 Q 4.980554809570312 3.2808266601562495 5.021804809570312 3.2808266601562495 Q 5.039929809570312 3.28145166015625 5.061492309570312 3.27363916015625 Q 5.083054809570312 3.26582666015625 5.104929809570312 3.2439516601562497 L 5.114929809570312 3.2339516601562495 L 5.117429809570312 3.2339516601562495 L 5.117429809570312 3.2733266601562496 L 5.170554809570312 3.2733266601562496 L 5.170554809570312 2.9608266601562496 L 5.117429809570312 2.9608266601562496 L 5.117429809570312 3.1545766601562497 Q 5.117429809570312 3.1789516601562497 5.110554809570312 3.19645166015625 Q 5.103679809570312 3.2139516601562494 5.092429809570312 3.2255141601562496 Q 5.081179809570312 3.2370766601562497 5.066179809570312 3.2427016601562495 Q 5.051179809570312 3.2483266601562497 5.034929809570312 3.2483266601562497 Q 5.008679809570312 3.2483266601562497 4.993992309570312 3.2380141601562498 Q 4.979304809570312 3.22770166015625 4.972117309570312 3.2139516601562494 Q 4.964929809570312 3.2002016601562495 4.963679809570312 3.1867641601562497 Q 4.962429809570312 3.1733266601562495 4.962429809570312 3.1670766601562494 L 4.962429809570312 2.9608266601562496 L 4.909304809570312 2.9608266601562496 M 5.478050842285155 3.0320766601562497 Q 5.478050842285155 3.0152016601562495 5.469300842285155 3.0008266601562497 Q 5.460550842285155 2.9864516601562494 5.445238342285156 2.9761391601562495 Q 5.429925842285155 2.9658266601562495 5.409613342285155 2.9598891601562496 Q 5.389300842285155 2.9539516601562497 5.3661758422851555 2.9539516601562497 Q 5.344300842285155 2.9539516601562497 5.3252383422851555 2.9595766601562494 Q 5.306175842285155 2.9652016601562496 5.292113342285155 2.9764516601562496 Q 5.278050842285156 2.9877016601562496 5.269925842285155 3.0042641601562496 Q 5.261800842285155 3.0208266601562497 5.261800842285155 3.0427016601562498 Q 5.261800842285155 3.0727016601562496 5.275550842285155 3.0902016601562496 Q 5.289300842285155 3.1077016601562497 5.309925842285155 3.11832666015625 Q 5.330550842285155 3.1289516601562495 5.354613342285155 3.1355141601562497 Q 5.378675842285156 3.1420766601562495 5.399300842285156 3.1498891601562495 Q 5.4199258422851555 3.1577016601562495 5.433675842285155 3.16957666015625 Q 5.447425842285155 3.1814516601562497 5.447425842285155 3.2020766601562496 Q 5.447425842285155 3.2108266601562496 5.444613342285155 3.2202016601562495 Q 5.441800842285155 3.2295766601562494 5.434300842285156 3.2373891601562494 Q 5.4268008422851555 3.2452016601562494 5.413675842285155 3.2505141601562495 Q 5.400550842285155 3.2558266601562496 5.380550842285156 3.2558266601562496 Q 5.355550842285155 3.2558266601562496 5.338363342285155 3.2480141601562496 Q 5.321175842285156 3.2402016601562496 5.310238342285156 3.2292641601562497 Q 5.299300842285155 3.2183266601562495 5.294613342285156 3.2070766601562495 Q 5.289925842285156 3.1958266601562495 5.289925842285156 3.1883266601562497 L 5.249300842285155 3.1883266601562497 Q 5.249300842285155 3.2058266601562497 5.257425842285155 3.2223891601562498 Q 5.265550842285156 3.23895166015625 5.282113342285156 3.2520766601562494 Q 5.298675842285156 3.2652016601562495 5.322738342285155 3.2730141601562495 Q 5.346800842285155 3.2808266601562495 5.378675842285156 3.2808266601562495 Q 5.436175842285156 3.2808266601562495 5.465238342285155 3.25551416015625 Q 5.494300842285155 3.2302016601562498 5.494300842285155 3.1889516601562495 Q 5.494300842285155 3.1589516601562497 5.480238342285156 3.14082666015625 Q 5.466175842285155 3.12270166015625 5.444925842285155 3.1117641601562496 Q 5.423675842285156 3.1008266601562497 5.398988342285155 3.09395166015625 Q 5.374300842285155 3.08707666015625 5.353050842285155 3.0795766601562495 Q 5.331800842285156 3.0720766601562497 5.317738342285155 3.0614516601562496 Q 5.3036758422851555 3.0508266601562495 5.3036758422851555 3.03145166015625 Q 5.3036758422851555 3.0233266601562496 5.306800842285155 3.0142641601562494 Q 5.309925842285155 3.0052016601562497 5.3174258422851555 2.9973891601562497 Q 5.324925842285156 2.9895766601562497 5.337425842285155 2.9842641601562496 Q 5.349925842285155 2.9789516601562496 5.368675842285155 2.9789516601562496 Q 5.387425842285156 2.9789516601562496 5.401175842285156 2.9842641601562496 Q 5.414925842285156 2.9895766601562497 5.424300842285155 2.9973891601562497 Q 5.433675842285155 3.0052016601562497 5.438050842285155 3.0145766601562496 Q 5.4424258422851555 3.0239516601562495 5.4424258422851555 3.0320766601562497 L 5.478050842285155 3.0320766601562497 M 5.604913635253905 2.9608266601562496 L 5.604913635253905 3.2733266601562496 L 5.658038635253905 3.2733266601562496 L 5.658038635253905 2.9608266601562496 L 5.604913635253905 2.9608266601562496 M 5.597413635253905 2.8620766601562497 Q 5.597413635253905 2.8758266601562497 5.607413635253905 2.8858266601562494 Q 5.617413635253905 2.8958266601562497 5.631163635253905 2.8958266601562497 Q 5.644913635253905 2.8958266601562497 5.654913635253905 2.8858266601562494 Q 5.664913635253905 2.8758266601562497 5.664913635253905 2.8620766601562497 Q 5.664913635253905 2.84832666015625 5.654913635253905 2.8383266601562496 Q 5.644913635253905 2.82832666015625 5.631163635253905 2.82832666015625 Q 5.617413635253905 2.82832666015625 5.607413635253905 2.8383266601562496 Q 5.597413635253905 2.84832666015625 5.597413635253905 2.8620766601562497 M 6.044903259277342 3.2733266601562496 L 6.044903259277342 3.0708266601562495 Q 6.044903259277342 3.0595766601562495 6.043028259277342 3.0398891601562497 Q 6.041153259277342 3.02020166015625 6.030840759277342 3.0011391601562494 Q 6.020528259277342 2.98207666015625 5.998028259277342 2.9680141601562497 Q 5.975528259277342 2.9539516601562497 5.934278259277342 2.9539516601562497 Q 5.916153259277342 2.95332666015625 5.893653259277342 2.96113916015625 Q 5.871153259277342 2.96895166015625 5.849278259277342 2.9908266601562494 L 5.839278259277342 3.0008266601562497 L 5.8367782592773425 3.0008266601562497 L 5.8367782592773425 2.9608266601562496 L 5.783653259277342 2.9608266601562496 L 5.783653259277342 3.2733266601562496 L 5.8367782592773425 3.2733266601562496 L 5.8367782592773425 3.0802016601562494 Q 5.8367782592773425 3.05582666015625 5.8436532592773425 3.0383266601562497 Q 5.850528259277342 3.0208266601562497 5.862403259277342 3.0089516601562494 Q 5.874278259277342 2.9970766601562495 5.889590759277342 2.9914516601562497 Q 5.904903259277342 2.9858266601562495 5.921153259277342 2.9858266601562495 Q 5.947403259277342 2.9858266601562495 5.9617782592773425 2.9961391601562495 Q 5.976153259277342 3.0064516601562494 5.982715759277342 3.02020166015625 Q 5.989278259277342 3.0339516601562497 5.990528259277342 3.0477016601562497 Q 5.991778259277342 3.0614516601562496 5.991778259277342 3.0677016601562497 L 5.991778259277342 3.2733266601562496 L 6.044903259277342 3.2733266601562496 M 6.430524291992185 3.1308266601562496 L 6.430524291992185 3.1177016601562495 Q 6.430524291992185 3.07582666015625 6.418649291992185 3.0452016601562497 Q 6.4067742919921855 3.0145766601562496 6.386461791992185 2.9945766601562496 Q 6.366149291992185 2.9745766601562496 6.339274291992186 2.9645766601562498 Q 6.312399291992185 2.9545766601562495 6.282399291992186 2.9545766601562495 Q 6.2505242919921855 2.9545766601562495 6.223649291992186 2.96551416015625 Q 6.1967742919921855 2.9764516601562496 6.176774291992186 2.9973891601562497 Q 6.1567742919921855 3.0183266601562497 6.145524291992186 3.04801416015625 Q 6.1342742919921855 3.0777016601562495 6.1342742919921855 3.1152016601562496 Q 6.1342742919921855 3.1464516601562496 6.143961791992186 3.1761391601562496 Q 6.153649291992186 3.2058266601562497 6.1733367919921855 3.2292641601562497 Q 6.193024291992185 3.2527016601562497 6.223336791992185 3.26676416015625 Q 6.253649291992185 3.2808266601562495 6.294899291992186 3.2808266601562495 Q 6.334899291992185 3.2808266601562495 6.3686492919921855 3.26676416015625 Q 6.402399291992186 3.2527016601562497 6.427399291992185 3.2264516601562496 L 6.407399291992186 3.2064516601562496 Q 6.394274291992185 3.2177016601562496 6.382711791992185 3.2270766601562495 Q 6.371149291992186 3.2364516601562494 6.359274291992185 3.2427016601562495 Q 6.347399291992185 3.2489516601562496 6.334586791992185 3.2523891601562496 Q 6.3217742919921855 3.2558266601562496 6.3061492919921855 3.2558266601562496 Q 6.2886492919921855 3.2558266601562496 6.268961791992186 3.2505141601562495 Q 6.249274291992186 3.2452016601562494 6.232399291992185 3.2314516601562495 Q 6.215524291992185 3.2177016601562496 6.204274291992186 3.1933266601562496 Q 6.193024291992185 3.1689516601562495 6.193024291992185 3.1308266601562496 L 6.430524291992185 3.1308266601562496 M 6.193024291992185 3.1058266601562496 Q 6.193024291992185 3.0808266601562497 6.198336791992186 3.0573891601562497 Q 6.2036492919921855 3.0339516601562497 6.214586791992185 3.01582666015625 Q 6.225524291992185 2.99770166015625 6.242399291992186 2.9867641601562496 Q 6.2592742919921855 2.9758266601562497 6.282399291992186 2.9758266601562497 Q 6.326774291992185 2.9758266601562497 6.351461791992185 3.0105141601562497 Q 6.376149291992186 3.0452016601562497 6.376149291992186 3.1058266601562496 L 6.193024291992185 3.1058266601562496 M 6.71738342285156 3.0320766601562497 Q 6.71738342285156 3.0152016601562495 6.70863342285156 3.0008266601562497 Q 6.69988342285156 2.9864516601562494 6.68457092285156 2.9761391601562495 Q 6.66925842285156 2.9658266601562495 6.64894592285156 2.9598891601562496 Q 6.62863342285156 2.9539516601562497 6.60550842285156 2.9539516601562497 Q 6.58363342285156 2.9539516601562497 6.56457092285156 2.9595766601562494 Q 6.54550842285156 2.9652016601562496 6.53144592285156 2.9764516601562496 Q 6.517383422851561 2.9877016601562496 6.50925842285156 3.0042641601562496 Q 6.50113342285156 3.0208266601562497 6.50113342285156 3.0427016601562498 Q 6.50113342285156 3.0727016601562496 6.51488342285156 3.0902016601562496 Q 6.52863342285156 3.1077016601562497 6.54925842285156 3.11832666015625 Q 6.56988342285156 3.1289516601562495 6.59394592285156 3.1355141601562497 Q 6.6180084228515605 3.1420766601562495 6.63863342285156 3.1498891601562495 Q 6.65925842285156 3.1577016601562495 6.67300842285156 3.16957666015625 Q 6.68675842285156 3.1814516601562497 6.68675842285156 3.2020766601562496 Q 6.68675842285156 3.2108266601562496 6.68394592285156 3.2202016601562495 Q 6.68113342285156 3.2295766601562494 6.673633422851561 3.2373891601562494 Q 6.66613342285156 3.2452016601562494 6.65300842285156 3.2505141601562495 Q 6.63988342285156 3.2558266601562496 6.619883422851561 3.2558266601562496 Q 6.59488342285156 3.2558266601562496 6.57769592285156 3.2480141601562496 Q 6.56050842285156 3.2402016601562496 6.549570922851561 3.2292641601562497 Q 6.53863342285156 3.2183266601562495 6.533945922851561 3.2070766601562495 Q 6.52925842285156 3.1958266601562495 6.52925842285156 3.1883266601562497 L 6.48863342285156 3.1883266601562497 Q 6.48863342285156 3.2058266601562497 6.49675842285156 3.2223891601562498 Q 6.50488342285156 3.23895166015625 6.52144592285156 3.2520766601562494 Q 6.5380084228515605 3.2652016601562495 6.56207092285156 3.2730141601562495 Q 6.58613342285156 3.2808266601562495 6.6180084228515605 3.2808266601562495 Q 6.675508422851561 3.2808266601562495 6.70457092285156 3.25551416015625 Q 6.73363342285156 3.2302016601562498 6.73363342285156 3.1889516601562495 Q 6.73363342285156 3.1589516601562497 6.7195709228515605 3.14082666015625 Q 6.70550842285156 3.12270166015625 6.68425842285156 3.1117641601562496 Q 6.6630084228515605 3.1008266601562497 6.63832092285156 3.09395166015625 Q 6.61363342285156 3.08707666015625 6.59238342285156 3.0795766601562495 Q 6.5711334228515605 3.0720766601562497 6.55707092285156 3.0614516601562496 Q 6.54300842285156 3.0508266601562495 6.54300842285156 3.03145166015625 Q 6.54300842285156 3.0233266601562496 6.54613342285156 3.0142641601562494 Q 6.54925842285156 3.0052016601562497 6.55675842285156 2.9973891601562497 Q 6.564258422851561 2.9895766601562497 6.57675842285156 2.9842641601562496 Q 6.58925842285156 2.9789516601562496 6.60800842285156 2.9789516601562496 Q 6.626758422851561 2.9789516601562496 6.6405084228515605 2.9842641601562496 Q 6.65425842285156 2.9895766601562497 6.66363342285156 2.9973891601562497 Q 6.67300842285156 3.0052016601562497 6.67738342285156 3.0145766601562496 Q 6.68175842285156 3.0239516601562495 6.68175842285156 3.0320766601562497 L 6.71738342285156 3.0320766601562497 M 7.0236212158203095 3.0320766601562497 Q 7.0236212158203095 3.0152016601562495 7.0148712158203095 3.0008266601562497 Q 7.0061212158203094 2.9864516601562494 6.99080871582031 2.9761391601562495 Q 6.97549621582031 2.9658266601562495 6.95518371582031 2.9598891601562496 Q 6.934871215820309 2.9539516601562497 6.91174621582031 2.9539516601562497 Q 6.8898712158203095 2.9539516601562497 6.87080871582031 2.9595766601562494 Q 6.8517462158203095 2.9652016601562496 6.83768371582031 2.9764516601562496 Q 6.82362121582031 2.9877016601562496 6.81549621582031 3.0042641601562496 Q 6.80737121582031 3.0208266601562497 6.80737121582031 3.0427016601562498 Q 6.80737121582031 3.0727016601562496 6.82112121582031 3.0902016601562496 Q 6.83487121582031 3.1077016601562497 6.85549621582031 3.11832666015625 Q 6.8761212158203096 3.1289516601562495 6.90018371582031 3.1355141601562497 Q 6.92424621582031 3.1420766601562495 6.94487121582031 3.1498891601562495 Q 6.96549621582031 3.1577016601562495 6.97924621582031 3.16957666015625 Q 6.99299621582031 3.1814516601562497 6.99299621582031 3.2020766601562496 Q 6.99299621582031 3.2108266601562496 6.99018371582031 3.2202016601562495 Q 6.98737121582031 3.2295766601562494 6.97987121582031 3.2373891601562494 Q 6.97237121582031 3.2452016601562494 6.9592462158203094 3.2505141601562495 Q 6.94612121582031 3.2558266601562496 6.92612121582031 3.2558266601562496 Q 6.90112121582031 3.2558266601562496 6.8839337158203096 3.2480141601562496 Q 6.86674621582031 3.2402016601562496 6.85580871582031 3.2292641601562497 Q 6.8448712158203096 3.2183266601562495 6.84018371582031 3.2070766601562495 Q 6.83549621582031 3.1958266601562495 6.83549621582031 3.1883266601562497 L 6.79487121582031 3.1883266601562497 Q 6.79487121582031 3.2058266601562497 6.8029962158203094 3.2223891601562498 Q 6.81112121582031 3.23895166015625 6.82768371582031 3.2520766601562494 Q 6.84424621582031 3.2652016601562495 6.8683087158203096 3.2730141601562495 Q 6.89237121582031 3.2808266601562495 6.92424621582031 3.2808266601562495 Q 6.98174621582031 3.2808266601562495 7.01080871582031 3.25551416015625 Q 7.03987121582031 3.2302016601562498 7.03987121582031 3.1889516601562495 Q 7.03987121582031 3.1589516601562497 7.02580871582031 3.14082666015625 Q 7.01174621582031 3.12270166015625 6.9904962158203094 3.1117641601562496 Q 6.96924621582031 3.1008266601562497 6.9445587158203095 3.09395166015625 Q 6.91987121582031 3.08707666015625 6.8986212158203095 3.0795766601562495 Q 6.87737121582031 3.0720766601562497 6.86330871582031 3.0614516601562496 Q 6.84924621582031 3.0508266601562495 6.84924621582031 3.03145166015625 Q 6.84924621582031 3.0233266601562496 6.85237121582031 3.0142641601562494 Q 6.85549621582031 3.0052016601562497 6.86299621582031 2.9973891601562497 Q 6.87049621582031 2.9895766601562497 6.8829962158203095 2.9842641601562496 Q 6.89549621582031 2.9789516601562496 6.9142462158203095 2.9789516601562496 Q 6.93299621582031 2.9789516601562496 6.94674621582031 2.9842641601562496 Q 6.96049621582031 2.9895766601562497 6.9698712158203096 2.9973891601562497 Q 6.97924621582031 3.0052016601562497 6.9836212158203095 3.0145766601562496 Q 6.98799621582031 3.0239516601562495 6.98799621582031 3.0320766601562497 L 7.0236212158203095 3.0320766601562497 M 7.336718749999997 3.0545766601562496 Q 7.336718749999997 3.0895766601562498 7.350156249999997 3.1292641601562496 Q 7.363593749999997 3.1689516601562495 7.392343749999997 3.2027016601562495 Q 7.421093749999996 3.2364516601562494 7.465468749999997 3.2586391601562497 Q 7.509843749999996 3.2808266601562495 7.571718749999997 3.2808266601562495 Q 7.613593749999996 3.2808266601562495 7.647656249999996 3.2705141601562495 Q 7.681718749999996 3.2602016601562496 7.7089062499999965 3.2427016601562495 Q 7.736093749999997 3.2252016601562494 7.756093749999996 3.2023891601562497 Q 7.776093749999997 3.1795766601562496 7.788906249999997 3.1542641601562496 Q 7.8017187499999965 3.1289516601562495 7.808281249999997 3.1033266601562497 Q 7.814843749999997 3.0777016601562495 7.814843749999997 3.0545766601562496 Q 7.814843749999997 3.0195766601562495 7.800468749999997 2.9798891601562496 Q 7.7860937499999965 2.9402016601562497 7.756093749999996 2.90645166015625 Q 7.726093749999997 2.87270166015625 7.680156249999997 2.8505141601562496 Q 7.634218749999997 2.82832666015625 7.571718749999997 2.82832666015625 Q 7.509843749999996 2.82832666015625 7.465468749999997 2.8502016601562494 Q 7.421093749999996 2.8720766601562495 7.392343749999997 2.9055141601562497 Q 7.363593749999997 2.9389516601562495 7.350156249999997 2.9789516601562496 Q 7.336718749999997 3.0189516601562496 7.336718749999997 3.0545766601562496 M 7.397968749999997 3.0545766601562496 Q 7.397968749999997 3.0108266601562494 7.411406249999996 2.97426416015625 Q 7.424843749999996 2.93770166015625 7.448281249999996 2.9114516601562497 Q 7.471718749999996 2.8852016601562496 7.503593749999997 2.8705141601562496 Q 7.535468749999997 2.8558266601562496 7.572968749999997 2.8558266601562496 Q 7.609843749999997 2.8558266601562496 7.642656249999996 2.8705141601562496 Q 7.675468749999997 2.8852016601562496 7.7001562499999965 2.9114516601562497 Q 7.724843749999996 2.93770166015625 7.7392187499999965 2.97426416015625 Q 7.753593749999997 3.0108266601562494 7.753593749999997 3.0545766601562496 Q 7.753593749999997 3.09832666015625 7.7392187499999965 3.1348891601562494 Q 7.724843749999996 3.1714516601562495 7.7001562499999965 3.1977016601562496 Q 7.675468749999997 3.2239516601562497 7.642656249999996 3.2386391601562496 Q 7.609843749999997 3.2533266601562496 7.572968749999997 3.2533266601562496 Q 7.535468749999997 3.2533266601562496 7.503593749999997 3.2386391601562496 Q 7.471718749999996 3.2239516601562497 7.448281249999996 3.1977016601562496 Q 7.424843749999996 3.1714516601562495 7.411406249999996 3.1348891601562494 Q 7.397968749999997 3.09832666015625 7.397968749999997 3.0545766601562496 M 8.163587646484372 3.2733266601562496 L 8.163587646484372 3.0708266601562495 Q 8.163587646484372 3.0595766601562495 8.161712646484371 3.0398891601562497 Q 8.159837646484371 3.02020166015625 8.149525146484372 3.0011391601562494 Q 8.13921264648437 2.98207666015625 8.116712646484372 2.9680141601562497 Q 8.09421264648437 2.9539516601562497 8.05296264648437 2.9539516601562497 Q 8.034837646484371 2.95332666015625 8.01233764648437 2.96113916015625 Q 7.9898376464843714 2.96895166015625 7.967962646484371 2.9908266601562494 L 7.957962646484371 3.0008266601562497 L 7.955462646484372 3.0008266601562497 L 7.955462646484372 2.9608266601562496 L 7.902337646484371 2.9608266601562496 L 7.902337646484371 3.2733266601562496 L 7.955462646484372 3.2733266601562496 L 7.955462646484372 3.0802016601562494 Q 7.955462646484372 3.05582666015625 7.962337646484372 3.0383266601562497 Q 7.9692126464843716 3.0208266601562497 7.981087646484371 3.0089516601562494 Q 7.992962646484371 2.9970766601562495 8.00827514648437 2.9914516601562497 Q 8.023587646484371 2.9858266601562495 8.039837646484372 2.9858266601562495 Q 8.066087646484371 2.9858266601562495 8.08046264648437 2.9961391601562495 Q 8.094837646484372 3.0064516601562494 8.101400146484371 3.02020166015625 Q 8.10796264648437 3.0339516601562497 8.109212646484371 3.0477016601562497 Q 8.110462646484372 3.0614516601562496 8.110462646484372 3.0677016601562497 L 8.110462646484372 3.2733266601562496 L 8.163587646484372 3.2733266601562496 M 8.337333679199215 2.8358266601562496 L 8.284208679199216 2.8358266601562496 L 8.284208679199216 3.2733266601562496 L 8.337333679199215 3.2733266601562496 L 8.337333679199215 2.8358266601562496 M 8.476066894531247 2.9608266601562496 L 8.476066894531247 3.2733266601562496 L 8.529191894531246 3.2733266601562496 L 8.529191894531246 2.9608266601562496 L 8.476066894531247 2.9608266601562496 M 8.468566894531246 2.8620766601562497 Q 8.468566894531246 2.8758266601562497 8.478566894531246 2.8858266601562494 Q 8.488566894531246 2.8958266601562497 8.502316894531246 2.8958266601562497 Q 8.516066894531246 2.8958266601562497 8.526066894531246 2.8858266601562494 Q 8.536066894531247 2.8758266601562497 8.536066894531247 2.8620766601562497 Q 8.536066894531247 2.84832666015625 8.526066894531246 2.8383266601562496 Q 8.516066894531246 2.82832666015625 8.502316894531246 2.82832666015625 Q 8.488566894531246 2.82832666015625 8.478566894531246 2.8383266601562496 Q 8.468566894531246 2.84832666015625 8.468566894531246 2.8620766601562497 M 8.916056518554683 3.2733266601562496 L 8.916056518554683 3.0708266601562495 Q 8.916056518554683 3.0595766601562495 8.914181518554683 3.0398891601562497 Q 8.912306518554683 3.02020166015625 8.901994018554683 3.0011391601562494 Q 8.891681518554684 2.98207666015625 8.869181518554683 2.9680141601562497 Q 8.846681518554684 2.9539516601562497 8.805431518554684 2.9539516601562497 Q 8.787306518554683 2.95332666015625 8.764806518554684 2.96113916015625 Q 8.742306518554683 2.96895166015625 8.720431518554683 2.9908266601562494 L 8.710431518554683 3.0008266601562497 L 8.707931518554684 3.0008266601562497 L 8.707931518554684 2.9608266601562496 L 8.654806518554684 2.9608266601562496 L 8.654806518554684 3.2733266601562496 L 8.707931518554684 3.2733266601562496 L 8.707931518554684 3.0802016601562494 Q 8.707931518554684 3.05582666015625 8.714806518554683 3.0383266601562497 Q 8.721681518554684 3.0208266601562497 8.733556518554684 3.0089516601562494 Q 8.745431518554684 2.9970766601562495 8.760744018554684 2.9914516601562497 Q 8.776056518554684 2.9858266601562495 8.792306518554684 2.9858266601562495 Q 8.818556518554683 2.9858266601562495 8.832931518554684 2.9961391601562495 Q 8.847306518554683 3.0064516601562494 8.853869018554684 3.02020166015625 Q 8.860431518554684 3.0339516601562497 8.861681518554684 3.0477016601562497 Q 8.862931518554683 3.0614516601562496 8.862931518554683 3.0677016601562497 L 8.862931518554683 3.2733266601562496 L 8.916056518554683 3.2733266601562496 M 9.301677551269528 3.1308266601562496 L 9.301677551269528 3.1177016601562495 Q 9.301677551269528 3.07582666015625 9.289802551269528 3.0452016601562497 Q 9.277927551269528 3.0145766601562496 9.257615051269527 2.9945766601562496 Q 9.237302551269527 2.9745766601562496 9.210427551269527 2.9645766601562498 Q 9.183552551269527 2.9545766601562495 9.153552551269527 2.9545766601562495 Q 9.121677551269528 2.9545766601562495 9.094802551269527 2.96551416015625 Q 9.067927551269527 2.9764516601562496 9.047927551269527 2.9973891601562497 Q 9.027927551269528 3.0183266601562497 9.016677551269527 3.04801416015625 Q 9.005427551269527 3.0777016601562495 9.005427551269527 3.1152016601562496 Q 9.005427551269527 3.1464516601562496 9.015115051269527 3.1761391601562496 Q 9.024802551269527 3.2058266601562497 9.044490051269527 3.2292641601562497 Q 9.064177551269527 3.2527016601562497 9.094490051269528 3.26676416015625 Q 9.124802551269527 3.2808266601562495 9.166052551269527 3.2808266601562495 Q 9.206052551269527 3.2808266601562495 9.239802551269527 3.26676416015625 Q 9.273552551269526 3.2527016601562497 9.298552551269527 3.2264516601562496 L 9.278552551269527 3.2064516601562496 Q 9.265427551269527 3.2177016601562496 9.253865051269527 3.2270766601562495 Q 9.242302551269526 3.2364516601562494 9.230427551269527 3.2427016601562495 Q 9.218552551269527 3.2489516601562496 9.205740051269528 3.2523891601562496 Q 9.192927551269527 3.2558266601562496 9.177302551269527 3.2558266601562496 Q 9.159802551269527 3.2558266601562496 9.140115051269527 3.2505141601562495 Q 9.120427551269527 3.2452016601562494 9.103552551269527 3.2314516601562495 Q 9.086677551269528 3.2177016601562496 9.075427551269527 3.1933266601562496 Q 9.064177551269527 3.1689516601562495 9.064177551269527 3.1308266601562496 L 9.301677551269528 3.1308266601562496 M 9.064177551269527 3.1058266601562496 Q 9.064177551269527 3.0808266601562497 9.069490051269527 3.0573891601562497 Q 9.074802551269528 3.0339516601562497 9.085740051269527 3.01582666015625 Q 9.096677551269527 2.99770166015625 9.113552551269526 2.9867641601562496 Q 9.130427551269527 2.9758266601562497 9.153552551269527 2.9758266601562497 Q 9.197927551269528 2.9758266601562497 9.222615051269527 3.0105141601562497 Q 9.247302551269527 3.0452016601562497 9.247302551269527 3.1058266601562496 L 9.064177551269527 3.1058266601562496" fill="#dceac6" fill-rule="nonzero"></path></g><g clip-path="url(#SvgjsClipPath1001)"><g clip-path="url(#SvgjsClipPath1000274894d9-a511-42be-8fc1-b428358d4e4c)"><path d=" M -2.9658287965685206 0.9362873134751155 L -2.9658287965685206 0.6539891476274836 L -3.506865861891761 0.6539891476274836 L -3.506865861891761 2.4562399826377552 L -2.6585835814770236 2.946176900072734 L -2.118025631669063 2.6341240086037807 L -2.399266439138146 2.4718360187213335 L -2.6578896900411024 2.621105283567907 L -3.224815514414103 2.2938198229579942 L -3.2245676960441303 0.9362707922504512 Z M -1.9535072764568722 3.0282213017581867 L -2.2349628598465983 3.190757110010603 L -1.9535072764568722 3.35327639703835 L -1.6720351718424828 3.190757110010603 Z M -1.3883657443476722 0.6539065415041576 L -1.8123003692467299 0.6539065415041576 L -1.8123003692467299 -0.07988365198343783 L -2.0947141836670142 -0.07988365198343783 L -2.0947141836670142 0.6539065415041576 L -2.5186653297907373 0.6539065415041576 L -2.5186653297907373 0.24634445024792728 L -2.801310441356329 0.24634445024792728 C -2.801194792783675 0.9937316116346611 -2.8010791442110214 1.302282003474677 -2.800847847065713 2.0496691648614105 L -1.2485300987847077 2.9461108151740723 L -0.40001652122466425 2.4561738977390934 L -0.40011564857265247 0.6539065415041576 L -0.9411527138958942 0.6539065415041576 L -0.9411527138958942 0.9362873134751155 L -0.6824138144202854 0.9362873134751155 L -0.6821990384996424 2.293836344182658 L -1.2491083416479776 2.621121804792571 C -1.6722499477631256 2.37680593444934 -2.095435610477379 2.132247752811029 -2.518665329790738 1.8874472598776302 L -2.518665329790738 0.9362873134751155 L -1.3883657443476722 0.9362873134751155 L -1.3883657443476722 1.8874472598776302 L -1.789236739614654 2.11912439335228 L -1.507880283572917 2.2815280318073725 L -1.1061997482973593 2.049751770984737 C -1.1059519299273868 1.3023646095980028 -1.1058362813547324 0.9938142177579872 -1.1057206327820799 0.24642705637125334 L -1.3883657443476722 0.24642705637125334 Z" fill="#64c6c4" transform="matrix(1,0,0,1,0,0)" fill-rule="evenodd"></path></g></g></g><defs><clipPath id="SvgjsClipPath1001"><path d=" M -3.506865861891761 -0.07988365198343783 h 3.106865861891761 v 3.4330939641231253 h -3.106865861891761 Z"></path></clipPath><clipPath id="SvgjsClipPath1000274894d9-a511-42be-8fc1-b428358d4e4c"><path d=" M -3.506865861891761 -0.07988365198343783 L -0.3999999999999999 -0.07988365198343783 L -0.3999999999999999 3.3532103121396872 L -3.506865861891761 3.3532103121396872 Z"></path></clipPath></defs></svg>