<svg xmlns="http://www.w3.org/2000/svg" version="1.1" xmlns:xlink="http://www.w3.org/1999/xlink" xmlns:svgjs="http://svgjs.dev/svgjs" viewBox="0 0 14.034888728135599 16.169730833080855"><g transform="matrix(1,0,0,1,1.2547490515677993,11.486030121356807)"><rect width="16.169730833080855" height="16.169730833080855" x="-2.3221701040404277" y="-11.486030121356807" fill="#212245"></rect><g><path d=" M 0.1259765625 0.30908203125 Q 0.1259765625 0.246826171875 0.12451171875 0.2003173828125 Q 0.123046875 0.15380859375 0.1201171875 0.1197509765625 Q 0.1171875 0.085693359375 0.1131591796875 0.06298828125 Q 0.109130859375 0.040283203125 0.104736328125 0.02490234375 L 0.104736328125 0.02197265625 Q 0.119384765625 0.022705078125 0.135498046875 0.022705078125 Q 0.1494140625 0.0234375 0.1666259765625 0.0234375 Q 0.183837890625 0.0234375 0.2021484375 0.0234375 Q 0.228515625 0.0234375 0.2735595703125 0.018310546875 Q 0.318603515625 0.01318359375 0.3896484375 0.01318359375 Q 0.45556640625 0.01318359375 0.51123046875 0.0303955078125 Q 0.56689453125 0.047607421875 0.6075439453125 0.079833984375 Q 0.648193359375 0.112060546875 0.6712646484375 0.1593017578125 Q 0.6943359375 0.20654296875 0.6943359375 0.2666015625 Q 0.6943359375 0.317138671875 0.680419921875 0.3570556640625 Q 0.66650390625 0.39697265625 0.6412353515625 0.4266357421875 Q 0.615966796875 0.456298828125 0.5804443359375 0.4764404296875 Q 0.544921875 0.49658203125 0.50244140625 0.50830078125 Q 0.564697265625 0.517822265625 0.615966796875 0.5401611328125 Q 0.667236328125 0.5625 0.7042236328125 0.59619140625 Q 0.7412109375 0.6298828125 0.7613525390625 0.6749267578125 Q 0.781494140625 0.719970703125 0.781494140625 0.77490234375 Q 0.781494140625 0.929443359375 0.6796875 1.0067138671875 Q 0.577880859375 1.083984375 0.375 1.083984375 Q 0.35302734375 1.083984375 0.32373046875 1.0821533203125 Q 0.29443359375 1.080322265625 0.2640380859375 1.078125 Q 0.233642578125 1.075927734375 0.204345703125 1.0740966796875 Q 0.175048828125 1.072265625 0.153076171875 1.072265625 L 0.104736328125 1.072265625 L 0.104736328125 1.0693359375 Q 0.109130859375 1.053955078125 0.1131591796875 1.03125 Q 0.1171875 1.008544921875 0.1201171875 0.974853515625 Q 0.123046875 0.941162109375 0.12451171875 0.8946533203125 Q 0.1259765625 0.84814453125 0.1259765625 0.785888671875 L 0.1259765625 0.30908203125 M 0.394775390625 0.552978515625 Q 0.344970703125 0.552978515625 0.311279296875 0.556640625 Q 0.277587890625 0.560302734375 0.25927734375 0.56396484375 L 0.25927734375 0.785888671875 Q 0.25927734375 0.87158203125 0.26220703125 0.92724609375 Q 0.26513671875 0.98291015625 0.270263671875 1.01806640625 Q 0.298095703125 1.021728515625 0.325927734375 1.024658203125 Q 0.353759765625 1.027587890625 0.37060546875 1.027587890625 Q 0.507568359375 1.027587890625 0.5709228515625 0.9664306640625 Q 0.63427734375 0.9052734375 0.63427734375 0.778564453125 Q 0.63427734375 0.728759765625 0.6192626953125 0.6873779296875 Q 0.604248046875 0.64599609375 0.5745849609375 0.615966796875 Q 0.544921875 0.5859375 0.4998779296875 0.5694580078125 Q 0.454833984375 0.552978515625 0.394775390625 0.552978515625 M 0.25927734375 0.498046875 Q 0.27978515625 0.500244140625 0.2958984375 0.5006103515625 Q 0.31201171875 0.5009765625 0.330322265625 0.5009765625 Q 0.380126953125 0.5009765625 0.421142578125 0.4866943359375 Q 0.462158203125 0.472412109375 0.4910888671875 0.44384765625 Q 0.52001953125 0.415283203125 0.5361328125 0.3724365234375 Q 0.55224609375 0.32958984375 0.55224609375 0.2724609375 Q 0.55224609375 0.224853515625 0.54052734375 0.18603515625 Q 0.52880859375 0.147216796875 0.5057373046875 0.1197509765625 Q 0.482666015625 0.09228515625 0.448974609375 0.07763671875 Q 0.415283203125 0.06298828125 0.3720703125 0.06298828125 Q 0.34423828125 0.06298828125 0.3233642578125 0.065185546875 Q 0.302490234375 0.0673828125 0.287841796875 0.0703125 Q 0.27099609375 0.0732421875 0.25927734375 0.07763671875 L 0.25927734375 0.498046875 M 1.68017578125 1.072265625 L 1.68017578125 1.0693359375 Q 1.681640625 1.065673828125 1.682373046875 1.058349609375 Q 1.68310546875 1.051025390625 1.68310546875 1.045166015625 Q 1.68310546875 1.0224609375 1.6768798828125 0.9949951171875 Q 1.670654296875 0.967529296875 1.653076171875 0.926513671875 L 1.564453125 0.727294921875 Q 1.5234375 0.725830078125 1.455322265625 0.725830078125 Q 1.38720703125 0.725830078125 1.30810546875 0.725830078125 Q 1.250244140625 0.725830078125 1.1964111328125 0.725830078125 Q 1.142578125 0.725830078125 1.099365234375 0.727294921875 L 1.01513671875 0.920654296875 Q 1.004150390625 0.94775390625 0.99169921875 0.97998046875 Q 0.979248046875 1.01220703125 0.979248046875 1.045166015625 Q 0.979248046875 1.0546875 0.980712890625 1.0609130859375 Q 0.982177734375 1.067138671875 0.983642578125 1.0693359375 L 0.983642578125 1.072265625 L 0.834228515625 1.072265625 L 0.834228515625 1.0693359375 Q 0.847412109375 1.055419921875 0.8671875 1.0198974609375 Q 0.886962890625 0.984375 0.910400390625 0.930908203125 L 1.330078125 0 L 1.388671875 0 L 1.786376953125 0.89501953125 Q 1.80029296875 0.926513671875 1.8153076171875 0.9561767578125 Q 1.830322265625 0.98583984375 1.843505859375 1.00927734375 Q 1.856689453125 1.03271484375 1.866943359375 1.048828125 Q 1.877197265625 1.06494140625 1.880859375 1.0693359375 L 1.880859375 1.072265625 L 1.68017578125 1.072265625 M 1.20556640625 0.662841796875 Q 1.248046875 0.662841796875 1.292724609375 0.6624755859375 Q 1.33740234375 0.662109375 1.3802490234375 0.6617431640625 Q 1.423095703125 0.661376953125 1.462646484375 0.6610107421875 Q 1.502197265625 0.66064453125 1.534423828125 0.659912109375 L 1.32861328125 0.19482421875 L 1.12646484375 0.662841796875 L 1.20556640625 0.662841796875 M 2.704833984375 0.56982421875 Q 2.675537109375 0.569091796875 2.631591796875 0.5687255859375 Q 2.587646484375 0.568359375 2.5360107421875 0.567626953125 Q 2.484375 0.56689453125 2.4283447265625 0.5665283203125 Q 2.372314453125 0.566162109375 2.31884765625 0.5657958984375 Q 2.265380859375 0.5654296875 2.217041015625 0.566162109375 Q 2.168701171875 0.56689453125 2.1328125 0.568359375 L 2.1328125 0.785888671875 Q 2.1328125 0.84814453125 2.1346435546875 0.8946533203125 Q 2.136474609375 0.941162109375 2.1390380859375 0.974853515625 Q 2.1416015625 1.008544921875 2.1456298828125 1.03125 Q 2.149658203125 1.053955078125 2.154052734375 1.0693359375 L 2.154052734375 1.072265625 L 1.978271484375 1.072265625 L 1.978271484375 1.0693359375 Q 1.982666015625 1.053955078125 1.9866943359375 1.03125 Q 1.99072265625 1.008544921875 1.99365234375 0.974853515625 Q 1.99658203125 0.941162109375 1.998046875 0.8946533203125 Q 1.99951171875 0.84814453125 1.99951171875 0.785888671875 L 1.99951171875 0.30908203125 Q 1.99951171875 0.246826171875 1.998046875 0.2003173828125 Q 1.99658203125 0.15380859375 1.99365234375 0.1197509765625 Q 1.99072265625 0.085693359375 1.9866943359375 0.06298828125 Q 1.982666015625 0.040283203125 1.978271484375 0.02490234375 L 1.978271484375 0.02197265625 L 2.154052734375 0.02197265625 L 2.154052734375 0.02490234375 Q 2.149658203125 0.040283203125 2.1456298828125 0.06298828125 Q 2.1416015625 0.085693359375 2.1390380859375 0.1197509765625 Q 2.136474609375 0.15380859375 2.1346435546875 0.2003173828125 Q 2.1328125 0.246826171875 2.1328125 0.30908203125 L 2.1328125 0.49658203125 Q 2.1708984375 0.498046875 2.21923828125 0.4984130859375 Q 2.267578125 0.498779296875 2.3203125 0.4984130859375 Q 2.373046875 0.498046875 2.4276123046875 0.497314453125 Q 2.482177734375 0.49658203125 2.5330810546875 0.4954833984375 Q 2.583984375 0.494384765625 2.6282958984375 0.492919921875 Q 2.672607421875 0.491455078125 2.704833984375 0.489990234375 L 2.704833984375 0.30908203125 Q 2.704833984375 0.246826171875 2.7030029296875 0.2003173828125 Q 2.701171875 0.15380859375 2.6986083984375 0.1197509765625 Q 2.696044921875 0.085693359375 2.6920166015625 0.06298828125 Q 2.68798828125 0.040283203125 2.68359375 0.02490234375 L 2.68359375 0.02197265625 L 2.859375 0.02197265625 L 2.859375 0.02490234375 Q 2.85498046875 0.040283203125 2.8509521484375 0.06298828125 Q 2.846923828125 0.085693359375 2.843994140625 0.1197509765625 Q 2.841064453125 0.15380859375 2.839599609375 0.2003173828125 Q 2.838134765625 0.246826171875 2.838134765625 0.30908203125 L 2.838134765625 0.785888671875 Q 2.838134765625 0.84814453125 2.839599609375 0.8946533203125 Q 2.841064453125 0.941162109375 2.843994140625 0.974853515625 Q 2.846923828125 1.008544921875 2.8509521484375 1.03125 Q 2.85498046875 1.053955078125 2.859375 1.0693359375 L 2.859375 1.072265625 L 2.68359375 1.072265625 L 2.68359375 1.0693359375 Q 2.68798828125 1.053955078125 2.6920166015625 1.03125 Q 2.696044921875 1.008544921875 2.6986083984375 0.974853515625 Q 2.701171875 0.941162109375 2.7030029296875 0.8946533203125 Q 2.704833984375 0.84814453125 2.704833984375 0.785888671875 L 2.704833984375 0.56982421875 M 3.802734375 1.072265625 L 3.802734375 1.0693359375 Q 3.80419921875 1.065673828125 3.804931640625 1.058349609375 Q 3.8056640625 1.051025390625 3.8056640625 1.045166015625 Q 3.8056640625 1.0224609375 3.7994384765625 0.9949951171875 Q 3.793212890625 0.967529296875 3.775634765625 0.926513671875 L 3.68701171875 0.727294921875 Q 3.64599609375 0.725830078125 3.577880859375 0.725830078125 Q 3.509765625 0.725830078125 3.4306640625 0.725830078125 Q 3.372802734375 0.725830078125 3.3189697265625 0.725830078125 Q 3.26513671875 0.725830078125 3.221923828125 0.727294921875 L 3.1376953125 0.920654296875 Q 3.126708984375 0.94775390625 3.1142578125 0.97998046875 Q 3.101806640625 1.01220703125 3.101806640625 1.045166015625 Q 3.101806640625 1.0546875 3.103271484375 1.0609130859375 Q 3.104736328125 1.067138671875 3.106201171875 1.0693359375 L 3.106201171875 1.072265625 L 2.956787109375 1.072265625 L 2.956787109375 1.0693359375 Q 2.969970703125 1.055419921875 2.98974609375 1.0198974609375 Q 3.009521484375 0.984375 3.032958984375 0.930908203125 L 3.45263671875 0 L 3.51123046875 0 L 3.908935546875 0.89501953125 Q 3.9228515625 0.926513671875 3.9378662109375 0.9561767578125 Q 3.952880859375 0.98583984375 3.966064453125 1.00927734375 Q 3.979248046875 1.03271484375 3.989501953125 1.048828125 Q 3.999755859375 1.06494140625 4.00341796875 1.0693359375 L 4.00341796875 1.072265625 L 3.802734375 1.072265625 M 3.328125 0.662841796875 Q 3.37060546875 0.662841796875 3.415283203125 0.6624755859375 Q 3.4599609375 0.662109375 3.5028076171875 0.6617431640625 Q 3.545654296875 0.661376953125 3.585205078125 0.6610107421875 Q 3.624755859375 0.66064453125 3.656982421875 0.659912109375 L 3.451171875 0.19482421875 L 3.2490234375 0.662841796875 L 3.328125 0.662841796875 M 4.141845703125 0.02197265625 L 4.896240234375 0.82470703125 L 4.896240234375 0.30908203125 Q 4.896240234375 0.246826171875 4.894775390625 0.2003173828125 Q 4.893310546875 0.15380859375 4.890380859375 0.1197509765625 Q 4.887451171875 0.085693359375 4.8834228515625 0.06298828125 Q 4.87939453125 0.040283203125 4.875 0.02490234375 L 4.875 0.02197265625 L 5.00537109375 0.02197265625 L 5.00537109375 0.02490234375 Q 5.0009765625 0.040283203125 4.997314453125 0.06298828125 Q 4.99365234375 0.085693359375 4.99072265625 0.1197509765625 Q 4.98779296875 0.15380859375 4.986328125 0.2003173828125 Q 4.98486328125 0.246826171875 4.98486328125 0.30908203125 L 4.98486328125 1.0869140625 L 4.959228515625 1.0869140625 L 4.204833984375 0.284912109375 L 4.204833984375 0.785888671875 Q 4.204833984375 0.84814453125 4.206298828125 0.8946533203125 Q 4.207763671875 0.941162109375 4.210693359375 0.974853515625 Q 4.213623046875 1.008544921875 4.21728515625 1.03125 Q 4.220947265625 1.053955078125 4.225341796875 1.0693359375 L 4.225341796875 1.072265625 L 4.094970703125 1.072265625 L 4.094970703125 1.0693359375 Q 4.099365234375 1.053955078125 4.1033935546875 1.03125 Q 4.107421875 1.008544921875 4.1103515625 0.974853515625 Q 4.11328125 0.941162109375 4.11474609375 0.8946533203125 Q 4.1162109375 0.84814453125 4.1162109375 0.785888671875 L 4.1162109375 0.30908203125 Q 4.1162109375 0.246826171875 4.11474609375 0.2003173828125 Q 4.11328125 0.15380859375 4.1103515625 0.1197509765625 Q 4.107421875 0.085693359375 4.1033935546875 0.06298828125 Q 4.099365234375 0.040283203125 4.094970703125 0.02490234375 L 4.094970703125 0.02197265625 L 4.141845703125 0.02197265625 M 5.222900390625 1.0693359375 Q 5.227294921875 1.053955078125 5.23095703125 1.03125 Q 5.234619140625 1.008544921875 5.237548828125 0.974853515625 Q 5.240478515625 0.941162109375 5.241943359375 0.8946533203125 Q 5.243408203125 0.84814453125 5.243408203125 0.785888671875 L 5.243408203125 0.30908203125 Q 5.243408203125 0.246826171875 5.241943359375 0.2003173828125 Q 5.240478515625 0.15380859375 5.237548828125 0.1197509765625 Q 5.234619140625 0.085693359375 5.23095703125 0.06298828125 Q 5.227294921875 0.040283203125 5.222900390625 0.02490234375 L 5.222900390625 0.02197265625 L 5.39794921875 0.02197265625 L 5.39794921875 0.02490234375 Q 5.3935546875 0.040283203125 5.3895263671875 0.06298828125 Q 5.385498046875 0.085693359375 5.3829345703125 0.1197509765625 Q 5.38037109375 0.15380859375 5.3785400390625 0.2003173828125 Q 5.376708984375 0.246826171875 5.376708984375 0.30908203125 L 5.376708984375 0.785888671875 Q 5.376708984375 0.84814453125 5.3785400390625 0.8946533203125 Q 5.38037109375 0.941162109375 5.3829345703125 0.974853515625 Q 5.385498046875 1.008544921875 5.3895263671875 1.03125 Q 5.3935546875 1.053955078125 5.39794921875 1.0693359375 L 5.39794921875 1.072265625 L 5.222900390625 1.072265625 L 5.222900390625 1.0693359375 M 6.23876953125 0.0849609375 Q 6.2373046875 0.1669921875 6.23583984375 0.243896484375 Q 6.235107421875 0.27685546875 6.2347412109375 0.311279296875 Q 6.234375 0.345703125 6.2340087890625 0.3790283203125 Q 6.233642578125 0.412353515625 6.2332763671875 0.4427490234375 Q 6.23291015625 0.47314453125 6.23291015625 0.49658203125 Q 6.23291015625 0.545654296875 6.233642578125 0.615234375 Q 6.234375 0.684814453125 6.2354736328125 0.758056640625 Q 6.236572265625 0.831298828125 6.23876953125 0.898681640625 Q 6.240966796875 0.966064453125 6.243896484375 1.0107421875 Q 6.254150390625 1.01220703125 6.2713623046875 1.0140380859375 Q 6.28857421875 1.015869140625 6.3076171875 1.0169677734375 Q 6.32666015625 1.01806640625 6.344970703125 1.018798828125 Q 6.36328125 1.01953125 6.375732421875 1.01953125 Q 6.427001953125 1.01953125 6.4808349609375 1.0125732421875 Q 6.53466796875 1.005615234375 6.5848388671875 0.986572265625 Q 6.635009765625 0.967529296875 6.6793212890625 0.9342041015625 Q 6.7236328125 0.90087890625 6.7569580078125 0.84814453125 Q 6.790283203125 0.79541015625 6.809326171875 0.7210693359375 Q 6.828369140625 0.646728515625 6.828369140625 0.545654296875 Q 6.828369140625 0.43359375 6.80126953125 0.3460693359375 Q 6.774169921875 0.258544921875 6.7218017578125 0.198486328125 Q 6.66943359375 0.138427734375 6.5921630859375 0.1072998046875 Q 6.514892578125 0.076171875 6.41455078125 0.076171875 Q 6.394775390625 0.076171875 6.369873046875 0.0772705078125 Q 6.344970703125 0.078369140625 6.3204345703125 0.0794677734375 Q 6.2958984375 0.08056640625 6.2742919921875 0.0823974609375 Q 6.252685546875 0.084228515625 6.23876953125 0.0849609375 M 6.078369140625 0.01904296875 Q 6.09521484375 0.019775390625 6.10986328125 0.0205078125 Q 6.122314453125 0.021240234375 6.135498046875 0.0216064453125 Q 6.148681640625 0.02197265625 6.15673828125 0.02197265625 Q 6.170654296875 0.02197265625 6.2032470703125 0.0205078125 Q 6.23583984375 0.01904296875 6.277587890625 0.017578125 Q 6.3193359375 0.01611328125 6.3643798828125 0.0146484375 Q 6.409423828125 0.01318359375 6.448974609375 0.01318359375 Q 6.55517578125 0.01318359375 6.651123046875 0.03955078125 Q 6.7470703125 0.06591796875 6.819580078125 0.1259765625 Q 6.89208984375 0.18603515625 6.9345703125 0.283447265625 Q 6.97705078125 0.380859375 6.97705078125 0.52294921875 Q 6.97705078125 0.624755859375 6.9547119140625 0.7060546875 Q 6.932373046875 0.787353515625 6.89208984375 0.849609375 Q 6.851806640625 0.911865234375 6.7957763671875 0.9561767578125 Q 6.73974609375 1.00048828125 6.6719970703125 1.029052734375 Q 6.604248046875 1.0576171875 6.52734375 1.07080078125 Q 6.450439453125 1.083984375 6.368408203125 1.083984375 Q 6.339111328125 1.083984375 6.2977294921875 1.0821533203125 Q 6.25634765625 1.080322265625 6.214599609375 1.078125 Q 6.1728515625 1.075927734375 6.1358642578125 1.0740966796875 Q 6.098876953125 1.072265625 6.078369140625 1.072265625 L 6.078369140625 1.0693359375 Q 6.082763671875 1.053955078125 6.0867919921875 1.03125 Q 6.0908203125 1.008544921875 6.09375 0.974853515625 Q 6.0966796875 0.941162109375 6.09814453125 0.8946533203125 Q 6.099609375 0.84814453125 6.099609375 0.785888671875 L 6.099609375 0.30908203125 Q 6.099609375 0.246826171875 6.09814453125 0.1995849609375 Q 6.0966796875 0.15234375 6.09375 0.1182861328125 Q 6.0908203125 0.084228515625 6.0867919921875 0.060791015625 Q 6.082763671875 0.037353515625 6.078369140625 0.02197265625 L 6.078369140625 0.01904296875 M 7.1630859375 1.0693359375 Q 7.16748046875 1.053955078125 7.171142578125 1.03125 Q 7.1748046875 1.008544921875 7.177734375 0.974853515625 Q 7.1806640625 0.941162109375 7.18212890625 0.8946533203125 Q 7.18359375 0.84814453125 7.18359375 0.785888671875 L 7.18359375 0.30908203125 Q 7.18359375 0.246826171875 7.18212890625 0.2003173828125 Q 7.1806640625 0.15380859375 7.177734375 0.1197509765625 Q 7.1748046875 0.085693359375 7.171142578125 0.06298828125 Q 7.16748046875 0.040283203125 7.1630859375 0.02490234375 L 7.1630859375 0.02197265625 L 7.338134765625 0.02197265625 L 7.338134765625 0.02490234375 Q 7.333740234375 0.040283203125 7.3297119140625 0.06298828125 Q 7.32568359375 0.085693359375 7.3231201171875 0.1197509765625 Q 7.320556640625 0.15380859375 7.3187255859375 0.2003173828125 Q 7.31689453125 0.246826171875 7.31689453125 0.30908203125 L 7.31689453125 0.785888671875 Q 7.31689453125 0.84814453125 7.3187255859375 0.8946533203125 Q 7.320556640625 0.941162109375 7.3231201171875 0.974853515625 Q 7.32568359375 1.008544921875 7.3297119140625 1.03125 Q 7.333740234375 1.053955078125 7.338134765625 1.0693359375 L 7.338134765625 1.072265625 L 7.1630859375 1.072265625 L 7.1630859375 1.0693359375 M 8.48583984375 0.94921875 Q 8.48583984375 0.957275390625 8.4840087890625 0.966064453125 Q 8.482177734375 0.974853515625 8.4755859375 0.980712890625 Q 8.442626953125 1.005615234375 8.4041748046875 1.0264892578125 Q 8.36572265625 1.04736328125 8.321044921875 1.062744140625 Q 8.2763671875 1.078125 8.2247314453125 1.0865478515625 Q 8.173095703125 1.094970703125 8.11376953125 1.094970703125 Q 7.98046875 1.094970703125 7.87060546875 1.0557861328125 Q 7.7607421875 1.0166015625 7.6820068359375 0.94482421875 Q 7.603271484375 0.873046875 7.56005859375 0.7723388671875 Q 7.516845703125 0.671630859375 7.516845703125 0.548583984375 Q 7.516845703125 0.47900390625 7.5347900390625 0.41162109375 Q 7.552734375 0.34423828125 7.587158203125 0.283447265625 Q 7.62158203125 0.22265625 7.672119140625 0.1717529296875 Q 7.72265625 0.120849609375 7.7874755859375 0.08349609375 Q 7.852294921875 0.046142578125 7.9302978515625 0.0252685546875 Q 8.00830078125 0.00439453125 8.09912109375 0.00439453125 Q 8.13427734375 0.00439453125 8.1708984375 0.0076904296875 Q 8.20751953125 0.010986328125 8.243408203125 0.0172119140625 Q 8.279296875 0.0234375 8.3126220703125 0.0322265625 Q 8.345947265625 0.041015625 8.3759765625 0.052001953125 L 8.42578125 0.1875 L 8.419921875 0.1904296875 Q 8.391357421875 0.164794921875 8.35400390625 0.142822265625 Q 8.316650390625 0.120849609375 8.274169921875 0.104736328125 Q 8.231689453125 0.088623046875 8.1851806640625 0.0794677734375 Q 8.138671875 0.0703125 8.091064453125 0.0703125 Q 7.998779296875 0.0703125 7.921875 0.0992431640625 Q 7.844970703125 0.128173828125 7.7896728515625 0.18310546875 Q 7.734375 0.238037109375 7.70361328125 0.31787109375 Q 7.6728515625 0.397705078125 7.6728515625 0.49951171875 Q 7.6728515625 0.611572265625 7.7021484375 0.70751953125 Q 7.7314453125 0.803466796875 7.789306640625 0.873779296875 Q 7.84716796875 0.944091796875 7.9339599609375 0.9840087890625 Q 8.020751953125 1.02392578125 8.136474609375 1.02392578125 Q 8.187744140625 1.02392578125 8.22802734375 1.015869140625 Q 8.268310546875 1.0078125 8.296142578125 0.9957275390625 Q 8.323974609375 0.983642578125 8.3382568359375 0.9693603515625 Q 8.3525390625 0.955078125 8.3525390625 0.943359375 L 8.3525390625 0.914794921875 Q 8.3525390625 0.863525390625 8.35107421875 0.826171875 Q 8.349609375 0.788818359375 8.3466796875 0.7613525390625 Q 8.34375 0.73388671875 8.340087890625 0.714111328125 Q 8.33642578125 0.6943359375 8.331298828125 0.677490234375 L 8.331298828125 0.674560546875 L 8.507080078125 0.674560546875 L 8.507080078125 0.677490234375 Q 8.502685546875 0.69287109375 8.4986572265625 0.7137451171875 Q 8.49462890625 0.734619140625 8.49169921875 0.76318359375 Q 8.48876953125 0.791748046875 8.4873046875 0.8302001953125 Q 8.48583984375 0.86865234375 8.48583984375 0.919189453125 L 8.48583984375 0.94921875 M 8.688720703125 1.0693359375 Q 8.693115234375 1.053955078125 8.69677734375 1.03125 Q 8.700439453125 1.008544921875 8.703369140625 0.974853515625 Q 8.706298828125 0.941162109375 8.707763671875 0.8946533203125 Q 8.709228515625 0.84814453125 8.709228515625 0.785888671875 L 8.709228515625 0.30908203125 Q 8.709228515625 0.246826171875 8.707763671875 0.2003173828125 Q 8.706298828125 0.15380859375 8.703369140625 0.1197509765625 Q 8.700439453125 0.085693359375 8.69677734375 0.06298828125 Q 8.693115234375 0.040283203125 8.688720703125 0.02490234375 L 8.688720703125 0.02197265625 L 8.86376953125 0.02197265625 L 8.86376953125 0.02490234375 Q 8.859375 0.040283203125 8.8553466796875 0.06298828125 Q 8.851318359375 0.085693359375 8.8487548828125 0.1197509765625 Q 8.84619140625 0.15380859375 8.8443603515625 0.2003173828125 Q 8.842529296875 0.246826171875 8.842529296875 0.30908203125 L 8.842529296875 0.785888671875 Q 8.842529296875 0.84814453125 8.8443603515625 0.8946533203125 Q 8.84619140625 0.941162109375 8.8487548828125 0.974853515625 Q 8.851318359375 1.008544921875 8.8553466796875 1.03125 Q 8.859375 1.053955078125 8.86376953125 1.0693359375 L 8.86376953125 1.072265625 L 8.688720703125 1.072265625 L 8.688720703125 1.0693359375 M 9.36328125 0.08642578125 Q 9.27685546875 0.08642578125 9.207275390625 0.0941162109375 Q 9.1376953125 0.101806640625 9.087158203125 0.110595703125 Q 9.028564453125 0.12158203125 8.982421875 0.134765625 L 9.003662109375 0.01611328125 Q 9.012451171875 0.016845703125 9.030029296875 0.017578125 Q 9.047607421875 0.018310546875 9.0692138671875 0.01904296875 Q 9.0908203125 0.019775390625 9.1146240234375 0.0201416015625 Q 9.138427734375 0.0205078125 9.15966796875 0.0208740234375 Q 9.180908203125 0.021240234375 9.1973876953125 0.0216064453125 Q 9.2138671875 0.02197265625 9.22119140625 0.02197265625 L 9.639404296875 0.02197265625 Q 9.646728515625 0.02197265625 9.6632080078125 0.0216064453125 Q 9.6796875 0.021240234375 9.700927734375 0.0208740234375 Q 9.72216796875 0.0205078125 9.7459716796875 0.0201416015625 Q 9.769775390625 0.019775390625 9.7913818359375 0.01904296875 Q 9.81298828125 0.018310546875 9.83056640625 0.017578125 Q 9.84814453125 0.016845703125 9.85693359375 0.01611328125 L 9.878173828125 0.134765625 Q 9.831298828125 0.12158203125 9.772705078125 0.110595703125 Q 9.72216796875 0.101806640625 9.652587890625 0.0941162109375 Q 9.5830078125 0.08642578125 9.49658203125 0.08642578125 L 9.49658203125 0.785888671875 Q 9.49658203125 0.84814453125 9.4984130859375 0.8946533203125 Q 9.500244140625 0.941162109375 9.5028076171875 0.974853515625 Q 9.50537109375 1.008544921875 9.5093994140625 1.03125 Q 9.513427734375 1.053955078125 9.517822265625 1.0693359375 L 9.517822265625 1.072265625 L 9.3427734375 1.072265625 L 9.3427734375 1.0693359375 Q 9.34716796875 1.053955078125 9.350830078125 1.03125 Q 9.3544921875 1.008544921875 9.357421875 0.974853515625 Q 9.3603515625 0.941162109375 9.36181640625 0.8946533203125 Q 9.36328125 0.84814453125 9.36328125 0.785888671875 L 9.36328125 0.08642578125 M 10.64208984375 1.072265625 L 10.64208984375 1.0693359375 Q 10.6435546875 1.065673828125 10.644287109375 1.058349609375 Q 10.64501953125 1.051025390625 10.64501953125 1.045166015625 Q 10.64501953125 1.0224609375 10.6387939453125 0.9949951171875 Q 10.632568359375 0.967529296875 10.614990234375 0.926513671875 L 10.5263671875 0.727294921875 Q 10.4853515625 0.725830078125 10.417236328125 0.725830078125 Q 10.34912109375 0.725830078125 10.27001953125 0.725830078125 Q 10.212158203125 0.725830078125 10.1583251953125 0.725830078125 Q 10.1044921875 0.725830078125 10.061279296875 0.727294921875 L 9.97705078125 0.920654296875 Q 9.966064453125 0.94775390625 9.95361328125 0.97998046875 Q 9.941162109375 1.01220703125 9.941162109375 1.045166015625 Q 9.941162109375 1.0546875 9.942626953125 1.0609130859375 Q 9.944091796875 1.067138671875 9.945556640625 1.0693359375 L 9.945556640625 1.072265625 L 9.796142578125 1.072265625 L 9.796142578125 1.0693359375 Q 9.809326171875 1.055419921875 9.8291015625 1.0198974609375 Q 9.848876953125 0.984375 9.872314453125 0.930908203125 L 10.2919921875 0 L 10.3505859375 0 L 10.748291015625 0.89501953125 Q 10.76220703125 0.926513671875 10.7772216796875 0.9561767578125 Q 10.792236328125 0.98583984375 10.805419921875 1.00927734375 Q 10.818603515625 1.03271484375 10.828857421875 1.048828125 Q 10.839111328125 1.06494140625 10.8427734375 1.0693359375 L 10.8427734375 1.072265625 L 10.64208984375 1.072265625 M 10.16748046875 0.662841796875 Q 10.2099609375 0.662841796875 10.254638671875 0.6624755859375 Q 10.29931640625 0.662109375 10.3421630859375 0.6617431640625 Q 10.385009765625 0.661376953125 10.424560546875 0.6610107421875 Q 10.464111328125 0.66064453125 10.496337890625 0.659912109375 L 10.29052734375 0.19482421875 L 10.08837890625 0.662841796875 L 10.16748046875 0.662841796875 M 11.0947265625 1.0078125 Q 11.18115234375 1.0078125 11.253662109375 1.00048828125 Q 11.326171875 0.9931640625 11.38037109375 0.983642578125 Q 11.443359375 0.973388671875 11.495361328125 0.95947265625 L 11.47412109375 1.078125 Q 11.46533203125 1.077392578125 11.44775390625 1.07666015625 Q 11.43017578125 1.075927734375 11.4085693359375 1.0751953125 Q 11.386962890625 1.074462890625 11.3631591796875 1.0740966796875 Q 11.33935546875 1.07373046875 11.318115234375 1.0733642578125 Q 11.296875 1.072998046875 11.2803955078125 1.0726318359375 Q 11.263916015625 1.072265625 11.256591796875 1.072265625 L 10.940185546875 1.072265625 L 10.940185546875 1.0693359375 Q 10.944580078125 1.053955078125 10.9486083984375 1.03125 Q 10.95263671875 1.008544921875 10.95556640625 0.974853515625 Q 10.95849609375 0.941162109375 10.9599609375 0.8946533203125 Q 10.96142578125 0.84814453125 10.96142578125 0.785888671875 L 10.96142578125 0.30908203125 Q 10.96142578125 0.246826171875 10.9599609375 0.2003173828125 Q 10.95849609375 0.15380859375 10.95556640625 0.1197509765625 Q 10.95263671875 0.085693359375 10.9486083984375 0.06298828125 Q 10.944580078125 0.040283203125 10.940185546875 0.02490234375 L 10.940185546875 0.02197265625 L 11.115966796875 0.02197265625 L 11.115966796875 0.02490234375 Q 11.111572265625 0.040283203125 11.1075439453125 0.06298828125 Q 11.103515625 0.085693359375 11.1009521484375 0.1197509765625 Q 11.098388671875 0.15380859375 11.0965576171875 0.2003173828125 Q 11.0947265625 0.246826171875 11.0947265625 0.30908203125 L 11.0947265625 1.0078125 M 1.461181640625 2.464306640625 Q 1.46923828125 2.452587890625 1.4794921875 2.4295166015625 Q 1.48974609375 2.4064453125 1.49560546875 2.3712890625 Q 1.503662109375 2.32001953125 1.5135498046875 2.2559326171875 Q 1.5234375 2.191845703125 1.5340576171875 2.121533203125 Q 1.544677734375 2.051220703125 1.5552978515625 1.9776123046874998 Q 1.56591796875 1.9040039062499998 1.5758056640625 1.8325927734374998 Q 1.585693359375 1.7611816406249998 1.5948486328125 1.6948974609374998 Q 1.60400390625 1.6286132812499998 1.611328125 1.5736816406249998 Q 1.61865234375 1.5187499999999998 1.6234130859375 1.4781005859374998 Q 1.628173828125 1.4374511718749998 1.63037109375 1.4169433593749998 L 1.723388671875 1.4169433593749998 L 2.18408203125 2.278271484375 L 2.64111328125 1.4169433593749998 L 2.710693359375 1.4169433593749998 L 2.830810546875 2.287060546875 Q 2.8359375 2.328076171875 2.841796875 2.357373046875 Q 2.84765625 2.386669921875 2.853515625 2.4075439453125 Q 2.859375 2.42841796875 2.8648681640625 2.4419677734375 Q 2.870361328125 2.455517578125 2.87548828125 2.464306640625 L 2.87548828125 2.467236328125 L 2.69091796875 2.467236328125 L 2.69091796875 2.464306640625 Q 2.694580078125 2.45625 2.6978759765625 2.437939453125 Q 2.701171875 2.41962890625 2.701171875 2.393994140625 Q 2.701171875 2.38447265625 2.700439453125 2.3745849609375 Q 2.69970703125 2.364697265625 2.6982421875 2.352978515625 L 2.605224609375 1.6513183593749998 L 2.173095703125 2.464306640625 L 2.12255859375 2.458447265625 L 1.6875 1.6439941406249998 Q 1.661865234375 1.8175781249999998 1.642822265625 1.9647949218749998 Q 1.634765625 2.027783203125 1.626708984375 2.0904052734375 Q 1.61865234375 2.15302734375 1.6124267578125 2.2072265625 Q 1.606201171875 2.26142578125 1.6025390625 2.3028076171875 Q 1.598876953125 2.344189453125 1.598876953125 2.36396484375 Q 1.598876953125 2.3888671875 1.600341796875 2.40791015625 Q 1.601806640625 2.426953125 1.603271484375 2.44013671875 Q 1.60546875 2.455517578125 1.607666015625 2.467236328125 L 1.461181640625 2.467236328125 L 1.461181640625 2.464306640625 M 3.774169921875 2.467236328125 L 3.774169921875 2.464306640625 Q 3.775634765625 2.46064453125 3.7763671875 2.4533203125 Q 3.777099609375 2.44599609375 3.777099609375 2.44013671875 Q 3.777099609375 2.417431640625 3.7708740234375 2.3899658203125 Q 3.7646484375 2.3625 3.7470703125 2.321484375 L 3.658447265625 2.122265625 Q 3.617431640625 2.12080078125 3.54931640625 2.12080078125 Q 3.481201171875 2.12080078125 3.402099609375 2.12080078125 Q 3.34423828125 2.12080078125 3.2904052734375 2.12080078125 Q 3.236572265625 2.12080078125 3.193359375 2.122265625 L 3.109130859375 2.315625 Q 3.09814453125 2.342724609375 3.085693359375 2.374951171875 Q 3.0732421875 2.407177734375 3.0732421875 2.44013671875 Q 3.0732421875 2.449658203125 3.07470703125 2.4558837890625 Q 3.076171875 2.462109375 3.07763671875 2.464306640625 L 3.07763671875 2.467236328125 L 2.92822265625 2.467236328125 L 2.92822265625 2.464306640625 Q 2.94140625 2.450390625 2.961181640625 2.4148681640625 Q 2.98095703125 2.379345703125 3.00439453125 2.32587890625 L 3.424072265625 1.3949707031249998 L 3.482666015625 1.3949707031249998 L 3.88037109375 2.289990234375 Q 3.894287109375 2.321484375 3.9093017578125 2.3511474609375 Q 3.92431640625 2.380810546875 3.9375 2.404248046875 Q 3.95068359375 2.427685546875 3.9609375 2.443798828125 Q 3.97119140625 2.459912109375 3.974853515625 2.464306640625 L 3.974853515625 2.467236328125 L 3.774169921875 2.467236328125 M 3.299560546875 2.0578125 Q 3.342041015625 2.0578125 3.38671875 2.0574462890625 Q 3.431396484375 2.057080078125 3.4742431640625 2.0567138671875 Q 3.51708984375 2.05634765625 3.556640625 2.0559814453125 Q 3.59619140625 2.055615234375 3.62841796875 2.0548828125 L 3.422607421875 1.5897949218749998 L 3.220458984375 2.0578125 L 3.299560546875 2.0578125 M 4.226806640625 2.180859375 Q 4.226806640625 2.243115234375 4.2286376953125 2.2896240234375 Q 4.23046875 2.3361328125 4.2330322265625 2.36982421875 Q 4.235595703125 2.403515625 4.2396240234375 2.426220703125 Q 4.24365234375 2.44892578125 4.248046875 2.464306640625 L 4.248046875 2.467236328125 L 4.072265625 2.467236328125 L 4.072265625 2.464306640625 Q 4.07666015625 2.44892578125 4.0806884765625 2.426220703125 Q 4.084716796875 2.403515625 4.0872802734375 2.36982421875 Q 4.08984375 2.3361328125 4.0916748046875 2.289990234375 Q 4.093505859375 2.24384765625 4.093505859375 2.180859375 L 4.093505859375 1.7040527343749998 Q 4.093505859375 1.6417968749999998 4.0916748046875 1.5952880859374998 Q 4.08984375 1.5487792968749998 4.0872802734375 1.5150878906249998 Q 4.084716796875 1.4813964843749998 4.0806884765625 1.4583251953124998 Q 4.07666015625 1.4352539062499998 4.072265625 1.4198730468749998 L 4.072265625 1.4169433593749998 L 4.10302734375 1.4198730468749998 Q 4.116943359375 1.4213378906249998 4.1341552734375 1.4217041015624998 Q 4.1513671875 1.4220703124999998 4.169677734375 1.4220703124999998 Q 4.1982421875 1.4220703124999998 4.2469482421875 1.4151123046874998 Q 4.295654296875 1.4081542968749998 4.37109375 1.4081542968749998 Q 4.44140625 1.4081542968749998 4.5010986328125 1.4271972656249998 Q 4.560791015625 1.4462402343749998 4.604736328125 1.4828613281249998 Q 4.648681640625 1.5194824218749998 4.6732177734375 1.5725830078124998 Q 4.69775390625 1.6256835937499998 4.69775390625 1.6930664062499998 Q 4.69775390625 1.7458007812499998 4.6842041015625 1.7908447265624998 Q 4.670654296875 1.8358886718749998 4.6461181640625 1.8725097656249998 Q 4.62158203125 1.9091308593749998 4.587158203125 1.9373291015624998 Q 4.552734375 1.9655273437499998 4.51025390625 1.9845703124999998 L 4.767333984375 2.345654296875 Q 4.786376953125 2.37275390625 4.8028564453125 2.392529296875 Q 4.8193359375 2.4123046875 4.8343505859375 2.4265869140625 Q 4.849365234375 2.440869140625 4.86328125 2.4500244140625 Q 4.877197265625 2.4591796875 4.891845703125 2.464306640625 L 4.891845703125 2.467236328125 L 4.68017578125 2.467236328125 Q 4.677978515625 2.4533203125 4.6658935546875 2.4302490234375 Q 4.65380859375 2.407177734375 4.6376953125 2.38447265625 L 4.37841796875 2.018994140625 Q 4.361572265625 2.020458984375 4.3447265625 2.0215576171875 Q 4.327880859375 2.02265625 4.310302734375 2.02265625 Q 4.289794921875 2.02265625 4.2689208984375 2.02119140625 Q 4.248046875 2.0197265625 4.226806640625 2.016064453125 L 4.226806640625 2.180859375 M 4.226806640625 1.9589355468749998 Q 4.24658203125 1.9633300781249998 4.26708984375 1.9651611328124998 Q 4.28759765625 1.9669921874999998 4.306640625 1.9669921874999998 Q 4.361572265625 1.9669921874999998 4.406982421875 1.9505126953124998 Q 4.452392578125 1.9340332031249998 4.4842529296875 1.9003417968749998 Q 4.51611328125 1.8666503906249998 4.53369140625 1.8164794921874998 Q 4.55126953125 1.7663085937499998 4.55126953125 1.6989257812499998 Q 4.55126953125 1.6439941406249998 4.538818359375 1.5993164062499998 Q 4.5263671875 1.5546386718749998 4.5018310546875 1.5235107421874998 Q 4.477294921875 1.4923828124999998 4.43994140625 1.4751708984374998 Q 4.402587890625 1.4579589843749998 4.352783203125 1.4579589843749998 Q 4.30224609375 1.4579589843749998 4.272216796875 1.4630859374999998 Q 4.2421875 1.4682128906249998 4.226806640625 1.4740722656249998 L 4.226806640625 1.9589355468749998 M 4.9658203125 2.464306640625 Q 4.97021484375 2.44892578125 4.9742431640625 2.426220703125 Q 4.978271484375 2.403515625 4.981201171875 2.36982421875 Q 4.984130859375 2.3361328125 4.985595703125 2.2896240234375 Q 4.987060546875 2.243115234375 4.987060546875 2.180859375 L 4.987060546875 1.7040527343749998 Q 4.987060546875 1.6417968749999998 4.985595703125 1.5952880859374998 Q 4.984130859375 1.5487792968749998 4.981201171875 1.5147216796874998 Q 4.978271484375 1.4806640624999998 4.9742431640625 1.4579589843749998 Q 4.97021484375 1.4352539062499998 4.9658203125 1.4198730468749998 L 4.9658203125 1.4169433593749998 L 5.1416015625 1.4169433593749998 L 5.1416015625 1.4198730468749998 Q 5.13720703125 1.4352539062499998 5.1331787109375 1.4579589843749998 Q 5.129150390625 1.4806640624999998 5.1265869140625 1.5147216796874998 Q 5.1240234375 1.5487792968749998 5.1221923828125 1.5952880859374998 Q 5.120361328125 1.6417968749999998 5.120361328125 1.7040527343749998 L 5.120361328125 1.8673828124999998 L 5.548095703125 1.5180175781249998 Q 5.619873046875 1.4594238281249998 5.619873046875 1.4169433593749998 L 5.82568359375 1.4169433593749998 L 5.82568359375 1.4198730468749998 Q 5.782470703125 1.4301269531249998 5.7381591796875 1.4590576171874998 Q 5.69384765625 1.4879882812499998 5.64404296875 1.5297363281249998 L 5.26611328125 1.8461425781249998 L 5.720947265625 2.345654296875 Q 5.74951171875 2.374951171875 5.7696533203125 2.3943603515625 Q 5.789794921875 2.41376953125 5.80517578125 2.4265869140625 Q 5.820556640625 2.439404296875 5.8333740234375 2.4478271484375 Q 5.84619140625 2.45625 5.860107421875 2.464306640625 L 5.860107421875 2.467236328125 L 5.6455078125 2.467236328125 Q 5.642578125 2.46064453125 5.6356201171875 2.450390625 Q 5.628662109375 2.44013671875 5.6195068359375 2.429150390625 Q 5.6103515625 2.4181640625 5.5997314453125 2.4064453125 Q 5.589111328125 2.3947265625 5.57958984375 2.38447265625 L 5.120361328125 1.8805664062499998 L 5.120361328125 2.180859375 Q 5.120361328125 2.243115234375 5.1221923828125 2.2896240234375 Q 5.1240234375 2.3361328125 5.1265869140625 2.36982421875 Q 5.129150390625 2.403515625 5.1331787109375 2.426220703125 Q 5.13720703125 2.44892578125 5.1416015625 2.464306640625 L 5.1416015625 2.467236328125 L 4.9658203125 2.467236328125 L 4.9658203125 2.464306640625 M 5.942138671875 1.4169433593749998 Q 6.03369140625 1.4169433593749998 6.1241455078125 1.4162109374999998 Q 6.214599609375 1.4154785156249998 6.2900390625 1.4143798828124998 Q 6.365478515625 1.4132812499999998 6.4189453125 1.4110839843749998 Q 6.472412109375 1.4088867187499998 6.491455078125 1.4052246093749998 L 6.45556640625 1.5026367187499998 Q 6.431396484375 1.4960449218749998 6.399169921875 1.4909179687499998 Q 6.371337890625 1.4865234374999998 6.3314208984375 1.4824951171874998 Q 6.29150390625 1.4784667968749998 6.239501953125 1.4784667968749998 Q 6.221923828125 1.4784667968749998 6.1973876953125 1.4795654296874998 Q 6.1728515625 1.4806640624999998 6.150146484375 1.4821289062499998 Q 6.123779296875 1.4835937499999998 6.0966796875 1.4850585937499998 L 6.0966796875 1.8849609374999998 Q 6.172119140625 1.8842285156249998 6.23291015625 1.8805664062499998 Q 6.293701171875 1.8769042968749998 6.336181640625 1.8732421874999998 Q 6.385986328125 1.8688476562499998 6.424072265625 1.8629882812499998 L 6.4013671875 1.9691894531249998 Q 6.350830078125 1.9625976562499998 6.298095703125 1.9567382812499998 Q 6.252685546875 1.9516113281249998 6.19921875 1.9475830078124998 Q 6.145751953125 1.9435546874999998 6.0966796875 1.9435546874999998 L 6.0966796875 2.402783203125 Q 6.18310546875 2.402783203125 6.255615234375 2.395458984375 Q 6.328125 2.388134765625 6.38232421875 2.37861328125 Q 6.4453125 2.368359375 6.497314453125 2.354443359375 L 6.47607421875 2.473095703125 Q 6.46728515625 2.47236328125 6.44970703125 2.471630859375 Q 6.43212890625 2.4708984375 6.4105224609375 2.470166015625 Q 6.388916015625 2.46943359375 6.3651123046875 2.4690673828125 Q 6.34130859375 2.468701171875 6.320068359375 2.4683349609375 Q 6.298828125 2.46796875 6.2823486328125 2.4676025390625 Q 6.265869140625 2.467236328125 6.258544921875 2.467236328125 L 5.942138671875 2.467236328125 L 5.942138671875 2.464306640625 Q 5.946533203125 2.44892578125 5.9505615234375 2.426220703125 Q 5.95458984375 2.403515625 5.95751953125 2.36982421875 Q 5.96044921875 2.3361328125 5.9619140625 2.2896240234375 Q 5.96337890625 2.243115234375 5.96337890625 2.180859375 L 5.96337890625 1.7040527343749998 Q 5.96337890625 1.6417968749999998 5.9619140625 1.5952880859374998 Q 5.96044921875 1.5487792968749998 5.95751953125 1.5147216796874998 Q 5.95458984375 1.4806640624999998 5.9505615234375 1.4579589843749998 Q 5.946533203125 1.4352539062499998 5.942138671875 1.4198730468749998 L 5.942138671875 1.4169433593749998 L 5.942138671875 1.4169433593749998 M 6.9609375 1.4813964843749998 Q 6.87451171875 1.4813964843749998 6.804931640625 1.4890869140624998 Q 6.7353515625 1.4967773437499998 6.684814453125 1.5055664062499998 Q 6.626220703125 1.5165527343749998 6.580078125 1.5297363281249998 L 6.601318359375 1.4110839843749998 Q 6.610107421875 1.4118164062499998 6.627685546875 1.4125488281249998 Q 6.645263671875 1.4132812499999998 6.6668701171875 1.4140136718749998 Q 6.6884765625 1.4147460937499998 6.7122802734375 1.4151123046874998 Q 6.736083984375 1.4154785156249998 6.75732421875 1.4158447265624998 Q 6.778564453125 1.4162109374999998 6.7950439453125 1.4165771484374998 Q 6.8115234375 1.4169433593749998 6.81884765625 1.4169433593749998 L 7.237060546875 1.4169433593749998 Q 7.244384765625 1.4169433593749998 7.2608642578125 1.4165771484374998 Q 7.27734375 1.4162109374999998 7.298583984375 1.4158447265624998 Q 7.31982421875 1.4154785156249998 7.3436279296875 1.4151123046874998 Q 7.367431640625 1.4147460937499998 7.3890380859375 1.4140136718749998 Q 7.41064453125 1.4132812499999998 7.42822265625 1.4125488281249998 Q 7.44580078125 1.4118164062499998 7.45458984375 1.4110839843749998 L 7.475830078125 1.5297363281249998 Q 7.428955078125 1.5165527343749998 7.370361328125 1.5055664062499998 Q 7.31982421875 1.4967773437499998 7.250244140625 1.4890869140624998 Q 7.1806640625 1.4813964843749998 7.09423828125 1.4813964843749998 L 7.09423828125 2.180859375 Q 7.09423828125 2.243115234375 7.0960693359375 2.2896240234375 Q 7.097900390625 2.3361328125 7.1004638671875 2.36982421875 Q 7.10302734375 2.403515625 7.1070556640625 2.426220703125 Q 7.111083984375 2.44892578125 7.115478515625 2.464306640625 L 7.115478515625 2.467236328125 L 6.9404296875 2.467236328125 L 6.9404296875 2.464306640625 Q 6.94482421875 2.44892578125 6.948486328125 2.426220703125 Q 6.9521484375 2.403515625 6.955078125 2.36982421875 Q 6.9580078125 2.3361328125 6.95947265625 2.2896240234375 Q 6.9609375 2.243115234375 6.9609375 2.180859375 L 6.9609375 1.4813964843749998 M 7.594482421875 2.464306640625 Q 7.598876953125 2.44892578125 7.6025390625 2.426220703125 Q 7.606201171875 2.403515625 7.609130859375 2.36982421875 Q 7.612060546875 2.3361328125 7.613525390625 2.2896240234375 Q 7.614990234375 2.243115234375 7.614990234375 2.180859375 L 7.614990234375 1.7040527343749998 Q 7.614990234375 1.6417968749999998 7.613525390625 1.5952880859374998 Q 7.612060546875 1.5487792968749998 7.609130859375 1.5147216796874998 Q 7.606201171875 1.4806640624999998 7.6025390625 1.4579589843749998 Q 7.598876953125 1.4352539062499998 7.594482421875 1.4198730468749998 L 7.594482421875 1.4169433593749998 L 7.76953125 1.4169433593749998 L 7.76953125 1.4198730468749998 Q 7.76513671875 1.4352539062499998 7.7611083984375 1.4579589843749998 Q 7.757080078125 1.4806640624999998 7.7545166015625 1.5147216796874998 Q 7.751953125 1.5487792968749998 7.7501220703125 1.5952880859374998 Q 7.748291015625 1.6417968749999998 7.748291015625 1.7040527343749998 L 7.748291015625 2.180859375 Q 7.748291015625 2.243115234375 7.7501220703125 2.2896240234375 Q 7.751953125 2.3361328125 7.7545166015625 2.36982421875 Q 7.757080078125 2.403515625 7.7611083984375 2.426220703125 Q 7.76513671875 2.44892578125 7.76953125 2.464306640625 L 7.76953125 2.467236328125 L 7.594482421875 2.467236328125 L 7.594482421875 2.464306640625 M 8.033935546875 1.4169433593749998 L 8.788330078125 2.219677734375 L 8.788330078125 1.7040527343749998 Q 8.788330078125 1.6417968749999998 8.786865234375 1.5952880859374998 Q 8.785400390625 1.5487792968749998 8.782470703125 1.5147216796874998 Q 8.779541015625 1.4806640624999998 8.7755126953125 1.4579589843749998 Q 8.771484375 1.4352539062499998 8.76708984375 1.4198730468749998 L 8.76708984375 1.4169433593749998 L 8.8974609375 1.4169433593749998 L 8.8974609375 1.4198730468749998 Q 8.89306640625 1.4352539062499998 8.889404296875 1.4579589843749998 Q 8.8857421875 1.4806640624999998 8.8828125 1.5147216796874998 Q 8.8798828125 1.5487792968749998 8.87841796875 1.5952880859374998 Q 8.876953125 1.6417968749999998 8.876953125 1.7040527343749998 L 8.876953125 2.481884765625 L 8.851318359375 2.481884765625 L 8.096923828125 1.6798828124999998 L 8.096923828125 2.180859375 Q 8.096923828125 2.243115234375 8.098388671875 2.2896240234375 Q 8.099853515625 2.3361328125 8.102783203125 2.36982421875 Q 8.105712890625 2.403515625 8.109375 2.426220703125 Q 8.113037109375 2.44892578125 8.117431640625 2.464306640625 L 8.117431640625 2.467236328125 L 7.987060546875 2.467236328125 L 7.987060546875 2.464306640625 Q 7.991455078125 2.44892578125 7.9954833984375 2.426220703125 Q 7.99951171875 2.403515625 8.00244140625 2.36982421875 Q 8.00537109375 2.3361328125 8.0068359375 2.2896240234375 Q 8.00830078125 2.243115234375 8.00830078125 2.180859375 L 8.00830078125 1.7040527343749998 Q 8.00830078125 1.6417968749999998 8.0068359375 1.5952880859374998 Q 8.00537109375 1.5487792968749998 8.00244140625 1.5147216796874998 Q 7.99951171875 1.4806640624999998 7.9954833984375 1.4579589843749998 Q 7.991455078125 1.4352539062499998 7.987060546875 1.4198730468749998 L 7.987060546875 1.4169433593749998 L 8.033935546875 1.4169433593749998 M 10.03271484375 2.344189453125 Q 10.03271484375 2.35224609375 10.0308837890625 2.36103515625 Q 10.029052734375 2.36982421875 10.0224609375 2.37568359375 Q 9.989501953125 2.4005859375 9.9510498046875 2.4214599609375 Q 9.91259765625 2.442333984375 9.867919921875 2.45771484375 Q 9.8232421875 2.473095703125 9.7716064453125 2.4815185546875 Q 9.719970703125 2.48994140625 9.66064453125 2.48994140625 Q 9.52734375 2.48994140625 9.41748046875 2.4507568359375 Q 9.3076171875 2.411572265625 9.2288818359375 2.339794921875 Q 9.150146484375 2.268017578125 9.10693359375 2.1673095703125 Q 9.063720703125 2.0666015625 9.063720703125 1.9435546874999998 Q 9.063720703125 1.8739746093749998 9.0816650390625 1.8065917968749998 Q 9.099609375 1.7392089843749998 9.134033203125 1.6784179687499998 Q 9.16845703125 1.6176269531249998 9.218994140625 1.5667236328124998 Q 9.26953125 1.5158203124999998 9.3343505859375 1.4784667968749998 Q 9.399169921875 1.4411132812499998 9.4771728515625 1.4202392578124998 Q 9.55517578125 1.3993652343749998 9.64599609375 1.3993652343749998 Q 9.68115234375 1.3993652343749998 9.7177734375 1.4026611328124998 Q 9.75439453125 1.4059570312499998 9.790283203125 1.4121826171874998 Q 9.826171875 1.4184082031249998 9.8594970703125 1.4271972656249998 Q 9.892822265625 1.4359863281249998 9.9228515625 1.4469726562499998 L 9.97265625 1.5824707031249998 L 9.966796875 1.5854003906249998 Q 9.938232421875 1.5597656249999998 9.90087890625 1.5377929687499998 Q 9.863525390625 1.5158203124999998 9.821044921875 1.4997070312499998 Q 9.778564453125 1.4835937499999998 9.7320556640625 1.4744384765624998 Q 9.685546875 1.4652832031249998 9.637939453125 1.4652832031249998 Q 9.545654296875 1.4652832031249998 9.46875 1.4942138671874998 Q 9.391845703125 1.5231445312499998 9.3365478515625 1.5780761718749998 Q 9.28125 1.6330078124999998 9.25048828125 1.7128417968749998 Q 9.2197265625 1.7926757812499998 9.2197265625 1.8944824218749998 Q 9.2197265625 2.00654296875 9.2490234375 2.102490234375 Q 9.2783203125 2.1984375 9.336181640625 2.26875 Q 9.39404296875 2.3390625 9.4808349609375 2.3789794921875 Q 9.567626953125 2.418896484375 9.683349609375 2.418896484375 Q 9.734619140625 2.418896484375 9.77490234375 2.41083984375 Q 9.815185546875 2.402783203125 9.843017578125 2.3906982421875 Q 9.870849609375 2.37861328125 9.8851318359375 2.3643310546875 Q 9.8994140625 2.350048828125 9.8994140625 2.338330078125 L 9.8994140625 2.309765625 Q 9.8994140625 2.25849609375 9.89794921875 2.221142578125 Q 9.896484375 2.1837890625 9.8935546875 2.1563232421875 Q 9.890625 2.128857421875 9.886962890625 2.10908203125 Q 9.88330078125 2.089306640625 9.878173828125 2.0724609375 L 9.878173828125 2.06953125 L 10.053955078125 2.06953125 L 10.053955078125 2.0724609375 Q 10.049560546875 2.087841796875 10.0455322265625 2.1087158203125 Q 10.04150390625 2.12958984375 10.03857421875 2.158154296875 Q 10.03564453125 2.18671875 10.0341796875 2.2251708984375 Q 10.03271484375 2.263623046875 10.03271484375 2.31416015625 L 10.03271484375 2.344189453125" fill="#ffffff" fill-rule="nonzero"></path></g><g><path d=" M 1.5693644714355472 3.07832666015625 L 1.4456144714355472 3.07832666015625 L 1.4456144714355472 3.1039516601562496 L 1.5156144714355473 3.1039516601562496 L 1.5156144714355473 3.2170766601562497 Q 1.487489471435547 3.2352016601562497 1.4581144714355472 3.2439516601562497 Q 1.4287394714355472 3.2527016601562497 1.3912394714355472 3.2527016601562497 Q 1.3418644714355472 3.2527016601562497 1.3049894714355472 3.2377016601562496 Q 1.2681144714355472 3.2227016601562495 1.2437394714355472 3.1961391601562497 Q 1.2193644714355472 3.16957666015625 1.2071769714355471 3.13301416015625 Q 1.1949894714355471 3.0964516601562497 1.1949894714355471 3.0527016601562496 Q 1.1949894714355471 3.0095766601562497 1.2065519714355473 2.97332666015625 Q 1.2181144714355472 2.9370766601562495 1.2412394714355472 2.91082666015625 Q 1.2643644714355473 2.8845766601562497 1.2978019714355473 2.8702016601562494 Q 1.3312394714355473 2.8558266601562496 1.3756144714355472 2.8558266601562496 Q 1.4049894714355473 2.8558266601562496 1.4306144714355473 2.8620766601562497 Q 1.456239471435547 2.8683266601562494 1.4762394714355471 2.8783266601562496 Q 1.4962394714355471 2.88832666015625 1.5090519714355473 2.9011391601562497 Q 1.5218644714355474 2.9139516601562496 1.5256144714355473 2.9270766601562497 L 1.5706144714355472 2.9270766601562497 Q 1.5649894714355472 2.9133266601562497 1.5515519714355472 2.89613916015625 Q 1.5381144714355472 2.8789516601562495 1.5149894714355472 2.86395166015625 Q 1.4918644714355471 2.8489516601562497 1.4578019714355472 2.8386391601562497 Q 1.4237394714355474 2.82832666015625 1.3774894714355472 2.82832666015625 Q 1.3243644714355471 2.82832666015625 1.2796769714355472 2.8433266601562495 Q 1.2349894714355472 2.8583266601562496 1.2024894714355472 2.8864516601562498 Q 1.1699894714355472 2.9145766601562495 1.1518644714355473 2.9555141601562496 Q 1.1337394714355473 2.9964516601562496 1.1337394714355473 3.0483266601562495 Q 1.1337394714355473 3.0927016601562496 1.1478019714355472 3.1342641601562495 Q 1.1618644714355473 3.1758266601562495 1.1909269714355473 3.20863916015625 Q 1.2199894714355473 3.2414516601562497 1.2649894714355472 3.2611391601562496 Q 1.3099894714355473 3.2808266601562495 1.3724894714355473 3.2808266601562495 Q 1.4193644714355473 3.2808266601562495 1.4556144714355472 3.2705141601562495 Q 1.4918644714355471 3.2602016601562496 1.5156144714355473 3.24770166015625 L 1.5156144714355473 3.2733266601562496 L 1.5693644714355472 3.2733266601562496 L 1.5693644714355472 3.07832666015625 M 1.6631248474121099 2.9608266601562496 L 1.6631248474121099 3.2733266601562496 L 1.7162498474121097 3.2733266601562496 L 1.7162498474121097 3.0845766601562494 Q 1.7162498474121097 3.0589516601562496 1.7221873474121099 3.0411391601562494 Q 1.7281248474121098 3.0233266601562496 1.7374998474121097 3.0120766601562496 Q 1.7468748474121099 3.0008266601562497 1.7581248474121098 2.9958266601562498 Q 1.7693748474121098 2.9908266601562494 1.77999984741211 2.9908266601562494 Q 1.7943748474121097 2.9908266601562494 1.8065623474121097 3.00020166015625 Q 1.8187498474121098 3.0095766601562497 1.8243748474121098 3.0177016601562494 L 1.8456248474121097 2.9789516601562496 Q 1.8399998474121098 2.9714516601562497 1.8321873474121098 2.96645166015625 Q 1.8243748474121098 2.9614516601562495 1.8165623474121098 2.95863916015625 Q 1.8087498474121098 2.9558266601562497 1.8021873474121097 2.9548891601562497 Q 1.79562484741211 2.9539516601562497 1.7924998474121099 2.9539516601562497 Q 1.7662498474121098 2.9539516601562497 1.74874984741211 2.9683266601562495 Q 1.7312498474121099 2.9827016601562497 1.7199998474121099 3.0108266601562494 L 1.7162498474121097 3.0108266601562494 L 1.7162498474121097 2.9608266601562496 L 1.6631248474121099 2.9608266601562496 M 2.2131367492675786 3.1177016601562495 Q 2.2131367492675786 3.1502016601562497 2.2018867492675787 3.17988916015625 Q 2.1906367492675787 3.2095766601562494 2.1696992492675786 3.23207666015625 Q 2.1487617492675786 3.25457666015625 2.1190742492675785 3.2677016601562494 Q 2.089386749267579 3.2808266601562495 2.0525117492675786 3.2808266601562495 Q 2.0150117492675785 3.2808266601562495 1.9846992492675786 3.2673891601562497 Q 1.9543867492675786 3.2539516601562495 1.9334492492675786 3.2314516601562495 Q 1.9125117492675787 3.2089516601562496 1.9009492492675786 3.1792641601562495 Q 1.8893867492675787 3.14957666015625 1.8893867492675787 3.1177016601562495 Q 1.8893867492675787 3.0852016601562497 1.9009492492675786 3.0555141601562497 Q 1.9125117492675787 3.0258266601562496 1.9334492492675786 3.0033266601562496 Q 1.9543867492675786 2.9808266601562496 1.9846992492675786 2.9673891601562494 Q 2.0150117492675785 2.9539516601562497 2.0525117492675786 2.9539516601562497 Q 2.089386749267579 2.9539516601562497 2.1190742492675785 2.9673891601562494 Q 2.1487617492675786 2.9808266601562496 2.1696992492675786 3.0033266601562496 Q 2.1906367492675787 3.0258266601562496 2.2018867492675787 3.0555141601562497 Q 2.2131367492675786 3.0852016601562497 2.2131367492675786 3.1177016601562495 M 2.153761749267579 3.1177016601562495 Q 2.153761749267579 3.0739516601562498 2.1443867492675786 3.0467641601562496 Q 2.1350117492675786 3.0195766601562495 2.1200117492675785 3.00457666015625 Q 2.105011749267579 2.9895766601562497 2.0868867492675784 2.9842641601562496 Q 2.0687617492675785 2.9789516601562496 2.0518867492675787 2.9789516601562496 Q 2.0350117492675786 2.9789516601562496 2.0168867492675786 2.9842641601562496 Q 1.9987617492675787 2.9895766601562497 1.9834492492675786 3.00457666015625 Q 1.9681367492675788 3.0195766601562495 1.9584492492675787 3.0467641601562496 Q 1.9487617492675786 3.0739516601562498 1.9487617492675786 3.1177016601562495 Q 1.9487617492675786 3.16082666015625 1.9584492492675787 3.1880141601562495 Q 1.9681367492675788 3.2152016601562496 1.9834492492675786 3.2302016601562498 Q 1.9987617492675787 3.2452016601562494 2.0168867492675786 3.2505141601562495 Q 2.0350117492675786 3.2558266601562496 2.0518867492675787 3.2558266601562496 Q 2.0687617492675785 3.2558266601562496 2.0868867492675784 3.2505141601562495 Q 2.105011749267579 3.2452016601562494 2.1200117492675785 3.2302016601562498 Q 2.1350117492675786 3.2152016601562496 2.1443867492675786 3.1880141601562495 Q 2.153761749267579 3.16082666015625 2.153761749267579 3.1177016601562495 M 2.26312484741211 2.9608266601562496 L 2.37124984741211 3.2733266601562496 L 2.40499984741211 3.2733266601562496 L 2.47749984741211 3.0639516601562495 L 2.47999984741211 3.0639516601562495 L 2.56124984741211 3.2733266601562496 L 2.59062484741211 3.2733266601562496 L 2.70437484741211 2.9608266601562496 L 2.67187484741211 2.9608266601562496 L 2.58687484741211 3.1945766601562497 L 2.5843748474121098 3.1945766601562497 L 2.49562484741211 2.9608266601562496 L 2.48312484741211 2.9608266601562496 L 2.4012498474121102 3.19645166015625 L 2.39874984741211 3.19645166015625 L 2.31749984741211 2.9608266601562496 L 2.26312484741211 2.9608266601562496 M 2.7931071472167974 2.9608266601562496 L 2.7931071472167974 3.2733266601562496 L 2.8462321472167975 3.2733266601562496 L 2.8462321472167975 2.9608266601562496 L 2.7931071472167974 2.9608266601562496 M 2.7856071472167976 2.8620766601562497 Q 2.7856071472167976 2.8758266601562497 2.7956071472167974 2.8858266601562494 Q 2.8056071472167976 2.8958266601562497 2.8193571472167975 2.8958266601562497 Q 2.8331071472167975 2.8958266601562497 2.8431071472167977 2.8858266601562494 Q 2.8531071472167975 2.8758266601562497 2.8531071472167975 2.8620766601562497 Q 2.8531071472167975 2.84832666015625 2.8431071472167977 2.8383266601562496 Q 2.8331071472167975 2.82832666015625 2.8193571472167975 2.82832666015625 Q 2.8056071472167976 2.82832666015625 2.7956071472167974 2.8383266601562496 Q 2.7856071472167976 2.84832666015625 2.7856071472167976 2.8620766601562497 M 3.233096771240235 3.2733266601562496 L 3.233096771240235 3.0708266601562495 Q 3.233096771240235 3.0595766601562495 3.2312217712402354 3.0398891601562497 Q 3.2293467712402353 3.02020166015625 3.2190342712402353 3.0011391601562494 Q 3.208721771240235 2.98207666015625 3.186221771240235 2.9680141601562497 Q 3.163721771240235 2.9539516601562497 3.1224717712402352 2.9539516601562497 Q 3.1043467712402353 2.95332666015625 3.0818467712402353 2.96113916015625 Q 3.0593467712402354 2.96895166015625 3.0374717712402353 2.9908266601562494 L 3.027471771240235 3.0008266601562497 L 3.024971771240235 3.0008266601562497 L 3.024971771240235 2.9608266601562496 L 2.971846771240235 2.9608266601562496 L 2.971846771240235 3.2733266601562496 L 3.024971771240235 3.2733266601562496 L 3.024971771240235 3.0802016601562494 Q 3.024971771240235 3.05582666015625 3.031846771240235 3.0383266601562497 Q 3.038721771240235 3.0208266601562497 3.0505967712402353 3.0089516601562494 Q 3.062471771240235 2.9970766601562495 3.077784271240235 2.9914516601562497 Q 3.0930967712402353 2.9858266601562495 3.109346771240235 2.9858266601562495 Q 3.1355967712402353 2.9858266601562495 3.149971771240235 2.9961391601562495 Q 3.1643467712402353 3.0064516601562494 3.170909271240235 3.02020166015625 Q 3.177471771240235 3.0339516601562497 3.178721771240235 3.0477016601562497 Q 3.1799717712402353 3.0614516601562496 3.1799717712402353 3.0677016601562497 L 3.1799717712402353 3.2733266601562496 L 3.233096771240235 3.2733266601562496 M 3.564342803955079 3.2995766601562497 Q 3.564342803955079 3.32832666015625 3.557467803955079 3.34832666015625 Q 3.550592803955079 3.36832666015625 3.538405303955079 3.3808266601562496 Q 3.526217803955079 3.3933266601562497 3.509655303955079 3.3989516601562495 Q 3.493092803955079 3.4045766601562497 3.474342803955079 3.4045766601562497 Q 3.441217803955079 3.4045766601562497 3.420905303955079 3.3877016601562495 Q 3.400592803955079 3.3708266601562498 3.383717803955079 3.3427016601562496 L 3.349342803955079 3.3739516601562496 Q 3.353717803955079 3.37957666015625 3.363092803955079 3.3886391601562496 Q 3.372467803955079 3.3977016601562497 3.386842803955079 3.4067641601562495 Q 3.401217803955079 3.4158266601562497 3.421217803955079 3.4223891601562495 Q 3.441217803955079 3.4289516601562497 3.466842803955079 3.4289516601562497 Q 3.514342803955079 3.4289516601562497 3.543717803955079 3.4155141601562495 Q 3.573092803955079 3.4020766601562498 3.589342803955079 3.37957666015625 Q 3.605592803955079 3.35707666015625 3.611530303955079 3.3280141601562496 Q 3.617467803955079 3.2989516601562494 3.617467803955079 3.2677016601562494 L 3.617467803955079 2.9608266601562496 L 3.564342803955079 2.9608266601562496 L 3.564342803955079 3.0095766601562497 L 3.561842803955079 3.0095766601562497 Q 3.554342803955079 2.9833266601562496 3.529655303955079 2.9686391601562496 Q 3.504967803955079 2.9539516601562497 3.464967803955079 2.9539516601562497 Q 3.433092803955079 2.9539516601562497 3.406842803955079 2.96551416015625 Q 3.380592803955079 2.9770766601562495 3.361842803955079 2.9983266601562497 Q 3.343092803955079 3.0195766601562495 3.332780303955079 3.0495766601562497 Q 3.322467803955079 3.0795766601562495 3.322467803955079 3.1164516601562497 Q 3.322467803955079 3.15395166015625 3.332780303955079 3.18426416015625 Q 3.343092803955079 3.2145766601562498 3.361842803955079 3.2361391601562497 Q 3.380592803955079 3.2577016601562496 3.406530303955079 3.2692641601562498 Q 3.432467803955079 3.2808266601562495 3.464342803955079 3.2808266601562495 Q 3.499342803955079 3.2808266601562495 3.525280303955079 3.2670766601562495 Q 3.551217803955079 3.2533266601562496 3.561842803955079 3.22332666015625 L 3.564342803955079 3.22332666015625 L 3.564342803955079 3.2995766601562497 M 3.564342803955079 3.1402016601562495 Q 3.564342803955079 3.1664516601562496 3.557155303955079 3.1864516601562496 Q 3.549967803955079 3.2064516601562496 3.538092803955079 3.2202016601562495 Q 3.526217803955079 3.2339516601562495 3.510592803955079 3.2411391601562496 Q 3.494967803955079 3.2483266601562497 3.478092803955079 3.2483266601562497 Q 3.463092803955079 3.2483266601562497 3.445905303955079 3.2430141601562497 Q 3.428717803955079 3.2377016601562496 3.4140303039550792 3.22332666015625 Q 3.399342803955079 3.2089516601562496 3.389655303955079 3.1827016601562494 Q 3.379967803955079 3.15645166015625 3.379967803955079 3.1152016601562496 Q 3.379967803955079 3.07145166015625 3.391842803955079 3.0455141601562494 Q 3.403717803955079 3.0195766601562495 3.419655303955079 3.0058266601562496 Q 3.435592803955079 2.9920766601562496 3.452155303955079 2.9880141601562498 Q 3.4687178039550792 2.9839516601562495 3.478092803955079 2.9839516601562495 Q 3.498717803955079 2.9839516601562495 3.514967803955079 2.9930141601562497 Q 3.5312178039550792 3.0020766601562494 3.542155303955079 3.0173891601562497 Q 3.553092803955079 3.0327016601562495 3.558717803955079 3.0527016601562496 Q 3.564342803955079 3.0727016601562496 3.564342803955079 3.09395166015625 L 3.564342803955079 3.1402016601562495 M 3.9174461364746103 2.8358266601562496 L 4.06869613647461 3.1077016601562497 L 4.06869613647461 3.2733266601562496 L 4.12557113647461 3.2733266601562496 L 4.12557113647461 3.1020766601562495 L 4.279321136474611 2.8358266601562496 L 4.24557113647461 2.8358266601562496 L 4.11182113647461 3.0664516601562495 L 4.109321136474611 3.0664516601562495 L 3.9818211364746103 2.8358266601562496 L 3.9174461364746103 2.8358266601562496 M 4.659306793212892 3.1177016601562495 Q 4.659306793212892 3.1502016601562497 4.648056793212891 3.17988916015625 Q 4.636806793212891 3.2095766601562494 4.615869293212891 3.23207666015625 Q 4.594931793212892 3.25457666015625 4.565244293212891 3.2677016601562494 Q 4.5355567932128915 3.2808266601562495 4.498681793212891 3.2808266601562495 Q 4.461181793212892 3.2808266601562495 4.430869293212892 3.2673891601562497 Q 4.400556793212892 3.2539516601562495 4.379619293212891 3.2314516601562495 Q 4.358681793212892 3.2089516601562496 4.3471192932128915 3.1792641601562495 Q 4.335556793212891 3.14957666015625 4.335556793212891 3.1177016601562495 Q 4.335556793212891 3.0852016601562497 4.3471192932128915 3.0555141601562497 Q 4.358681793212892 3.0258266601562496 4.379619293212891 3.0033266601562496 Q 4.400556793212892 2.9808266601562496 4.430869293212892 2.9673891601562494 Q 4.461181793212892 2.9539516601562497 4.498681793212891 2.9539516601562497 Q 4.5355567932128915 2.9539516601562497 4.565244293212891 2.9673891601562494 Q 4.594931793212892 2.9808266601562496 4.615869293212891 3.0033266601562496 Q 4.636806793212891 3.0258266601562496 4.648056793212891 3.0555141601562497 Q 4.659306793212892 3.0852016601562497 4.659306793212892 3.1177016601562495 M 4.599931793212892 3.1177016601562495 Q 4.599931793212892 3.0739516601562498 4.590556793212891 3.0467641601562496 Q 4.581181793212892 3.0195766601562495 4.566181793212891 3.00457666015625 Q 4.5511817932128915 2.9895766601562497 4.533056793212891 2.9842641601562496 Q 4.514931793212892 2.9789516601562496 4.498056793212891 2.9789516601562496 Q 4.481181793212891 2.9789516601562496 4.463056793212892 2.9842641601562496 Q 4.444931793212891 2.9895766601562497 4.429619293212891 3.00457666015625 Q 4.414306793212892 3.0195766601562495 4.404619293212892 3.0467641601562496 Q 4.3949317932128915 3.0739516601562498 4.3949317932128915 3.1177016601562495 Q 4.3949317932128915 3.16082666015625 4.404619293212892 3.1880141601562495 Q 4.414306793212892 3.2152016601562496 4.429619293212891 3.2302016601562498 Q 4.444931793212891 3.2452016601562494 4.463056793212892 3.2505141601562495 Q 4.481181793212891 3.2558266601562496 4.498056793212891 3.2558266601562496 Q 4.514931793212892 3.2558266601562496 4.533056793212891 3.2505141601562495 Q 4.5511817932128915 3.2452016601562494 4.566181793212891 3.2302016601562498 Q 4.581181793212892 3.2152016601562496 4.590556793212891 3.1880141601562495 Q 4.599931793212892 3.16082666015625 4.599931793212892 3.1177016601562495 M 4.746794891357422 2.9608266601562496 L 4.746794891357422 3.1639516601562496 Q 4.746794891357422 3.1752016601562496 4.748982391357422 3.1948891601562495 Q 4.7511698913574225 3.2145766601562498 4.761794891357423 3.2336391601562497 Q 4.772419891357422 3.2527016601562497 4.795232391357422 3.26676416015625 Q 4.818044891357422 3.2808266601562495 4.859294891357422 3.2808266601562495 Q 4.877419891357422 3.28145166015625 4.898982391357422 3.27363916015625 Q 4.920544891357422 3.26582666015625 4.942419891357423 3.2439516601562497 L 4.952419891357422 3.2339516601562495 L 4.954919891357422 3.2339516601562495 L 4.954919891357422 3.2733266601562496 L 5.0080448913574225 3.2733266601562496 L 5.0080448913574225 2.9608266601562496 L 4.954919891357422 2.9608266601562496 L 4.954919891357422 3.1545766601562497 Q 4.954919891357422 3.1789516601562497 4.948044891357422 3.19645166015625 Q 4.941169891357422 3.2139516601562494 4.9299198913574225 3.2255141601562496 Q 4.918669891357422 3.2370766601562497 4.903669891357422 3.2427016601562495 Q 4.888669891357422 3.2483266601562497 4.872419891357422 3.2483266601562497 Q 4.846169891357422 3.2483266601562497 4.831482391357422 3.2380141601562498 Q 4.816794891357422 3.22770166015625 4.809607391357423 3.2139516601562494 Q 4.802419891357422 3.2002016601562495 4.801169891357422 3.1867641601562497 Q 4.799919891357423 3.1733266601562495 4.799919891357423 3.1670766601562494 L 4.799919891357423 2.9608266601562496 L 4.746794891357422 2.9608266601562496 M 5.1161659240722654 2.9608266601562496 L 5.1161659240722654 3.2733266601562496 L 5.169290924072266 3.2733266601562496 L 5.169290924072266 3.0845766601562494 Q 5.169290924072266 3.0589516601562496 5.175228424072266 3.0411391601562494 Q 5.181165924072266 3.0233266601562496 5.190540924072265 3.0120766601562496 Q 5.199915924072266 3.0008266601562497 5.211165924072265 2.9958266601562498 Q 5.222415924072266 2.9908266601562494 5.233040924072266 2.9908266601562494 Q 5.247415924072266 2.9908266601562494 5.2596034240722656 3.00020166015625 Q 5.271790924072266 3.0095766601562497 5.277415924072265 3.0177016601562494 L 5.2986659240722656 2.9789516601562496 Q 5.293040924072265 2.9714516601562497 5.285228424072265 2.96645166015625 Q 5.277415924072265 2.9614516601562495 5.269603424072265 2.95863916015625 Q 5.261790924072265 2.9558266601562497 5.255228424072266 2.9548891601562497 Q 5.248665924072266 2.9539516601562497 5.245540924072266 2.9539516601562497 Q 5.219290924072266 2.9539516601562497 5.201790924072266 2.9683266601562495 Q 5.184290924072266 2.9827016601562497 5.173040924072265 3.0108266601562494 L 5.169290924072266 3.0108266601562494 L 5.169290924072266 2.9608266601562496 L 5.1161659240722654 2.9608266601562496 M 5.611162567138671 3.2733266601562496 L 5.768037567138671 3.2733266601562496 Q 5.809912567138671 3.2733266601562496 5.838662567138671 3.26238916015625 Q 5.867412567138671 3.2514516601562495 5.884912567138671 3.2339516601562495 Q 5.902412567138671 3.21645166015625 5.910225067138671 3.1942641601562496 Q 5.918037567138671 3.17207666015625 5.918037567138671 3.14957666015625 Q 5.918037567138671 3.11395166015625 5.902725067138671 3.0927016601562496 Q 5.8874125671386714 3.07145166015625 5.866162567138671 3.06020166015625 Q 5.844912567138671 3.0489516601562494 5.822412567138671 3.0452016601562497 Q 5.799912567138671 3.0414516601562496 5.786162567138671 3.0408266601562497 L 5.786162567138671 3.0383266601562497 Q 5.808037567138671 3.0383266601562497 5.827412567138671 3.0298891601562494 Q 5.846787567138671 3.0214516601562496 5.861475067138671 3.00801416015625 Q 5.876162567138671 2.9945766601562496 5.884912567138671 2.97676416015625 Q 5.893662567138671 2.9589516601562496 5.893662567138671 2.9389516601562495 Q 5.893662567138671 2.9214516601562495 5.886162567138671 2.9033266601562495 Q 5.878662567138671 2.8852016601562496 5.863350067138671 2.8702016601562494 Q 5.848037567138671 2.8552016601562498 5.823975067138671 2.8455141601562497 Q 5.799912567138671 2.8358266601562496 5.767412567138671 2.8358266601562496 L 5.611162567138671 2.8358266601562496 L 5.611162567138671 3.2733266601562496 M 5.668037567138671 3.2458266601562498 L 5.668037567138671 3.0545766601562496 L 5.736787567138671 3.0545766601562496 Q 5.767412567138671 3.0545766601562496 5.789912567138671 3.06270166015625 Q 5.812412567138671 3.0708266601562495 5.827100067138671 3.0845766601562494 Q 5.841787567138671 3.09832666015625 5.848975067138671 3.1164516601562497 Q 5.8561625671386714 3.1345766601562497 5.8561625671386714 3.1545766601562497 Q 5.8561625671386714 3.17645166015625 5.8483500671386714 3.1933266601562496 Q 5.8405375671386714 3.2102016601562497 5.827412567138671 3.2220766601562496 Q 5.814287567138671 3.2339516601562495 5.7964750671386716 3.23988916015625 Q 5.778662567138671 3.2458266601562498 5.758662567138671 3.2458266601562498 L 5.668037567138671 3.2458266601562498 M 5.668037567138671 3.0270766601562498 L 5.668037567138671 2.8633266601562495 L 5.744287567138671 2.8633266601562495 Q 5.768662567138671 2.8633266601562495 5.7858500671386714 2.8702016601562494 Q 5.803037567138671 2.8770766601562494 5.813975067138671 2.88832666015625 Q 5.8249125671386714 2.8995766601562494 5.829912567138671 2.9139516601562496 Q 5.834912567138671 2.9283266601562494 5.834912567138671 2.9427016601562497 Q 5.834912567138671 2.9608266601562496 5.8277250671386716 2.9764516601562496 Q 5.820537567138671 2.9920766601562496 5.807725067138671 3.0033266601562496 Q 5.794912567138671 3.0145766601562496 5.778350067138671 3.0208266601562497 Q 5.761787567138671 3.0270766601562498 5.743037567138671 3.0270766601562498 L 5.668037567138671 3.0270766601562498 M 6.005544281005858 2.9608266601562496 L 6.005544281005858 3.1639516601562496 Q 6.005544281005858 3.1752016601562496 6.007731781005858 3.1948891601562495 Q 6.009919281005859 3.2145766601562498 6.020544281005859 3.2336391601562497 Q 6.031169281005858 3.2527016601562497 6.0539817810058585 3.26676416015625 Q 6.076794281005858 3.2808266601562495 6.118044281005858 3.2808266601562495 Q 6.136169281005858 3.28145166015625 6.157731781005858 3.27363916015625 Q 6.179294281005858 3.26582666015625 6.201169281005859 3.2439516601562497 L 6.2111692810058585 3.2339516601562495 L 6.213669281005858 3.2339516601562495 L 6.213669281005858 3.2733266601562496 L 6.266794281005859 3.2733266601562496 L 6.266794281005859 2.9608266601562496 L 6.213669281005858 2.9608266601562496 L 6.213669281005858 3.1545766601562497 Q 6.213669281005858 3.1789516601562497 6.206794281005858 3.19645166015625 Q 6.199919281005858 3.2139516601562494 6.188669281005859 3.2255141601562496 Q 6.177419281005858 3.2370766601562497 6.1624192810058585 3.2427016601562495 Q 6.147419281005858 3.2483266601562497 6.1311692810058585 3.2483266601562497 Q 6.104919281005858 3.2483266601562497 6.090231781005858 3.2380141601562498 Q 6.075544281005858 3.22770166015625 6.068356781005859 3.2139516601562494 Q 6.061169281005858 3.2002016601562495 6.059919281005858 3.1867641601562497 Q 6.058669281005859 3.1733266601562495 6.058669281005859 3.1670766601562494 L 6.058669281005859 2.9608266601562496 L 6.005544281005858 2.9608266601562496 M 6.574290313720701 3.0320766601562497 Q 6.574290313720701 3.0152016601562495 6.565540313720701 3.0008266601562497 Q 6.556790313720701 2.9864516601562494 6.541477813720702 2.9761391601562495 Q 6.526165313720702 2.9658266601562495 6.5058528137207015 2.9598891601562496 Q 6.485540313720701 2.9539516601562497 6.462415313720702 2.9539516601562497 Q 6.440540313720701 2.9539516601562497 6.421477813720702 2.9595766601562494 Q 6.402415313720701 2.9652016601562496 6.388352813720702 2.9764516601562496 Q 6.374290313720702 2.9877016601562496 6.3661653137207015 3.0042641601562496 Q 6.358040313720702 3.0208266601562497 6.358040313720702 3.0427016601562498 Q 6.358040313720702 3.0727016601562496 6.371790313720702 3.0902016601562496 Q 6.385540313720702 3.1077016601562497 6.4061653137207015 3.11832666015625 Q 6.426790313720701 3.1289516601562495 6.450852813720702 3.1355141601562497 Q 6.474915313720702 3.1420766601562495 6.495540313720702 3.1498891601562495 Q 6.516165313720702 3.1577016601562495 6.529915313720702 3.16957666015625 Q 6.543665313720702 3.1814516601562497 6.543665313720702 3.2020766601562496 Q 6.543665313720702 3.2108266601562496 6.540852813720702 3.2202016601562495 Q 6.5380403137207015 3.2295766601562494 6.530540313720702 3.2373891601562494 Q 6.523040313720702 3.2452016601562494 6.509915313720701 3.2505141601562495 Q 6.496790313720702 3.2558266601562496 6.476790313720702 3.2558266601562496 Q 6.451790313720702 3.2558266601562496 6.434602813720701 3.2480141601562496 Q 6.417415313720702 3.2402016601562496 6.406477813720702 3.2292641601562497 Q 6.395540313720701 3.2183266601562495 6.390852813720702 3.2070766601562495 Q 6.386165313720702 3.1958266601562495 6.386165313720702 3.1883266601562497 L 6.345540313720702 3.1883266601562497 Q 6.345540313720702 3.2058266601562497 6.353665313720701 3.2223891601562498 Q 6.361790313720702 3.23895166015625 6.378352813720702 3.2520766601562494 Q 6.394915313720702 3.2652016601562495 6.418977813720701 3.2730141601562495 Q 6.443040313720702 3.2808266601562495 6.474915313720702 3.2808266601562495 Q 6.532415313720701 3.2808266601562495 6.5614778137207015 3.25551416015625 Q 6.590540313720702 3.2302016601562498 6.590540313720702 3.1889516601562495 Q 6.590540313720702 3.1589516601562497 6.576477813720702 3.14082666015625 Q 6.5624153137207015 3.12270166015625 6.541165313720701 3.1117641601562496 Q 6.519915313720702 3.1008266601562497 6.495227813720701 3.09395166015625 Q 6.470540313720702 3.08707666015625 6.449290313720701 3.0795766601562495 Q 6.428040313720702 3.0720766601562497 6.4139778137207015 3.0614516601562496 Q 6.399915313720702 3.0508266601562495 6.399915313720702 3.03145166015625 Q 6.399915313720702 3.0233266601562496 6.403040313720702 3.0142641601562494 Q 6.4061653137207015 3.0052016601562497 6.413665313720702 2.9973891601562497 Q 6.421165313720702 2.9895766601562497 6.433665313720701 2.9842641601562496 Q 6.446165313720702 2.9789516601562496 6.464915313720701 2.9789516601562496 Q 6.483665313720702 2.9789516601562496 6.497415313720702 2.9842641601562496 Q 6.511165313720702 2.9895766601562497 6.520540313720701 2.9973891601562497 Q 6.529915313720702 3.0052016601562497 6.534290313720701 3.0145766601562496 Q 6.538665313720702 3.0239516601562495 6.538665313720702 3.0320766601562497 L 6.574290313720701 3.0320766601562497 M 6.701153106689452 2.9608266601562496 L 6.701153106689452 3.2733266601562496 L 6.754278106689451 3.2733266601562496 L 6.754278106689451 2.9608266601562496 L 6.701153106689452 2.9608266601562496 M 6.693653106689451 2.8620766601562497 Q 6.693653106689451 2.8758266601562497 6.703653106689451 2.8858266601562494 Q 6.713653106689451 2.8958266601562497 6.727403106689452 2.8958266601562497 Q 6.741153106689452 2.8958266601562497 6.7511531066894515 2.8858266601562494 Q 6.761153106689451 2.8758266601562497 6.761153106689451 2.8620766601562497 Q 6.761153106689451 2.84832666015625 6.7511531066894515 2.8383266601562496 Q 6.741153106689452 2.82832666015625 6.727403106689452 2.82832666015625 Q 6.713653106689451 2.82832666015625 6.703653106689451 2.8383266601562496 Q 6.693653106689451 2.84832666015625 6.693653106689451 2.8620766601562497 M 7.141142730712889 3.2733266601562496 L 7.141142730712889 3.0708266601562495 Q 7.141142730712889 3.0595766601562495 7.139267730712889 3.0398891601562497 Q 7.137392730712889 3.02020166015625 7.127080230712888 3.0011391601562494 Q 7.116767730712889 2.98207666015625 7.094267730712889 2.9680141601562497 Q 7.071767730712889 2.9539516601562497 7.030517730712888 2.9539516601562497 Q 7.012392730712889 2.95332666015625 6.989892730712889 2.96113916015625 Q 6.967392730712889 2.96895166015625 6.945517730712888 2.9908266601562494 L 6.935517730712888 3.0008266601562497 L 6.933017730712889 3.0008266601562497 L 6.933017730712889 2.9608266601562496 L 6.879892730712888 2.9608266601562496 L 6.879892730712888 3.2733266601562496 L 6.933017730712889 3.2733266601562496 L 6.933017730712889 3.0802016601562494 Q 6.933017730712889 3.05582666015625 6.939892730712889 3.0383266601562497 Q 6.946767730712889 3.0208266601562497 6.958642730712889 3.0089516601562494 Q 6.9705177307128885 2.9970766601562495 6.985830230712889 2.9914516601562497 Q 7.001142730712888 2.9858266601562495 7.0173927307128885 2.9858266601562495 Q 7.043642730712889 2.9858266601562495 7.058017730712889 2.9961391601562495 Q 7.072392730712888 3.0064516601562494 7.0789552307128885 3.02020166015625 Q 7.085517730712889 3.0339516601562497 7.0867677307128885 3.0477016601562497 Q 7.088017730712888 3.0614516601562496 7.088017730712888 3.0677016601562497 L 7.088017730712888 3.2733266601562496 L 7.141142730712889 3.2733266601562496 M 7.526763763427732 3.1308266601562496 L 7.526763763427732 3.1177016601562495 Q 7.526763763427732 3.07582666015625 7.514888763427732 3.0452016601562497 Q 7.503013763427732 3.0145766601562496 7.482701263427732 2.9945766601562496 Q 7.4623887634277315 2.9745766601562496 7.435513763427732 2.9645766601562498 Q 7.4086387634277315 2.9545766601562495 7.378638763427732 2.9545766601562495 Q 7.346763763427732 2.9545766601562495 7.319888763427732 2.96551416015625 Q 7.293013763427732 2.9764516601562496 7.273013763427732 2.9973891601562497 Q 7.253013763427732 3.0183266601562497 7.241763763427732 3.04801416015625 Q 7.230513763427732 3.0777016601562495 7.230513763427732 3.1152016601562496 Q 7.230513763427732 3.1464516601562496 7.240201263427732 3.1761391601562496 Q 7.249888763427732 3.2058266601562497 7.269576263427732 3.2292641601562497 Q 7.289263763427732 3.2527016601562497 7.319576263427732 3.26676416015625 Q 7.349888763427732 3.2808266601562495 7.3911387634277315 3.2808266601562495 Q 7.4311387634277315 3.2808266601562495 7.464888763427732 3.26676416015625 Q 7.498638763427732 3.2527016601562497 7.523638763427732 3.2264516601562496 L 7.503638763427732 3.2064516601562496 Q 7.490513763427732 3.2177016601562496 7.4789512634277315 3.2270766601562495 Q 7.467388763427732 3.2364516601562494 7.4555137634277315 3.2427016601562495 Q 7.443638763427732 3.2489516601562496 7.430826263427732 3.2523891601562496 Q 7.418013763427732 3.2558266601562496 7.402388763427732 3.2558266601562496 Q 7.384888763427732 3.2558266601562496 7.365201263427732 3.2505141601562495 Q 7.345513763427732 3.2452016601562494 7.3286387634277315 3.2314516601562495 Q 7.311763763427732 3.2177016601562496 7.300513763427732 3.1933266601562496 Q 7.289263763427732 3.1689516601562495 7.289263763427732 3.1308266601562496 L 7.526763763427732 3.1308266601562496 M 7.289263763427732 3.1058266601562496 Q 7.289263763427732 3.0808266601562497 7.294576263427732 3.0573891601562497 Q 7.299888763427732 3.0339516601562497 7.310826263427732 3.01582666015625 Q 7.3217637634277315 2.99770166015625 7.338638763427732 2.9867641601562496 Q 7.355513763427732 2.9758266601562497 7.378638763427732 2.9758266601562497 Q 7.423013763427732 2.9758266601562497 7.4477012634277315 3.0105141601562497 Q 7.472388763427732 3.0452016601562497 7.472388763427732 3.1058266601562496 L 7.289263763427732 3.1058266601562496 M 7.813622894287106 3.0320766601562497 Q 7.813622894287106 3.0152016601562495 7.804872894287106 3.0008266601562497 Q 7.796122894287106 2.9864516601562494 7.780810394287107 2.9761391601562495 Q 7.7654978942871065 2.9658266601562495 7.745185394287106 2.9598891601562496 Q 7.724872894287106 2.9539516601562497 7.701747894287107 2.9539516601562497 Q 7.679872894287106 2.9539516601562497 7.660810394287107 2.9595766601562494 Q 7.641747894287106 2.9652016601562496 7.627685394287107 2.9764516601562496 Q 7.613622894287107 2.9877016601562496 7.605497894287106 3.0042641601562496 Q 7.597372894287107 3.0208266601562497 7.597372894287107 3.0427016601562498 Q 7.597372894287107 3.0727016601562496 7.6111228942871065 3.0902016601562496 Q 7.6248728942871065 3.1077016601562497 7.645497894287106 3.11832666015625 Q 7.666122894287106 3.1289516601562495 7.690185394287107 3.1355141601562497 Q 7.714247894287107 3.1420766601562495 7.734872894287107 3.1498891601562495 Q 7.755497894287107 3.1577016601562495 7.769247894287107 3.16957666015625 Q 7.7829978942871065 3.1814516601562497 7.7829978942871065 3.2020766601562496 Q 7.7829978942871065 3.2108266601562496 7.780185394287106 3.2202016601562495 Q 7.777372894287106 3.2295766601562494 7.769872894287107 3.2373891601562494 Q 7.762372894287107 3.2452016601562494 7.749247894287106 3.2505141601562495 Q 7.7361228942871065 3.2558266601562496 7.716122894287107 3.2558266601562496 Q 7.691122894287107 3.2558266601562496 7.673935394287106 3.2480141601562496 Q 7.656747894287107 3.2402016601562496 7.645810394287107 3.2292641601562497 Q 7.634872894287106 3.2183266601562495 7.630185394287107 3.2070766601562495 Q 7.625497894287107 3.1958266601562495 7.625497894287107 3.1883266601562497 L 7.584872894287106 3.1883266601562497 Q 7.584872894287106 3.2058266601562497 7.592997894287106 3.2223891601562498 Q 7.601122894287107 3.23895166015625 7.617685394287107 3.2520766601562494 Q 7.634247894287107 3.2652016601562495 7.658310394287106 3.2730141601562495 Q 7.682372894287107 3.2808266601562495 7.714247894287107 3.2808266601562495 Q 7.771747894287106 3.2808266601562495 7.800810394287106 3.25551416015625 Q 7.8298728942871065 3.2302016601562498 7.8298728942871065 3.1889516601562495 Q 7.8298728942871065 3.1589516601562497 7.815810394287107 3.14082666015625 Q 7.801747894287106 3.12270166015625 7.780497894287106 3.1117641601562496 Q 7.759247894287107 3.1008266601562497 7.734560394287106 3.09395166015625 Q 7.709872894287106 3.08707666015625 7.688622894287106 3.0795766601562495 Q 7.667372894287107 3.0720766601562497 7.653310394287106 3.0614516601562496 Q 7.639247894287107 3.0508266601562495 7.639247894287107 3.03145166015625 Q 7.639247894287107 3.0233266601562496 7.6423728942871065 3.0142641601562494 Q 7.645497894287106 3.0052016601562497 7.652997894287107 2.9973891601562497 Q 7.660497894287107 2.9895766601562497 7.672997894287106 2.9842641601562496 Q 7.685497894287106 2.9789516601562496 7.704247894287106 2.9789516601562496 Q 7.722997894287107 2.9789516601562496 7.736747894287107 2.9842641601562496 Q 7.750497894287107 2.9895766601562497 7.759872894287106 2.9973891601562497 Q 7.769247894287107 3.0052016601562497 7.773622894287106 3.0145766601562496 Q 7.777997894287107 3.0239516601562495 7.777997894287107 3.0320766601562497 L 7.813622894287106 3.0320766601562497 M 8.119860687255857 3.0320766601562497 Q 8.119860687255857 3.0152016601562495 8.111110687255856 3.0008266601562497 Q 8.102360687255857 2.9864516601562494 8.087048187255856 2.9761391601562495 Q 8.071735687255856 2.9658266601562495 8.051423187255857 2.9598891601562496 Q 8.031110687255856 2.9539516601562497 8.007985687255855 2.9539516601562497 Q 7.986110687255856 2.9539516601562497 7.967048187255856 2.9595766601562494 Q 7.947985687255856 2.9652016601562496 7.933923187255856 2.9764516601562496 Q 7.919860687255857 2.9877016601562496 7.911735687255856 3.0042641601562496 Q 7.903610687255856 3.0208266601562497 7.903610687255856 3.0427016601562498 Q 7.903610687255856 3.0727016601562496 7.917360687255856 3.0902016601562496 Q 7.931110687255856 3.1077016601562497 7.951735687255856 3.11832666015625 Q 7.972360687255856 3.1289516601562495 7.996423187255856 3.1355141601562497 Q 8.020485687255857 3.1420766601562495 8.041110687255856 3.1498891601562495 Q 8.061735687255856 3.1577016601562495 8.075485687255856 3.16957666015625 Q 8.089235687255856 3.1814516601562497 8.089235687255856 3.2020766601562496 Q 8.089235687255856 3.2108266601562496 8.086423187255857 3.2202016601562495 Q 8.083610687255856 3.2295766601562494 8.076110687255856 3.2373891601562494 Q 8.068610687255855 3.2452016601562494 8.055485687255857 3.2505141601562495 Q 8.042360687255856 3.2558266601562496 8.022360687255857 3.2558266601562496 Q 7.997360687255856 3.2558266601562496 7.980173187255856 3.2480141601562496 Q 7.962985687255856 3.2402016601562496 7.952048187255857 3.2292641601562497 Q 7.941110687255856 3.2183266601562495 7.936423187255857 3.2070766601562495 Q 7.931735687255856 3.1958266601562495 7.931735687255856 3.1883266601562497 L 7.891110687255856 3.1883266601562497 Q 7.891110687255856 3.2058266601562497 7.899235687255856 3.2223891601562498 Q 7.907360687255856 3.23895166015625 7.923923187255856 3.2520766601562494 Q 7.9404856872558565 3.2652016601562495 7.964548187255856 3.2730141601562495 Q 7.988610687255856 3.2808266601562495 8.020485687255857 3.2808266601562495 Q 8.077985687255856 3.2808266601562495 8.107048187255856 3.25551416015625 Q 8.136110687255856 3.2302016601562498 8.136110687255856 3.1889516601562495 Q 8.136110687255856 3.1589516601562497 8.122048187255857 3.14082666015625 Q 8.107985687255857 3.12270166015625 8.086735687255857 3.1117641601562496 Q 8.065485687255856 3.1008266601562497 8.040798187255856 3.09395166015625 Q 8.016110687255857 3.08707666015625 7.994860687255856 3.0795766601562495 Q 7.9736106872558565 3.0720766601562497 7.959548187255856 3.0614516601562496 Q 7.945485687255856 3.0508266601562495 7.945485687255856 3.03145166015625 Q 7.945485687255856 3.0233266601562496 7.948610687255856 3.0142641601562494 Q 7.951735687255856 3.0052016601562497 7.959235687255856 2.9973891601562497 Q 7.966735687255857 2.9895766601562497 7.979235687255856 2.9842641601562496 Q 7.991735687255856 2.9789516601562496 8.010485687255857 2.9789516601562496 Q 8.029235687255856 2.9789516601562496 8.042985687255856 2.9842641601562496 Q 8.056735687255856 2.9895766601562497 8.066110687255856 2.9973891601562497 Q 8.075485687255856 3.0052016601562497 8.079860687255856 3.0145766601562496 Q 8.084235687255855 3.0239516601562495 8.084235687255855 3.0320766601562497 L 8.119860687255857 3.0320766601562497 M 8.432958221435543 3.0545766601562496 Q 8.432958221435543 3.0895766601562498 8.446395721435543 3.1292641601562496 Q 8.459833221435543 3.1689516601562495 8.488583221435542 3.2027016601562495 Q 8.517333221435543 3.2364516601562494 8.561708221435543 3.2586391601562497 Q 8.606083221435544 3.2808266601562495 8.667958221435542 3.2808266601562495 Q 8.709833221435543 3.2808266601562495 8.743895721435543 3.2705141601562495 Q 8.777958221435544 3.2602016601562496 8.805145721435544 3.2427016601562495 Q 8.832333221435544 3.2252016601562494 8.852333221435543 3.2023891601562497 Q 8.872333221435543 3.1795766601562496 8.885145721435544 3.1542641601562496 Q 8.897958221435543 3.1289516601562495 8.904520721435542 3.1033266601562497 Q 8.911083221435543 3.0777016601562495 8.911083221435543 3.0545766601562496 Q 8.911083221435543 3.0195766601562495 8.896708221435542 2.9798891601562496 Q 8.882333221435543 2.9402016601562497 8.852333221435543 2.90645166015625 Q 8.822333221435542 2.87270166015625 8.776395721435543 2.8505141601562496 Q 8.730458221435542 2.82832666015625 8.667958221435542 2.82832666015625 Q 8.606083221435544 2.82832666015625 8.561708221435543 2.8502016601562494 Q 8.517333221435543 2.8720766601562495 8.488583221435542 2.9055141601562497 Q 8.459833221435543 2.9389516601562495 8.446395721435543 2.9789516601562496 Q 8.432958221435543 3.0189516601562496 8.432958221435543 3.0545766601562496 M 8.494208221435542 3.0545766601562496 Q 8.494208221435542 3.0108266601562494 8.507645721435543 2.97426416015625 Q 8.521083221435543 2.93770166015625 8.544520721435543 2.9114516601562497 Q 8.567958221435543 2.8852016601562496 8.599833221435542 2.8705141601562496 Q 8.631708221435543 2.8558266601562496 8.669208221435543 2.8558266601562496 Q 8.706083221435543 2.8558266601562496 8.738895721435544 2.8705141601562496 Q 8.771708221435542 2.8852016601562496 8.796395721435543 2.9114516601562497 Q 8.821083221435543 2.93770166015625 8.835458221435543 2.97426416015625 Q 8.849833221435542 3.0108266601562494 8.849833221435542 3.0545766601562496 Q 8.849833221435542 3.09832666015625 8.835458221435543 3.1348891601562494 Q 8.821083221435543 3.1714516601562495 8.796395721435543 3.1977016601562496 Q 8.771708221435542 3.2239516601562497 8.738895721435544 3.2386391601562496 Q 8.706083221435543 3.2533266601562496 8.669208221435543 3.2533266601562496 Q 8.631708221435543 3.2533266601562496 8.599833221435542 3.2386391601562496 Q 8.567958221435543 3.2239516601562497 8.544520721435543 3.1977016601562496 Q 8.521083221435543 3.1714516601562495 8.507645721435543 3.1348891601562494 Q 8.494208221435542 3.09832666015625 8.494208221435542 3.0545766601562496 M 9.259827117919917 3.2733266601562496 L 9.259827117919917 3.0708266601562495 Q 9.259827117919917 3.0595766601562495 9.257952117919917 3.0398891601562497 Q 9.256077117919917 3.02020166015625 9.245764617919917 3.0011391601562494 Q 9.235452117919918 2.98207666015625 9.212952117919917 2.9680141601562497 Q 9.190452117919918 2.9539516601562497 9.149202117919918 2.9539516601562497 Q 9.131077117919917 2.95332666015625 9.108577117919918 2.96113916015625 Q 9.086077117919917 2.96895166015625 9.064202117919917 2.9908266601562494 L 9.054202117919917 3.0008266601562497 L 9.051702117919918 3.0008266601562497 L 9.051702117919918 2.9608266601562496 L 8.998577117919918 2.9608266601562496 L 8.998577117919918 3.2733266601562496 L 9.051702117919918 3.2733266601562496 L 9.051702117919918 3.0802016601562494 Q 9.051702117919918 3.05582666015625 9.058577117919917 3.0383266601562497 Q 9.065452117919918 3.0208266601562497 9.077327117919918 3.0089516601562494 Q 9.089202117919918 2.9970766601562495 9.104514617919918 2.9914516601562497 Q 9.119827117919918 2.9858266601562495 9.136077117919918 2.9858266601562495 Q 9.162327117919917 2.9858266601562495 9.176702117919918 2.9961391601562495 Q 9.191077117919917 3.0064516601562494 9.197639617919918 3.02020166015625 Q 9.204202117919918 3.0339516601562497 9.205452117919918 3.0477016601562497 Q 9.206702117919917 3.0614516601562496 9.206702117919917 3.0677016601562497 L 9.206702117919917 3.2733266601562496 L 9.259827117919917 3.2733266601562496 M 9.43357315063476 2.8358266601562496 L 9.380448150634761 2.8358266601562496 L 9.380448150634761 3.2733266601562496 L 9.43357315063476 3.2733266601562496 L 9.43357315063476 2.8358266601562496 M 9.572306365966792 2.9608266601562496 L 9.572306365966792 3.2733266601562496 L 9.625431365966792 3.2733266601562496 L 9.625431365966792 2.9608266601562496 L 9.572306365966792 2.9608266601562496 M 9.564806365966792 2.8620766601562497 Q 9.564806365966792 2.8758266601562497 9.574806365966792 2.8858266601562494 Q 9.584806365966791 2.8958266601562497 9.598556365966791 2.8958266601562497 Q 9.612306365966791 2.8958266601562497 9.622306365966791 2.8858266601562494 Q 9.632306365966793 2.8758266601562497 9.632306365966793 2.8620766601562497 Q 9.632306365966793 2.84832666015625 9.622306365966791 2.8383266601562496 Q 9.612306365966791 2.82832666015625 9.598556365966791 2.82832666015625 Q 9.584806365966791 2.82832666015625 9.574806365966792 2.8383266601562496 Q 9.564806365966792 2.84832666015625 9.564806365966792 2.8620766601562497 M 10.012295989990228 3.2733266601562496 L 10.012295989990228 3.0708266601562495 Q 10.012295989990228 3.0595766601562495 10.010420989990228 3.0398891601562497 Q 10.008545989990228 3.02020166015625 9.998233489990229 3.0011391601562494 Q 9.98792098999023 2.98207666015625 9.965420989990228 2.9680141601562497 Q 9.94292098999023 2.9539516601562497 9.90167098999023 2.9539516601562497 Q 9.883545989990228 2.95332666015625 9.86104598999023 2.96113916015625 Q 9.838545989990228 2.96895166015625 9.816670989990229 2.9908266601562494 L 9.806670989990229 3.0008266601562497 L 9.80417098999023 3.0008266601562497 L 9.80417098999023 2.9608266601562496 L 9.75104598999023 2.9608266601562496 L 9.75104598999023 3.2733266601562496 L 9.80417098999023 3.2733266601562496 L 9.80417098999023 3.0802016601562494 Q 9.80417098999023 3.05582666015625 9.811045989990228 3.0383266601562497 Q 9.81792098999023 3.0208266601562497 9.82979598999023 3.0089516601562494 Q 9.841670989990229 2.9970766601562495 9.85698348999023 2.9914516601562497 Q 9.87229598999023 2.9858266601562495 9.888545989990229 2.9858266601562495 Q 9.914795989990228 2.9858266601562495 9.92917098999023 2.9961391601562495 Q 9.943545989990229 3.0064516601562494 9.95010848999023 3.02020166015625 Q 9.95667098999023 3.0339516601562497 9.95792098999023 3.0477016601562497 Q 9.959170989990229 3.0614516601562496 9.959170989990229 3.0677016601562497 L 9.959170989990229 3.2733266601562496 L 10.012295989990228 3.2733266601562496 M 10.397917022705073 3.1308266601562496 L 10.397917022705073 3.1177016601562495 Q 10.397917022705073 3.07582666015625 10.386042022705073 3.0452016601562497 Q 10.374167022705073 3.0145766601562496 10.353854522705072 2.9945766601562496 Q 10.333542022705073 2.9745766601562496 10.306667022705073 2.9645766601562498 Q 10.279792022705072 2.9545766601562495 10.249792022705073 2.9545766601562495 Q 10.217917022705073 2.9545766601562495 10.191042022705073 2.96551416015625 Q 10.164167022705072 2.9764516601562496 10.144167022705073 2.9973891601562497 Q 10.124167022705073 3.0183266601562497 10.112917022705073 3.04801416015625 Q 10.101667022705072 3.0777016601562495 10.101667022705072 3.1152016601562496 Q 10.101667022705072 3.1464516601562496 10.111354522705073 3.1761391601562496 Q 10.121042022705073 3.2058266601562497 10.140729522705072 3.2292641601562497 Q 10.160417022705072 3.2527016601562497 10.190729522705073 3.26676416015625 Q 10.221042022705072 3.2808266601562495 10.262292022705072 3.2808266601562495 Q 10.302292022705073 3.2808266601562495 10.336042022705072 3.26676416015625 Q 10.369792022705072 3.2527016601562497 10.394792022705072 3.2264516601562496 L 10.374792022705073 3.2064516601562496 Q 10.361667022705072 3.2177016601562496 10.350104522705072 3.2270766601562495 Q 10.338542022705072 3.2364516601562494 10.326667022705072 3.2427016601562495 Q 10.314792022705072 3.2489516601562496 10.301979522705073 3.2523891601562496 Q 10.289167022705072 3.2558266601562496 10.273542022705072 3.2558266601562496 Q 10.256042022705072 3.2558266601562496 10.236354522705073 3.2505141601562495 Q 10.216667022705073 3.2452016601562494 10.199792022705072 3.2314516601562495 Q 10.182917022705073 3.2177016601562496 10.171667022705073 3.1933266601562496 Q 10.160417022705072 3.1689516601562495 10.160417022705072 3.1308266601562496 L 10.397917022705073 3.1308266601562496 M 10.160417022705072 3.1058266601562496 Q 10.160417022705072 3.0808266601562497 10.165729522705073 3.0573891601562497 Q 10.171042022705073 3.0339516601562497 10.181979522705072 3.01582666015625 Q 10.192917022705073 2.99770166015625 10.209792022705072 2.9867641601562496 Q 10.226667022705072 2.9758266601562497 10.249792022705073 2.9758266601562497 Q 10.294167022705073 2.9758266601562497 10.318854522705072 3.0105141601562497 Q 10.343542022705073 3.0452016601562497 10.343542022705073 3.1058266601562496 L 10.160417022705072 3.1058266601562496" fill="#dceac6" fill-rule="nonzero"></path></g><g clip-path="url(#SvgjsClipPath1002)"><g clip-path="url(#SvgjsClipPath100047179c12-ae71-4a3f-923a-3589091965b2)"><path d=" M 2.8192839773392633 -7.276894115282417 L 2.8192839773392633 -8.097639882295182 L 1.2462879933670097 -8.097639882295182 L 1.2462879933670097 -2.8578263699102626 L 3.7125600953902005 -1.4333975222036202 L 5.284163112355761 -2.34065134366654 L 4.466491479426734 -2.812482892175149 L 3.714577495882651 -2.3785016195725612 L 2.066313260203894 -3.3300421851793285 L 2.067033760379771 -7.276942148627474 Z M 5.762479162447237 -1.1948639306436402 L 4.944183096032452 -0.722311881959163 L 5.762479162447237 -0.24980786661975607 L 6.580823262207076 -0.722311881959163 Z M 7.405555796859685 -8.097880049020478 L 6.173020162661322 -8.097880049020478 L 6.173020162661322 -10.231281069789008 L 5.351938162233152 -10.231281069789008 L 5.351938162233152 -8.097880049020478 L 4.11935449468973 -8.097880049020478 L 4.11935449468973 -9.282814638265977 L 3.297600027430743 -9.282814638265977 C 3.2979362608461513 -7.109882174514395 3.29827249426156 -6.212811422203847 3.29894496109238 -4.039878958452265 L 7.812110029433929 -1.4335896555838605 L 10.279054598287932 -2.858018503290504 L 10.278766398217584 -8.097880049020478 L 8.705770414245329 -8.097880049020478 L 8.705770414245329 -7.276894115282417 L 9.458020631204818 -7.276894115282417 L 9.458645064690575 -3.3299941518342715 L 7.81042886235688 -2.3784535862275042 C 6.580198828721316 -3.088770692951024 5.349840706165598 -3.7997922887353877 4.119354494689727 -4.511518373580621 L 4.119354494689727 -7.276894115282417 L 7.405555796859685 -7.276894115282417 L 7.405555796859685 -4.511518373580621 L 6.240074712362837 -3.837946775826774 L 7.05808257870727 -3.3657789939027785 L 8.22591729711198 -4.039638791726968 C 8.226637797287857 -6.21257125547855 8.226974030703268 -7.1096420077890965 8.227310264118675 -9.282574471540679 L 7.405555796859685 -9.282574471540679 Z" fill="#64c6c4" transform="matrix(1,0,0,1,0,0)" fill-rule="evenodd"></path></g></g></g><defs><clipPath id="SvgjsClipPath1002"><path d=" M 1.2462879933670097 -10.231281069789008 h 9.03281463826598 v 9.981281069789008 h -9.03281463826598 Z"></path></clipPath><clipPath id="SvgjsClipPath100047179c12-ae71-4a3f-923a-3589091965b2"><path d=" M 1.2462879933670097 -10.231281069789008 L 10.279102631632991 -10.231281069789008 L 10.279102631632991 -0.25 L 1.2462879933670097 -0.25 Z"></path></clipPath></defs></svg>